SplineFontDB: 3.0
FontName: MusiSync
FullName: MusiSync
FamilyName: MusiSync
Weight: Book
Copyright: Copyright (c) 2001, 2008 by Robert Allgeyer. SIL Open Font License.
Version: 5.002
ItalicAngle: 0
UnderlinePosition: -255.736
UnderlineWidth: 101.24
Ascent: 1199
Descent: 849
InvalidEm: 0
sfntRevision: 0x00050084
LayerCount: 2
Layer: 0 1 "Back" 1
Layer: 1 1 "Fore" 0
XUID: [1021 306 -465688538 3294]
StyleMap: 0x0040
FSType: 0
OS2Version: 3
OS2_WeightWidthSlopeOnly: 0
OS2_UseTypoMetrics: 0
CreationTime: 1200079209
ModificationTime: 1567727856
PfmFamily: 17
TTFWeight: 400
TTFWidth: 5
LineGap: 70
VLineGap: 0
Panose: 2 0 0 0 0 0 0 0 0 0
OS2TypoAscent: 1837
OS2TypoAOffset: 0
OS2TypoDescent: -201
OS2TypoDOffset: 0
OS2TypoLinegap: 137
OS2WinAscent: 2255
OS2WinAOffset: 0
OS2WinDescent: 414
OS2WinDOffset: 0
HheadAscent: 2255
HheadAOffset: 0
HheadDescent: -414
HheadDOffset: 0
OS2SubXSize: 418
OS2SubYSize: 418
OS2SubXOff: 0
OS2SubYOff: 586
OS2SupXSize: 418
OS2SupYSize: 418
OS2SupXOff: 0
OS2SupYOff: 586
OS2StrikeYSize: 102
OS2StrikeYPos: 512
OS2CapHeight: 1810
OS2XHeight: 1434
OS2Vendor: 'NONE'
OS2CodePages: 00000001.00000000
OS2UnicodeRanges: 00000003.00000000.00000000.00000000
MarkAttachClasses: 1
DEI: 91125
TtTable: prep
PUSHB_1
 0
CALL
EndTTInstrs
TtTable: fpgm
PUSHB_1
 0
FDEF
MPPEM
PUSHB_1
 0
LT
IF
PUSHB_2
 1
 1
INSTCTRL
EIF
PUSHW_1
 511
SCANCTRL
PUSHB_1
 68
SCVTCI
PUSHB_2
 0
 3
SDS
SDB
ENDF
PUSHB_1
 1
FDEF
DUP
DUP
RCVT
ROUND[Black]
WCVTP
PUSHB_1
 1
ADD
ENDF
PUSHB_1
 2
FDEF
PUSHB_1
 1
LOOPCALL
POP
ENDF
PUSHB_1
 3
FDEF
DUP
GC[cur]
PUSHB_1
 3
CINDEX
GC[cur]
GT
IF
SWAP
EIF
DUP
ROLL
DUP
ROLL
MD[grid]
ABS
ROLL
DUP
GC[cur]
DUP
ROUND[Grey]
SUB
ABS
PUSHB_1
 4
CINDEX
GC[cur]
DUP
ROUND[Grey]
SUB
ABS
GT
IF
SWAP
NEG
ROLL
EIF
MDAP[rnd]
DUP
PUSHB_1
 0
GTEQ
IF
ROUND[Black]
DUP
PUSHB_1
 0
EQ
IF
POP
PUSHB_1
 64
EIF
ELSE
ROUND[Black]
DUP
PUSHB_1
 0
EQ
IF
POP
PUSHB_1
 64
NEG
EIF
EIF
MSIRP[no-rp0]
ENDF
PUSHB_1
 4
FDEF
DUP
GC[cur]
PUSHB_1
 4
CINDEX
GC[cur]
GT
IF
SWAP
ROLL
EIF
DUP
GC[cur]
DUP

StartChar: exclam
Encoding: 33 33 1
Width: 488
VWidth: 2047
Flags: W
LayerCount: 2
Fore
SplineSet
428 231 m 2,0,1
 428 174 428 174 387 117 c 0,2,3
 347 62 347 62 277 31 c 0,4,5
 209 0 209 0 145 0 c 0,6,7
 87 0 87 0 43 33 c 0,8,9
 0 65 0 65 0 121 c 0,10,11
 0 181 0 181 43 236 c 0,12,13
 57 253 57 253 92 282 c 0,14,15
 121 306 121 306 156 328 c 1,16,17
 193 344 193 344 223.5 351 c 128,-1,18
 254 358 254 358 283 358 c 0,19,20
 344 358 344 358 391 324 c 1,21,-1
 391 483.703658598 l 2,22,23
 389.051315812 480.851829299 389.051315812 480.851829299 387 478 c 0,24,25
 347 423 347 423 277 392 c 0,26,27
 209 361 209 361 145 361 c 0,28,29
 87 361 87 361 43 394 c 0,30,31
 0 426 0 426 0 482 c 0,32,33
 0 542 0 542 43 597 c 0,34,35
 57 614 57 614 92 643 c 0,36,37
 121 667 121 667 156 689 c 1,38,39
 193 705 193 705 223.5 712 c 128,-1,40
 254 719 254 719 283 719 c 0,41,42
 344 719 344 719 391 685 c 1,43,-1
 391 845.703658598 l 2,44,45
 389.051315812 842.851829299 389.051315812 842.851829299 387 840 c 0,46,47
 347 785 347 785 277 754 c 0,48,49
 209 723 209 723 145 723 c 0,50,51
 87 723 87 723 43 756 c 0,52,53
 0 788 0 788 0 844 c 0,54,55
 0 904 0 904 43 959 c 0,56,57
 57 976 57 976 92 1005 c 0,58,59
 121 1029 121 1029 156 1051 c 1,60,61
 193 1067 193 1067 223.5 1074 c 128,-1,62
 254 1081 254 1081 283 1081 c 0,63,64
 344 1081 344 1081 391 1047 c 1,65,-1
 391 1441 l 1,66,-1
 391 1802 l 1,67,-1
 391 2164 l 1,68,-1
 428 2164 l 1,69,-1
 428 1802 l 1,70,-1
 428 1441 l 1,71,-1
 428 954 l 1,72,-1
 428 592 l 1,73,-1
 428 231 l 2,0,1
EndSplineSet
Validated: 1
EndChar

StartChar: quotedbl
Encoding: 34 34 2
Width: 488
VWidth: 2047
Flags: W
LayerCount: 2
Fore
SplineSet
135 201 m 0,0,1
 108 182 108 182 78 144 c 0,2,3
 41 97 41 97 41 74 c 1,4,5
 47 50 47 50 80 37 c 1,6,7
 119 37 119 37 158 58 c 1,8,9
 190 68 190 68 258 117 c 0,10,11
 287 138 287 138 293 142 c 0,12,13
 306 153 306 153 334 187 c 0,14,15
 381 240 381 240 381 271 c 0,16,17
 381 295 381 295 350 306 c 1,18,19
 285 306 285 306 135 201 c 0,0,1
428 231 m 2,20,21
 428 174 428 174 387 117 c 0,22,23
 347 62 347 62 277 31 c 0,24,25
 209 0 209 0 145 0 c 0,26,27
 87 0 87 0 43 33 c 0,28,29
 0 65 0 65 0 121 c 0,30,31
 0 181 0 181 43 236 c 0,32,33
 57 253 57 253 92 282 c 0,34,35
 121 306 121 306 156 328 c 1,36,37
 193 344 193 344 223.5 351 c 128,-1,38
 254 358 254 358 283 358 c 0,39,40
 344 358 344 358 391 324 c 1,41,-1
 391 484.703658598 l 2,42,43
 389.051315812 481.851829299 389.051315812 481.851829299 387 479 c 0,44,45
 347 424 347 424 277 393 c 0,46,47
 209 362 209 362 145 362 c 0,48,49
 87 362 87 362 43 395 c 0,50,51
 0 427 0 427 0 483 c 0,52,53
 0 543 0 543 43 598 c 0,54,55
 57 615 57 615 92 644 c 0,56,57
 121 668 121 668 156 690 c 1,58,59
 193 706 193 706 223.5 713 c 128,-1,60
 254 720 254 720 283 720 c 0,61,62
 344 720 344 720 391 686 c 1,63,-1
 391 846.703658598 l 2,64,65
 389.051315812 843.851829299 389.051315812 843.851829299 387 841 c 0,66,67
 347 786 347 786 277 755 c 0,68,69
 209 724 209 724 145 724 c 0,70,71
 87 724 87 724 43 757 c 0,72,73
 0 789 0 789 0 845 c 0,74,75
 0 905 0 905 43 960 c 0,76,77
 57 977 57 977 92 1006 c 0,78,79
 121 1030 121 1030 156 1052 c 1,80,81
 193 1068 193 1068 223.5 1075 c 128,-1,82
 254 1082 254 1082 283 1082 c 0,83,84
 344 1082 344 1082 391 1048 c 1,85,-1
 391 1441 l 1,86,-1
 391 1803 l 1,87,-1
 391 2165 l 1,88,-1
 428 2165 l 1,89,-1
 428 1803 l 1,90,-1
 428 1441 l 1,91,-1
 428 955 l 1,92,-1
 428 593 l 1,93,-1
 428 231 l 2,20,21
135 563 m 0,94,95
 108 544 108 544 78 506 c 0,96,97
 41 459 41 459 41 436 c 1,98,99
 47 412 47 412 80 399 c 1,100,101
 119 399 119 399 158 420 c 1,102,103
 190 430 190 430 258 479 c 0,104,105
 287 500 287 500 293 504 c 0,106,107
 306 515 306 515 334 549 c 0,108,109
 381 602 381 602 381 633 c 0,110,111
 381 657 381 657 350 668 c 1,112,113
 285 668 285 668 135 563 c 0,94,95
135 925 m 0,114,115
 108 906 108 906 78 868 c 0,116,117
 41 821 41 821 41 798 c 1,118,119
 47 774 47 774 80 761 c 1,120,121
 119 761 119 761 158 782 c 1,122,123
 190 792 190 792 258 841 c 0,124,125
 287 862 287 862 293 866 c 0,126,127
 306 877 306 877 334 911 c 0,128,129
 381 964 381 964 381 995 c 0,130,131
 381 1019 381 1019 350 1030 c 1,132,133
 285 1030 285 1030 135 925 c 0,114,115
EndSplineSet
Validated: 1
EndChar

StartChar: numbersign
Encoding: 35 35 3
Width: 512
VWidth: 2047
Flags: W
LayerCount: 2
Fore
SplineSet
74 291 m 1,0,-1
 0 279 l 1,1,-1
 0 389 l 1,2,-1
 74 406 l 1,3,-1
 74 578 l 1,4,-1
 135 578 l 1,5,-1
 135 418 l 1,6,-1
 246 434 l 1,7,-1
 246 655 l 1,8,-1
 295 655 l 1,9,-1
 295 442 l 1,10,-1
 373 455 l 1,11,-1
 373 340 l 1,12,-1
 295 328 l 1,13,-1
 295 164 l 1,14,-1
 373 184 l 1,15,-1
 373 61 l 1,16,-1
 295 49 l 1,17,-1
 295 -123 l 1,18,-1
 246 -123 l 1,19,-1
 246 41 l 1,20,-1
 135 25 l 1,21,-1
 135 -197 l 1,22,-1
 74 -197 l 1,23,-1
 74 12 l 1,24,-1
 0 0 l 1,25,-1
 0 115 l 1,26,-1
 74 131 l 1,27,-1
 74 291 l 1,0,-1
246 315 m 1,28,-1
 135 303 l 1,29,-1
 135 139 l 1,30,-1
 246 160 l 1,31,-1
 246 315 l 1,28,-1
EndSplineSet
Validated: 1
EndChar

StartChar: dollar
Encoding: 36 36 4
Width: 512
VWidth: 2047
Flags: W
LayerCount: 2
Fore
SplineSet
0 860 m 1,0,-1
 45 860 l 1,1,-1
 45 360 l 1,2,3
 109 406 109 406 184 406 c 0,4,5
 236 406 236 406 276.5 377 c 128,-1,6
 317 348 317 348 317 299 c 0,7,8
 317 264 317 264 287 233 c 0,9,10
 274 215 274 215 251.5 196.5 c 128,-1,11
 229 178 229 178 199 156 c 2,12,-1
 92 78 l 2,13,14
 63 59 63 59 40.5 38.5 c 128,-1,15
 18 18 18 18 0 0 c 1,16,-1
 0 860 l 1,0,-1
45 86 m 1,17,-1
 106 147 l 2,18,19
 123 164 123 164 136.5 176 c 128,-1,20
 150 188 150 188 158 201 c 0,21,22
 199 248 199 248 199 295 c 0,23,24
 199 311 199 311 192.5 322.5 c 128,-1,25
 186 334 186 334 178 344 c 0,26,27
 170 350 170 350 160 355 c 128,-1,28
 150 360 150 360 133 360 c 0,29,30
 76 360 76 360 45 299 c 1,31,-1
 45 86 l 1,17,-1
EndSplineSet
Validated: 1
EndChar

StartChar: percent
Encoding: 37 37 5
Width: 512
VWidth: 2047
Flags: W
LayerCount: 2
Fore
SplineSet
41 106 m 1,0,-1
 205 143 l 1,1,-1
 205 287 l 1,2,-1
 41 254 l 1,3,-1
 41 106 l 1,0,-1
0 598 m 1,4,-1
 41 598 l 1,5,-1
 41 360 l 1,6,-1
 250 406 l 1,7,-1
 250 -197 l 1,8,-1
 205 -197 l 1,9,-1
 205 33 l 1,10,-1
 0 -4 l 1,11,-1
 0 598 l 1,4,-1
EndSplineSet
Validated: 1
EndChar

StartChar: ampersand
Encoding: 38 38 6
Width: 1024
VWidth: 2047
Flags: W
LayerCount: 2
Fore
SplineSet
268 1036 m 2,0,1
 266 1034 266 1034 248.5 1017.5 c 128,-1,2
 231 1001 231 1001 203.5 948 c 128,-1,3
 176 895 176 895 156 805 c 1,4,-1
 156 616 l 1,5,6
 166 557 166 557 177 519 c 128,-1,7
 188 481 188 481 201.5 457.5 c 128,-1,8
 215 434 215 434 231.5 422 c 128,-1,9
 248 410 248 410 268 401 c 1,10,-1
 268 1036 l 2,0,1
362 1384 m 1,11,-1
 362 1118 l 1,12,13
 383 1118 383 1118 418 1110 c 128,-1,14
 453 1102 453 1102 489 1087 c 0,15,16
 555 1067 555 1067 604 1006 c 0,17,18
 645 952 645 952 645 877 c 0,19,20
 645 803 645 803 578 764 c 1,21,-1
 512 748 l 1,22,23
 487 752 487 752 474 759 c 128,-1,24
 461 766 461 766 446 788 c 0,25,26
 436 803 436 803 432 816 c 128,-1,27
 428 829 428 829 424 852 c 0,28,29
 422 874 422 874 430 898 c 128,-1,30
 438 922 438 922 449 938 c 0,31,32
 457 954 457 954 471 968.5 c 128,-1,33
 485 983 485 983 506 987 c 1,34,35
 537 987 537 987 537 1004 c 0,36,37
 537 1014 537 1014 514 1032 c 1,38,-1
 457 1057 l 2,39,40
 449 1059 449 1059 432.5 1062 c 128,-1,41
 416 1065 416 1065 399 1065 c 0,42,43
 385 1065 385 1065 372.5 1064 c 128,-1,44
 360 1063 360 1063 362 1061 c 2,45,-1
 362 381 l 1,46,47
 393 385 393 385 414.5 389 c 128,-1,48
 436 393 436 393 457.5 400.5 c 128,-1,49
 479 408 479 408 492 420 c 0,50,51
 516 440 516 440 537.5 464.5 c 128,-1,52
 559 489 559 489 573 520 c 0,53,54
 612 590 612 590 612 637 c 1,55,-1
 651 637 l 1,56,57
 633 479 633 479 549 401 c 0,58,59
 504 360 504 360 455 342 c 128,-1,60
 406 324 406 324 358 319 c 1,61,-1
 358 49 l 1,62,-1
 268 51 l 1,63,-1
 268 328 l 1,64,65
 229 340 229 340 183 370.5 c 128,-1,66
 137 401 137 401 92 451 c 0,67,68
 49 498 49 498 24.5 567.5 c 128,-1,69
 0 637 0 637 0 719 c 0,70,71
 0 858 0 858 78 967 c 0,72,73
 119 1020 119 1020 169 1056 c 128,-1,74
 219 1092 219 1092 268 1106 c 1,75,-1
 268 1384 l 1,76,-1
 362 1384 l 1,11,-1
EndSplineSet
Validated: 1
EndChar

StartChar: quotesingle
Encoding: 39 39 7
Width: 1024
VWidth: 2047
Flags: W
LayerCount: 2
Fore
SplineSet
0 739 m 0,0,1
 0 834 0 834 53 924 c 1,2,3
 98 1010 98 1010 188 1071 c 0,4,5
 276 1128 276 1128 371 1128 c 2,6,-1
 408 1128 l 2,7,8
 412 1126 412 1126 421 1125 c 128,-1,9
 430 1124 430 1124 444 1120 c 0,10,11
 473 1110 473 1110 483.5 1106 c 128,-1,12
 494 1102 494 1102 510 1096 c 0,13,14
 543 1079 543 1079 571.5 1059.5 c 128,-1,15
 600 1040 600 1040 623 1012 c 0,16,17
 670 958 670 958 670 889 c 0,18,19
 670 829 670 829 631 784 c 1,20,21
 584 743 584 743 528 743 c 0,22,23
 426 743 426 743 406 856 c 1,24,25
 406 907 406 907 438 940 c 1,26,27
 469 979 469 979 516 989 c 1,28,-1
 532 991 l 1,29,-1
 549 997 l 1,30,-1
 555 1010 l 1,31,32
 547 1042 547 1042 498 1059 c 1,33,34
 459 1079 459 1079 410 1079 c 0,35,36
 360 1079 360 1079 319 1051 c 0,37,38
 301 1042 301 1042 279 1020 c 0,39,40
 262 1004 262 1004 248 983 c 0,41,42
 207 905 207 905 207 735 c 0,43,44
 207 549 207 549 221 514 c 1,45,46
 258 362 258 362 401 362 c 0,47,48
 512 362 512 362 584 485 c 1,49,50
 618 555 618 555 631 631 c 1,51,-1
 678 631 l 1,52,53
 672 559 672 559 647.5 501.5 c 128,-1,54
 623 444 623 444 582 397 c 0,55,56
 492 305 492 305 352 305 c 0,57,58
 244 305 244 305 166 371 c 1,59,60
 84 432 84 432 43 535 c 0,61,62
 25 582 25 582 12.5 637 c 128,-1,63
 0 692 0 692 0 739 c 0,0,1
EndSplineSet
Validated: 1
EndChar

StartChar: parenleft
Encoding: 40 40 8
Width: 1024
VWidth: 2047
Flags: W
LayerCount: 2
Fore
SplineSet
453 498 m 1,0,1
 399 481 399 481 365 440 c 0,2,3
 330 398 330 398 323 350 c 128,-1,4
 316 302 316 302 336 254 c 128,-1,5
 356 206 356 206 411 177 c 1,6,7
 424 177 424 177 427 166 c 0,8,9
 430 157 430 157 417 156 c 0,10,11
 379 154 379 154 324 200 c 0,12,13
 250 262 250 262 242 359 c 0,14,15
 238 407 238 407 252 453 c 128,-1,16
 266 499 266 499 289 536 c 0,17,18
 289 536 289 536 358 605 c 0,19,20
 364 612 364 612 370 615 c 0,21,22
 381 622 381 622 391 629 c 0,23,24
 400 635 400 635 420 649 c 1,25,-1
 380 841 l 1,26,27
 322 793 322 793 275 744 c 0,28,29
 220 687 220 687 181 631 c 0,30,31
 136 567 136 567 113 505 c 0,32,33
 88 438 88 438 88 365 c 0,34,35
 88 299 88 299 117 237 c 0,36,37
 144 179 144 179 193 133 c 128,-1,38
 242 87 242 87 302 63 c 0,39,40
 364 38 364 38 428 38 c 0,41,42
 430 38 430 38 448 40 c 0,43,44
 477 43 477 43 486 45 c 0,45,46
 506 49 506 49 523 53 c 0,47,48
 539 56 539 56 539 60 c 2,49,-1
 533 91 l 2,50,51
 491 303 491 303 453 498 c 1,0,1
491 502 m 1,52,-1
 579 73 l 1,53,54
 656 103 656 103 683 174 c 0,55,56
 710 244 710 244 695 317 c 0,57,58
 681 390 681 390 627 446 c 128,-1,59
 573 502 573 502 491 502 c 1,52,-1
377 1080 m 1,60,61
 411 1097 411 1097 440 1132 c 0,62,63
 463 1160 463 1160 492 1206 c 0,64,65
 520 1249 520 1249 535 1286 c 128,-1,66
 550 1323 550 1323 563 1361 c 0,67,68
 573 1392 573 1392 579 1441 c 0,69,70
 584 1484 584 1484 565 1515 c 0,71,72
 548 1544 548 1544 531 1547 c 0,73,74
 512 1551 512 1551 489 1543 c 128,-1,75
 466 1535 466 1535 449 1519 c 128,-1,76
 432 1503 432 1503 422 1489 c 0,77,78
 406 1467 406 1467 380 1395 c 0,79,80
 362 1345 362 1345 356 1288 c 0,81,82
 350 1247 350 1247 354.16015625 1181.14013672 c 0,83,84
 358.09806412 1118.79871049 358.09806412 1118.79871049 377 1080 c 1,60,61
345 1046.51953125 m 513,85,86
 326.639648438 1117.79980469 326.639648438 1117.79980469 312.599609375 1186.37988281 c 640,-1,87
 298.559570312 1254.95996094 298.559570312 1254.95996094 298.559570312 1327.3203125 c 512,88,89
 298.559570312 1380.24023438 298.559570312 1380.24023438 306.120117188 1443.41992188 c 640,-1,90
 313.6796875 1506.59960938 313.6796875 1506.59960938 333.66015625 1566.54003906 c 640,-1,91
 353.639648438 1626.48046875 353.639648438 1626.48046875 388.740234375 1674 c 640,-1,92
 423.83984375 1721.51953125 423.83984375 1721.51953125 482.16015625 1743.12011719 c 512,93,94
 487.559570312 1745.28027344 487.559570312 1745.28027344 492.959960938 1745.28027344 c 512,95,96
 500.51953125 1745.28027344 500.51953125 1745.28027344 510.780273438 1736.63964844 c 640,-1,97
 521.040039062 1728 521.040039062 1728 532.379882812 1711.25976562 c 640,-1,98
 543.719726562 1694.51953125 543.719726562 1694.51953125 552.360351562 1676.70019531 c 640,-1,99
 561 1658.87988281 561 1658.87988281 565.3203125 1652.40039062 c 512,100,101
 594.48046875 1597.3203125 594.48046875 1597.3203125 607.98046875 1535.21972656 c 640,-1,102
 621.48046875 1473.12011719 621.48046875 1473.12011719 623.639648438 1411.55957031 c 512,103,104
 627.959960938 1318.6796875 627.959960938 1318.6796875 613.379882812 1227.95996094 c 640,-1,105
 598.799804688 1137.24023438 598.799804688 1137.24023438 554.51953125 1050.83984375 c 512,106,107
 539.400390625 1024.91992188 539.400390625 1024.91992188 523.740234375 998.459960938 c 640,-1,108
 508.080078125 972 508.080078125 972 486.48046875 947.16015625 c 512,109,110
 482.16015625 942.83984375 482.16015625 942.83984375 470.8203125 931.5 c 640,-1,111
 459.48046875 920.16015625 459.48046875 920.16015625 447.599609375 908.280273438 c 640,-1,112
 435.719726562 896.400390625 435.719726562 896.400390625 426.540039062 886.139648438 c 640,-1,113
 417.360351562 875.879882812 417.360351562 875.879882812 417.360351562 873.719726562 c 514,114,-1
 461.639648438 657.719726562 l 514,115,116
 461.639648438 659.879882812 461.639648438 659.879882812 483.780273438 657.719726562 c 640,-1,117
 505.919921875 655.559570312 505.919921875 655.559570312 532.379882812 650.700195312 c 640,-1,118
 558.83984375 645.83984375 558.83984375 645.83984375 582.059570312 641.51953125 c 640,-1,119
 605.280273438 637.200195312 605.280273438 637.200195312 609.599609375 635.040039062 c 512,120,121
 665.759765625 609.120117188 665.759765625 609.120117188 706.259765625 563.759765625 c 640,-1,122
 746.759765625 518.400390625 746.759765625 518.400390625 771.059570312 461.700195312 c 640,-1,123
 795.360351562 405 795.360351562 405 795.360351562 346.6796875 c 640,-1,124
 795.360351562 288.360351562 795.360351562 288.360351562 778.080078125 227.879882812 c 513,125,126
 733.799804688 113.400390625 733.799804688 113.400390625 636.599609375 58.3203125 c 512,127,128
 625.799804688 51.83984375 625.799804688 51.83984375 605.8203125 43.740234375 c 640,-1,129
 585.83984375 35.6396484375 585.83984375 35.6396484375 590.16015625 18.3603515625 c 512,130,131
 616.080078125 -99.3603515625 616.080078125 -99.3603515625 625.259765625 -143.639648438 c 640,-1,132
 634.440429688 -187.919921875 634.440429688 -187.919921875 638.759765625 -258.120117188 c 512,133,134
 643.080078125 -325.080078125 643.080078125 -325.080078125 615.540039062 -379.080078125 c 640,-1,135
 588 -433.080078125 588 -433.080078125 541.559570312 -467.099609375 c 640,-1,136
 495.120117188 -501.120117188 495.120117188 -501.120117188 456.780273438 -507.059570312 c 640,-1,137
 418.440429688 -513 418.440429688 -513 404.400390625 -513 c 512,138,139
 355.799804688 -513 355.799804688 -513 309.360351562 -494.639648438 c 512,140,141
 252.120117188 -473.040039062 252.120117188 -473.040039062 213.240234375 -428.759765625 c 640,-1,142
 174.360351562 -384.48046875 174.360351562 -384.48046875 174.360351562 -320.759765625 c 512,143,144
 174.360351562 -280.799804688 174.360351562 -280.799804688 197.580078125 -238.6796875 c 640,-1,145
 220.799804688 -196.559570312 220.799804688 -196.559570312 258.599609375 -178.200195312 c 512,146,147
 300.719726562 -156.599609375 300.719726562 -156.599609375 334.740234375 -166.3203125 c 640,-1,148
 368.759765625 -176.040039062 368.759765625 -176.040039062 390.900390625 -203.040039062 c 640,-1,149
 413.040039062 -230.040039062 413.040039062 -230.040039062 421.6796875 -268.379882812 c 640,-1,150
 430.3203125 -306.719726562 430.3203125 -306.719726562 420.599609375 -340.200195312 c 640,-1,151
 410.879882812 -373.6796875 410.879882812 -373.6796875 381.1796875 -396.900390625 c 640,-1,152
 351.48046875 -420.120117188 351.48046875 -420.120117188 298.559570312 -417.959960938 c 513,153,154
 320.16015625 -456.83984375 320.16015625 -456.83984375 359.040039062 -467.099609375 c 640,-1,155
 397.919921875 -477.360351562 397.919921875 -477.360351562 438.959960938 -468.719726562 c 640,-1,156
 480 -460.080078125 480 -460.080078125 516.1796875 -436.860351562 c 640,-1,157
 552.360351562 -413.639648438 552.360351562 -413.639648438 572.879882812 -386.639648438 c 512,158,159
 585.83984375 -367.200195312 585.83984375 -367.200195312 592.3203125 -335.879882812 c 640,-1,160
 598.799804688 -304.559570312 598.799804688 -304.559570312 599.879882812 -270.540039062 c 640,-1,161
 600.959960938 -236.51953125 600.959960938 -236.51953125 597.719726562 -217.620117188 c 640,-1,162
 594.48046875 -198.719726562 594.48046875 -198.719726562 586.919921875 -158.759765625 c 512,163,164
 554.51953125 -28.080078125 554.51953125 -28.080078125 545.879882812 5.400390625 c 512,165,166
 541.559570312 16.2001953125 541.559570312 16.2001953125 522.66015625 12.419921875 c 640,-1,167
 503.759765625 8.6396484375 503.759765625 8.6396484375 490.799804688 5.400390625 c 512,168,169
 397.919921875 -6.48046875 397.919921875 -6.48046875 335.280273438 16.2001953125 c 513,170,171
 238.080078125 42.1201171875 238.080078125 42.1201171875 164.099609375 108.540039062 c 640,-1,172
 90.1201171875 174.959960938 90.1201171875 174.959960938 45.2998046875 269.459960938 c 640,-1,173
 0.48046875 363.959960938 0.48046875 363.959960938 0.48046875 413.099609375 c 640,-1,174
 0.48046875 462.240234375 0.48046875 462.240234375 0.48046875 475.200195312 c 512,175,176
 0.48046875 562.6796875 0.48046875 562.6796875 30.7197265625 639.360351562 c 513,177,178
 87.9599609375 759.240234375 87.9599609375 759.240234375 166.259765625 859.6796875 c 640,-1,179
 244.559570312 960.120117188 244.559570312 960.120117188 345 1046.51953125 c 513,85,86
EndSplineSet
Validated: 33
EndChar

StartChar: parenright
Encoding: 41 41 9
Width: 1024
VWidth: 2047
Flags: W
LayerCount: 2
Fore
SplineSet
209 223 m 2,0,1
 236 244 236 244 248 256 c 0,2,3
 254 262 254 262 262 271.5 c 128,-1,4
 270 281 270 281 281 293 c 2,5,-1
 352 379 l 2,6,7
 387 426 387 426 425 476 c 128,-1,8
 463 526 463 526 492 582 c 0,9,10
 512 623 512 623 526.5 655.5 c 128,-1,11
 541 688 541 688 561 750 c 1,12,-1
 582 860 l 2,13,14
 586 889 586 889 589 914.5 c 128,-1,15
 592 940 592 940 592 963 c 2,16,-1
 586 1057 l 2,17,18
 584 1083 584 1083 581 1105.5 c 128,-1,19
 578 1128 578 1128 569 1145 c 1,20,21
 559 1188 559 1188 534.5 1241 c 128,-1,22
 510 1294 510 1294 485 1325 c 0,23,24
 434 1382 434 1382 358 1382 c 0,25,26
 285 1382 285 1382 219 1348 c 1,27,28
 156 1309 156 1309 125 1221 c 1,29,-1
 119 1200 l 1,30,31
 119 1182 119 1182 131 1174 c 2,32,-1
 160 1161 l 1,33,-1
 186 1167 l 1,34,-1
 227 1176 l 1,35,36
 276 1176 276 1176 313 1133 c 0,37,38
 350 1092 350 1092 350 1032 c 0,39,40
 350 995 350 995 332 956 c 0,41,42
 311 915 311 915 283 893 c 1,43,44
 242 870 242 870 207 870 c 0,45,46
 135 870 135 870 86 926 c 0,47,48
 35 983 35 983 35 1069 c 256,49,50
 35 1155 35 1155 67.5 1222.5 c 128,-1,51
 100 1290 100 1290 152.5 1337 c 128,-1,52
 205 1384 205 1384 271.5 1409 c 128,-1,53
 338 1434 338 1434 403 1434 c 0,54,55
 496 1434 496 1434 582 1372 c 0,56,57
 668 1309 668 1309 718 1202.5 c 128,-1,58
 768 1096 768 1096 768 979 c 0,59,60
 768 758 768 758 655 578 c 0,61,62
 639 553 639 553 624.5 531.5 c 128,-1,63
 610 510 610 510 596 492 c 0,64,65
 582 469 582 469 564.5 447.5 c 128,-1,66
 547 426 547 426 528 403 c 0,67,68
 496 367 496 367 457 329 c 128,-1,69
 418 291 418 291 373 252 c 0,70,71
 348 233 348 233 313.5 206.5 c 128,-1,72
 279 180 279 180 225 145 c 2,73,-1
 8 0 l 1,74,-1
 0 39 l 1,75,-1
 209 223 l 2,0,1
825 1202 m 0,76,77
 825 1241 825 1241 849.5 1269.5 c 128,-1,78
 874 1298 874 1298 905 1298 c 0,79,80
 930 1298 930 1298 958 1270 c 1,81,82
 981 1241 981 1241 981 1200 c 256,83,84
 981 1159 981 1159 958 1130 c 1,85,86
 930 1102 930 1102 903 1102 c 0,87,88
 872 1102 872 1102 848 1133 c 0,89,90
 825 1167 825 1167 825 1202 c 0,76,77
825 807 m 0,91,92
 825 842 825 842 848 877 c 0,93,94
 872 907 872 907 905 907 c 0,95,96
 930 907 930 907 956 874 c 0,97,98
 967 860 967 860 974 844.5 c 128,-1,99
 981 829 981 829 981 807 c 0,100,101
 981 762 981 762 960.5 735.5 c 128,-1,102
 940 709 940 709 905 709 c 0,103,104
 872 709 872 709 848 735 c 0,105,106
 825 764 825 764 825 807 c 0,91,92
EndSplineSet
Validated: 1
EndChar

StartChar: asterisk
Encoding: 42 42 10
Width: 512
VWidth: 2047
Flags: W
LayerCount: 2
Fore
SplineSet
180 365 m 1,0,-1
 180 373 l 1,1,2
 152 354 152 354 142.5 348 c 128,-1,3
 133 342 133 342 123 336 c 0,4,5
 117 330 117 330 110.5 322.5 c 128,-1,6
 104 315 104 315 82 291 c 0,7,8
 66 274 66 274 57.5 268 c 128,-1,9
 49 262 49 262 37 262 c 0,10,11
 0 262 0 262 0 299 c 0,12,13
 0 322 0 322 14.5 332 c 128,-1,14
 29 342 29 342 66 348 c 0,15,16
 100 354 100 354 120.5 362.5 c 128,-1,17
 141 371 141 371 172 389 c 1,18,-1
 160 397 l 2,19,20
 147 406 147 406 146 404.5 c 128,-1,21
 145 403 145 403 131 414 c 1,22,23
 119 418 119 418 103.5 421 c 128,-1,24
 88 424 88 424 70 430 c 0,25,26
 33 436 33 436 16.5 446.5 c 128,-1,27
 0 457 0 457 0 479 c 0,28,29
 0 516 0 516 33 516 c 0,30,31
 45 516 45 516 56.5 509 c 128,-1,32
 68 502 68 502 86 479 c 0,33,34
 111 451 111 451 130.5 437.5 c 128,-1,35
 150 424 150 424 180 406 c 1,36,-1
 180 418 l 2,37,38
 180 440 180 440 175 463.5 c 128,-1,39
 170 487 170 487 164 516 c 1,40,41
 152 547 152 547 152 569 c 0,42,43
 152 602 152 602 188 602 c 0,44,45
 225 602 225 602 225 565 c 0,46,47
 225 555 225 555 224 543.5 c 128,-1,48
 223 532 223 532 217 516 c 0,49,50
 197 477 197 477 197 430 c 2,51,-1
 197 401 l 1,52,-1
 205 406 l 2,53,54
 213 410 213 410 217 413 c 128,-1,55
 221 416 221 416 246 436 c 0,56,57
 246 438 246 438 258 451 c 2,58,-1
 283 475 l 1,59,60
 317 516 317 516 340 516 c 0,61,62
 377 516 377 516 377 475 c 0,63,64
 377 453 377 453 365.5 445.5 c 128,-1,65
 354 438 354 438 324 434 c 0,66,67
 289 428 289 428 267.5 420 c 128,-1,68
 246 412 246 412 205 389 c 1,69,-1
 217 381 l 2,70,71
 256 354 256 354 315 348 c 0,72,73
 350 342 350 342 363.5 334 c 128,-1,74
 377 326 377 326 377 303 c 0,75,76
 377 262 377 262 340 262 c 0,77,78
 311 262 311 262 279 307 c 0,79,80
 256 336 256 336 239.5 349 c 128,-1,81
 223 362 223 362 205 369 c 2,82,-1
 197 373 l 1,83,-1
 197 365 l 2,84,85
 197 305 197 305 221 250 c 0,86,87
 229 236 229 236 229 217 c 0,88,89
 229 199 229 199 217 185.5 c 128,-1,90
 205 172 205 172 188 172 c 0,91,92
 172 172 172 172 162 184.5 c 128,-1,93
 152 197 152 197 152 213 c 0,94,95
 152 227 152 227 164 262 c 0,96,97
 174 287 174 287 177 305.5 c 128,-1,98
 180 324 180 324 180 340 c 2,99,-1
 180 365 l 1,0,-1
EndSplineSet
Validated: 1
EndChar

StartChar: plus
Encoding: 43 43 11
Width: 512
VWidth: 2047
Flags: W
LayerCount: 2
Fore
SplineSet
172 348 m 1,0,-1
 172 522 l 1,1,-1
 254 522 l 1,2,-1
 254 348 l 1,3,-1
 428 348 l 1,4,-1
 428 266 l 1,5,-1
 254 266 l 1,6,-1
 254 92 l 1,7,-1
 172 92 l 1,8,-1
 172 266 l 1,9,-1
 0 266 l 1,10,-1
 0 348 l 1,11,-1
 172 348 l 1,0,-1
EndSplineSet
Validated: 1
EndChar

StartChar: comma
Encoding: 44 44 12
Width: 254
VWidth: 2047
Flags: W
LayerCount: 2
Fore
SplineSet
254.001953125 904 m 256,0,1
 254.001953125 873 254.001953125 873 232.501953125 850.5 c 128,-1,2
 211.001953125 828 211.001953125 828 181.001953125 828 c 0,3,4
 150.001953125 828 150.001953125 828 127.001953125 850 c 0,5,6
 104.001953125 873 104.001953125 873 105.001953125 904 c 256,7,8
 105.001953125 935 105.001953125 935 127.501953125 956.5 c 128,-1,9
 150.001953125 978 150.001953125 978 181.001953125 978 c 0,10,11
 211.001953125 978 211.001953125 978 232.501953125 956.5 c 128,-1,12
 254.001953125 935 254.001953125 935 254.001953125 904 c 256,0,1
EndSplineSet
EndChar

StartChar: hyphen
Encoding: 45 45 13
Width: 512
VWidth: 2047
Flags: W
LayerCount: 2
Fore
SplineSet
0 299 m 1,0,-1
 260 299 l 1,1,-1
 260 256 l 1,2,-1
 0 256 l 1,3,-1
 0 299 l 1,0,-1
EndSplineSet
Validated: 1
EndChar

StartChar: period
Encoding: 46 46 14
Width: 210
VWidth: 2047
Flags: W
LayerCount: 2
Fore
SplineSet
210 256 m 260,0,1
 210 225 210 225 188.5 202.5 c 132,-1,2
 167 180 167 180 137 180 c 4,3,4
 106 180 106 180 83 202 c 4,5,6
 60 225 60 225 61 256 c 260,7,8
 61 287 61 287 83.5 308.5 c 132,-1,9
 106 330 106 330 137 330 c 4,10,11
 167 330 167 330 188.5 308.5 c 132,-1,12
 210 287 210 287 210 256 c 260,0,1
EndSplineSet
EndChar

StartChar: slash
Encoding: 47 47 15
Width: 990
VWidth: 0
Flags: W
LayerCount: 2
Fore
SplineSet
502.961914062 1528.60058594 m 256,0,1
 469.53515625 1528.60058594 469.53515625 1528.60058594 444.641601562 1507.45703125 c 128,-1,2
 419.748046875 1486.31445312 419.748046875 1486.31445312 419.748046875 1453.13671875 c 256,3,4
 419.748046875 1419.95800781 419.748046875 1419.95800781 443.930664062 1396.53808594 c 128,-1,5
 468.112304688 1373.11816406 468.112304688 1373.11816406 502.961914062 1373.11816406 c 0,6,7
 536.390625 1373.11816406 536.390625 1373.11816406 561.282226562 1396.53808594 c 128,-1,8
 586.17578125 1419.95800781 586.17578125 1419.95800781 586.17578125 1453.13671875 c 256,9,10
 586.17578125 1486.31445312 586.17578125 1486.31445312 561.282226562 1507.45703125 c 128,-1,11
 536.390625 1528.60058594 536.390625 1528.60058594 502.961914062 1528.60058594 c 256,0,1
490.762695312 1179 m 1,12,13
 493.592773438 1140.65039062 493.592773438 1140.65039062 499.959960938 1118.52539062 c 0,14,15
 507.7421875 1093.45019531 507.7421875 1093.45019531 514.110351562 1072.0625 c 0,16,17
 528.259765625 1024.86230469 528.259765625 1024.86230469 545.947265625 1002.73730469 c 2,18,-1
 570.709960938 971.025390625 l 1,19,-1
 605.377929688 927.512695312 l 1,20,-1
 669.052734375 850.075195312 l 1,21,22
 741.217773438 751.987304688 741.217773438 751.987304688 741.217773438 645.049804688 c 0,23,24
 741.217773438 619.237304688 741.217773438 619.237304688 736.97265625 588.262695312 c 0,25,26
 732.01953125 555.075195312 732.01953125 555.075195312 719.9921875 524.099609375 c 0,27,28
 705.134765625 487.224609375 705.134765625 487.224609375 703.012695312 480.587890625 c 0,29,30
 696.64453125 463.625 696.64453125 463.625 684.6171875 442.237304688 c 1,31,-1
 663.392578125 440.762695312 l 1,32,-1
 688.155273438 507.137695312 l 2,33,34
 692.400390625 521.150390625 692.400390625 521.150390625 696.64453125 535.162109375 c 0,35,36
 702.3046875 552.862304688 702.3046875 552.862304688 703.719726562 564.662109375 c 2,37,-1
 707.96484375 605.962890625 l 1,38,-1
 709.379882812 623.662109375 l 1,39,-1
 709.379882812 653.900390625 l 1,40,-1
 703.719726562 678.237304688 l 1,41,-1
 692.400390625 714.375 l 2,42,43
 677.54296875 760.837890625 677.54296875 760.837890625 642.875 799.1875 c 1,44,45
 611.745117188 840.487304688 611.745117188 840.487304688 573.540039062 861.137695312 c 0,46,47
 550.192382812 873.674804688 550.192382812 873.674804688 530.3828125 880.3125 c 0,48,49
 507.7421875 887.6875 507.7421875 887.6875 490.762695312 888.424804688 c 1,50,-1
 490.762695312 288.099609375 l 2,51,52
 490.762695312 241.637695312 490.762695312 241.637695312 458.924804688 199.599609375 c 1,53,54
 440.530273438 167.887695312 440.530273438 167.887695312 386.759765625 140.599609375 c 0,55,56
 339.357421875 116.262695312 339.357421875 116.262695312 291.955078125 116.262695312 c 0,57,58
 247.3828125 116.262695312 247.3828125 116.262695312 219.790039062 140.599609375 c 1,59,60
 189.3671875 162.724609375 189.3671875 162.724609375 189.3671875 208.450195312 c 0,61,62
 189.3671875 231.3125 189.3671875 231.3125 195.735351562 253.068359375 c 128,-1,63
 202.102539062 274.825195312 202.102539062 274.825195312 218.375 294.737304688 c 0,64,65
 232.525390625 312.4375 232.525390625 312.4375 250.919921875 328.662109375 c 0,66,67
 270.73046875 347.099609375 270.73046875 347.099609375 293.370117188 358.162109375 c 0,68,69
 339.357421875 380.287109375 339.357421875 380.287109375 380.392578125 380.287109375 c 0,70,71
 442.65234375 380.287109375 442.65234375 380.287109375 466 356.6875 c 1,72,-1
 466 897.275390625 l 1,73,-1
 466 1179 l 1,74,-1
 490.762695312 1179 l 1,12,13
222 1438.89648438 m 1,75,-1
 397 1567 l 1,76,-1
 611 1567 l 1,77,-1
 781 1437 l 1,78,-1
 781 1257 l 1,79,-1
 222 1257 l 1,80,-1
 222 1438.89648438 l 1,75,-1
781 1440.64256002 m 1,81,-1
 990 1440.56054688 l 5,82,-1
 990 0 l 5,83,-1
 0 0 l 1,84,-1
 0 1441 l 1,85,-1
 222 1440.89656666 l 1,86,-1
 222 1391.77889306 l 1,87,-1
 47.080078125 1391.98535156 l 1,88,-1
 47.080078125 45.9296875 l 1,89,-1
 941 48 l 1,90,-1
 941 1393.0703125 l 1,91,-1
 781 1391.13846988 l 1,92,-1
 781 1440.64256002 l 1,81,-1
EndSplineSet
EndChar

StartChar: zero
Encoding: 48 48 16
Width: 571
VWidth: 2130
Flags: W
LayerCount: 2
Fore
SplineSet
265 710 m 0,0,1
 394 710 394 710 467 596 c 0,2,3
 531 496 531 496 531 356 c 4,4,5
 531 215 531 215 468 117 c 0,6,7
 395 2 395 2 265 2 c 256,8,9
 136 2 136 2 62 116 c 0,10,11
 -2 215 -2 215 -2 356 c 128,-1,12
 -2 497 -2 497 62 596 c 0,13,14
 135 710 135 710 265 710 c 0,0,1
149 352 m 0,15,16
 149 272 149 272 157 215 c 0,17,18
 168 137 168 137 192 93 c 0,19,20
 221 40 221 40 265 41 c 0,21,22
 331 41 331 41 361 149 c 0,23,24
 384 230 384 230 384 352 c 0,25,26
 384 433 384 433 376 493 c 0,27,28
 365 574 365 574 341 617 c 0,29,30
 312 671 312 671 265 671 c 0,31,32
 217 671 217 671 189 618 c 0,33,34
 166 574 166 574 157 493 c 0,35,36
 149 433 149 433 149 352 c 0,15,16
EndSplineSet
EndChar

StartChar: one
Encoding: 49 49 17
Width: 404
VWidth: 2130
Flags: W
LayerCount: 2
Fore
SplineSet
121 141 m 1,0,-1
 121 586 l 1,1,-1
 19 416 l 1,2,-1
 1 428 l 1,3,-1
 121 713 l 1,4,-1
 284 713 l 1,5,-1
 284 143 l 1,6,-1
 284 69 l 2,7,8
 284 52 284 52 309.5 41 c 128,-1,9
 335 30 335 30 364 30 c 1,10,-1
 364 0 l 5,11,-1
 43 0 l 1,12,-1
 43 30 l 1,13,14
 62 30 62 30 85 36 c 0,15,16
 121 47 121 47 121 67 c 2,17,-1
 121 141 l 1,0,-1
EndSplineSet
EndChar

StartChar: two
Encoding: 50 50 18
Width: 545
VWidth: 2130
Flags: W
LayerCount: 2
Fore
SplineSet
106 622 m 0,0,1
 145 622 145 622 164 610 c 0,2,3
 196 590 196 590 196 538 c 0,4,5
 196 501 196 501 169.5 473.5 c 128,-1,6
 143 446 143 446 106 446 c 0,7,8
 68 446 68 446 41.5 473 c 128,-1,9
 15 500 15 500 15 538 c 0,10,11
 15 614 15 614 76.5 668 c 128,-1,12
 138 722 138 722 219 722 c 0,13,14
 319 722 319 722 392 675 c 0,15,16
 476 621 476 621 476 529 c 0,17,18
 476 470 476 470 427 421 c 0,19,20
 395 390 395 390 321 348 c 0,21,22
 238 301 238 301 217 285 c 0,23,24
 166 245 166 245 133 198 c 0,25,26
 117 174 117 174 102 150 c 1,27,28
 136 170 136 170 166.5 180 c 128,-1,29
 197 190 197 190 227 190 c 0,30,31
 267 190 267 190 308 169 c 0,32,33
 322 162 322 162 378 116 c 0,34,35
 397 100 397 100 411 100 c 0,36,37
 457 100 457 100 476 134 c 0,38,39
 487 155 487 155 487 185 c 0,40,41
 487 189 487 189 487 190 c 128,-1,42
 487 191 487 191 487 192 c 2,43,-1
 505 192 l 5,44,45
 505 114 505 114 482 69 c 0,46,47
 448 2 448 2 367 2 c 0,48,49
 316 2 316 2 273 24 c 1,50,51
 239 47 239 47 206 69 c 0,52,53
 167 93 167 93 128 94 c 0,54,55
 63 94 63 94 43 58 c 1,56,57
 37 36 37 36 30 13 c 1,58,-1
 1 13 l 1,59,60
 6 44 6 44 9 60.5 c 128,-1,61
 12 77 12 77 32 118 c 0,62,63
 59 173 59 173 144 262 c 0,64,65
 213 334 213 334 283 405 c 1,66,67
 351 482 351 482 351 522 c 0,68,69
 351 598 351 598 307 634 c 128,-1,70
 263 670 263 670 168 670 c 0,71,72
 136 670 136 670 114 656 c 0,73,74
 95 644 95 644 95 630 c 0,75,76
 94 622 94 622 106 622 c 0,0,1
EndSplineSet
EndChar

StartChar: three
Encoding: 51 51 19
Width: 455
VWidth: 2130
Flags: W
LayerCount: 2
Fore
SplineSet
137 370 m 1,0,1
 144 369 144 369 147 369 c 0,2,3
 154 369 154 369 156 370 c 0,4,5
 163 373 163 373 167 374 c 0,6,7
 229 398 229 398 257 424 c 0,8,9
 298 460 298 460 298 512 c 0,10,11
 298 580 298 580 256 628 c 0,12,13
 216 673 216 673 168 673 c 0,14,15
 130 673 130 673 98 652 c 0,16,17
 69 634 69 634 69 619 c 0,18,19
 69 612 69 612 79 612 c 0,20,21
 122 612 122 612 138 590 c 0,22,23
 151 573 151 573 152 539 c 0,24,25
 152 503 152 503 132 484 c 128,-1,26
 112 465 112 465 75 465 c 0,27,28
 41 465 41 465 24 482 c 0,29,30
 4 502 4 502 4 550 c 0,31,32
 4 628 4 628 53 669 c 0,33,34
 107 713 107 713 220 713 c 0,35,36
 295 713 295 713 354 655 c 0,37,38
 416 594 416 594 415 510 c 0,39,40
 415 445 415 445 388 410 c 0,41,42
 367 382 367 382 313 356 c 1,43,44
 363 332 363 332 386 304 c 0,45,46
 416 266 416 266 415 203 c 4,47,48
 415 120 415 120 354 59 c 0,49,50
 295 0 295 0 220 0 c 0,51,52
 108 0 108 0 54 44 c 0,53,54
 4 85 4 85 4 162 c 0,55,56
 4 209 4 209 24 230 c 0,57,58
 41 248 41 248 75 248 c 0,59,60
 111 248 111 248 131.5 229 c 128,-1,61
 152 210 152 210 152 174 c 0,62,63
 152 139 152 139 139 123 c 0,64,65
 122 101 122 101 79 101 c 0,66,67
 69 101 69 101 69 94 c 0,68,69
 69 79 69 79 98 61 c 0,70,71
 130 40 130 40 168 40 c 0,72,73
 215 40 215 40 255 84 c 0,74,75
 298 133 298 133 298 201 c 0,76,77
 298 253 298 253 258 288 c 0,78,79
 229 314 229 314 167 339 c 0,80,81
 160 342 160 342 154.5 343 c 128,-1,82
 149 344 149 344 148 344 c 0,83,84
 144 343 144 343 137 343 c 1,85,-1
 137 370 l 1,0,1
EndSplineSet
EndChar

StartChar: four
Encoding: 52 52 20
Width: 479
VWidth: 2130
Flags: W
LayerCount: 2
Fore
SplineSet
175 392 m 0,0,1
 166 379 166 379 131 321 c 0,2,3
 94 260 94 260 56 198 c 1,4,-1
 230 198 l 1,5,-1
 230 428 l 1,6,-1
 376 560 l 1,7,-1
 376 198 l 1,8,-1
 439 198 l 5,9,-1
 439 166 l 1,10,-1
 376 166 l 1,11,12
 375 162 375 162 375 145 c 256,13,14
 375 127 375 127 377 103 c 128,-1,15
 379 79 379 79 382.5 67 c 128,-1,16
 386 55 386 55 412 41 c 0,17,18
 433 30 433 30 439 30 c 1,19,-1
 439 0 l 1,20,-1
 166 0 l 1,21,-1
 166 30 l 1,22,23
 174 30 174 30 195 40 c 0,24,25
 221 53 221 53 224 65 c 128,-1,26
 227 77 227 77 229 107 c 128,-1,27
 231 137 231 137 231 152 c 0,28,29
 231 165 231 165 230 166 c 2,30,-1
 3 166 l 1,31,32
 3 170 3 170 2.5 179.5 c 128,-1,33
 2 189 2 189 2 192 c 0,34,35
 2 197 2 197 3 198 c 0,36,37
 87 262 87 262 133 391 c 0,38,39
 165 479 165 479 180 602 c 0,40,41
 193 711 193 711 195 713 c 2,42,-1
 358 713 l 1,43,44
 324 652 324 652 292 590 c 0,45,46
 256 524 256 524 230 480 c 0,47,48
 198 424 198 424 175 392 c 0,0,1
EndSplineSet
EndChar

StartChar: five
Encoding: 53 53 21
Width: 474
VWidth: 2130
Flags: W
LayerCount: 2
Fore
SplineSet
205 680 m 4,0,1
 253 680 253 680 324 690 c 4,2,3
 351 694 351 694 395 703 c 5,4,5
 395 670 395 670 384 644 c 4,6,7
 371 613 371 613 344 594 c 4,8,9
 328 583 328 583 295.5 577.5 c 132,-1,10
 263 572 263 572 224 572 c 4,11,12
 176 572 176 572 128.5 578.5 c 132,-1,13
 81 585 81 585 75 591 c 5,14,-1
 75 396 l 5,15,16
 104 425 104 425 140.5 440.5 c 132,-1,17
 177 456 177 456 209 456 c 4,18,19
 311 456 311 456 372.5 402.5 c 132,-1,20
 434 349 434 349 434 267 c 4,21,22
 434 162 434 162 355.5 81 c 132,-1,23
 277 0 277 0 171 0 c 4,24,25
 164 0 164 0 156 0.5 c 132,-1,26
 148 1 148 1 134 3 c 4,27,28
 61 14 61 14 28 57 c 4,29,30
 -1 95 -1 95 -1 155 c 4,31,32
 -1 191 -1 191 20.5 214 c 132,-1,33
 42 237 42 237 85 237 c 4,34,35
 126 237 126 237 149.5 218 c 132,-1,36
 173 199 173 199 173 159 c 4,37,38
 173 111 173 111 143 93 c 5,39,40
 111 85 111 85 80 76 c 5,41,42
 80 73 80 73 85 68 c 4,43,44
 105 48 105 48 126 39 c 132,-1,45
 147 30 147 30 170 30 c 4,46,47
 177 30 177 30 181 30 c 4,48,49
 185 31 185 31 187 31 c 4,50,51
 243 37 243 37 280 88 c 4,52,53
 321 146 321 146 322 245 c 4,54,55
 322 312 322 312 288 360 c 4,56,57
 251 413 251 413 189 413 c 4,58,59
 114 413 114 413 75 349 c 5,60,-1
 30 349 l 5,61,-1
 30 703 l 5,62,63
 61 696 61 696 117.5 688 c 132,-1,64
 174 680 174 680 205 680 c 4,0,1
EndSplineSet
EndChar

StartChar: six
Encoding: 54 54 22
Width: 524
VWidth: 2130
Flags: W
LayerCount: 2
Fore
SplineSet
244 689 m 0,0,1
 201 667 201 667 177 592 c 0,2,3
 158 528 158 528 158 451 c 0,4,5
 158 407 158 407 165 374.5 c 128,-1,6
 172 342 172 342 181 338 c 1,7,8
 207 375 207 375 241.5 391 c 128,-1,9
 276 407 276 407 324 407 c 0,10,11
 400 407 400 407 445 341 c 0,12,13
 484 284 484 284 484 212 c 4,14,15
 484 114 484 114 420 56 c 0,16,17
 359 0 359 0 266 0 c 0,18,19
 142 0 142 0 68 118 c 0,20,21
 2 223 2 223 1 368 c 0,22,23
 1 503 1 503 84 610 c 0,24,25
 170 722 170 722 283 722 c 0,26,27
 385 722 385 722 431 661 c 0,28,29
 463 619 463 619 463 561 c 0,30,31
 463 525 463 525 438 499.5 c 128,-1,32
 413 474 413 474 382 470 c 0,33,34
 378 469 378 469 371 470 c 0,35,36
 335 470 335 470 314 492 c 0,37,38
 291 516 291 516 291 561 c 0,39,40
 291 604 291 604 324 631 c 0,41,42
 349 652 349 652 372 652 c 1,43,44
 368 659 368 659 364 667 c 1,45,46
 327 699 327 699 284 699 c 0,47,48
 263 698 263 698 244 689 c 0,0,1
275 370 m 0,49,50
 234 370 234 370 210 334 c 0,51,52
 183 291 183 291 184 191 c 0,53,54
 184 123 184 123 201 82 c 0,55,56
 224 28 224 28 275 28 c 0,57,58
 325 28 325 28 346 82 c 0,59,60
 362 122 362 122 362 191 c 0,61,62
 362 269 362 269 348 309 c 0,63,64
 329 370 329 370 275 370 c 0,49,50
EndSplineSet
EndChar

StartChar: seven
Encoding: 55 55 23
Width: 496
VWidth: 2130
Flags: W
LayerCount: 2
Fore
SplineSet
239 287 m 0,0,1
 308 357 308 357 356 417 c 0,2,3
 411 489 411 489 421 531 c 0,4,5
 423 541 423 541 425.5 554 c 128,-1,6
 428 567 428 567 430 583 c 1,7,8
 403 566 403 566 368 552.5 c 128,-1,9
 333 539 333 539 307 539 c 0,10,11
 248 539 248 539 187 575 c 128,-1,12
 126 611 126 611 97 611 c 0,13,14
 63 611 63 611 43 585 c 1,15,16
 28 556 28 556 25 551 c 1,17,-1
 -1 551 l 1,18,-1
 -1 704 l 1,19,-1
 23 704 l 1,20,21
 28 691 28 691 32 677 c 0,22,23
 40 660 40 660 56 659 c 0,24,25
 65 659 65 659 137 703 c 0,26,27
 171 724 171 724 200 724 c 0,28,29
 246 724 246 724 289.5 692.5 c 128,-1,30
 333 661 333 661 372 661 c 0,31,32
 401 661 401 661 416 689 c 1,33,34
 427 720 427 720 428 724 c 1,35,-1
 456 724 l 1,36,-1
 456 692 l 5,37,-1
 456 585 l 2,38,39
 456 521 456 521 432 458 c 0,40,41
 424 437 424 437 339 287 c 0,42,43
 314 243 314 243 303 178 c 0,44,45
 295 128 295 128 294 71 c 0,46,47
 294 44 294 44 295 27.5 c 128,-1,48
 296 11 296 11 298 0 c 1,49,-1
 128 0 l 1,50,51
 131 29 131 29 135 57 c 0,52,53
 145 118 145 118 164 169 c 0,54,55
 192 239 192 239 239 287 c 0,0,1
EndSplineSet
EndChar

StartChar: eight
Encoding: 56 56 24
Width: 476
VWidth: 2130
Flags: W
LayerCount: 2
Fore
SplineSet
436 228 m 4,0,1
 436 116 436 116 363 53 c 0,2,3
 301 0 301 0 216 0 c 0,4,5
 122 0 122 0 60.5 62.5 c 128,-1,6
 -1 125 -1 125 -1 228 c 0,7,8
 -1 270 -1 270 43 315 c 0,9,10
 77 350 77 350 110 364 c 1,11,12
 80 382 80 382 55 414 c 0,13,14
 18 464 18 464 18 527 c 0,15,16
 18 610 18 610 82 663 c 0,17,18
 141 711 141 711 218 711 c 0,19,20
 296 711 296 711 353 668 c 0,21,22
 415 620 415 620 415 544 c 0,23,24
 415 537 415 537 415 534 c 0,25,26
 414 529 414 529 414 527 c 0,27,28
 410 483 410 483 373 441 c 0,29,30
 341 404 341 404 310 392 c 1,31,32
 350 377 350 377 398 317 c 0,33,34
 436 271 436 271 436 228 c 4,0,1
353 532 m 0,35,36
 353 595 353 595 316.5 635 c 128,-1,37
 280 675 280 675 218 675 c 0,38,39
 169 675 169 675 136.5 642 c 128,-1,40
 104 609 104 609 104 567 c 0,41,42
 104 544 104 544 137 516 c 0,43,44
 152 504 152 504 189.5 479.5 c 128,-1,45
 227 455 227 455 244 443 c 0,46,47
 260 430 260 430 276 417 c 1,48,49
 306 431 306 431 329.5 464 c 128,-1,50
 353 497 353 497 353 532 c 0,35,36
58 214 m 0,51,52
 58 146 58 146 99 95 c 0,53,54
 145 39 145 39 216 39 c 0,55,56
 281 39 281 39 317 74 c 0,57,58
 347 103 347 103 347 140 c 0,59,60
 347 166 347 166 314 203 c 0,61,62
 285 236 285 236 249 258.5 c 128,-1,63
 213 281 213 281 185 302 c 0,64,65
 164 318 164 318 143 335 c 1,66,67
 107 317 107 317 88 296 c 0,68,69
 58 262 58 262 58 214 c 0,51,52
EndSplineSet
EndChar

StartChar: nine
Encoding: 57 57 25
Width: 506
VWidth: 2130
Flags: W
LayerCount: 2
Fore
SplineSet
231 33 m 0,0,1
 273 55 273 55 295 131 c 0,2,3
 314 195 314 195 314 271 c 0,4,5
 314 315 314 315 307.5 347.5 c 128,-1,6
 301 380 301 380 291 384 c 1,7,8
 266 347 266 347 233 331 c 128,-1,9
 200 315 200 315 153 315 c 0,10,11
 79 315 79 315 36 381 c 0,12,13
 -2 438 -2 438 -2 510 c 0,14,15
 -2 608 -2 608 60 667 c 0,16,17
 119 723 119 723 209 722 c 0,18,19
 330 722 330 722 402 604 c 0,20,21
 466 499 466 499 466 354 c 0,22,23
 466 219 466 219 386 112 c 0,24,25
 303 0 303 0 193 0 c 0,26,27
 94 0 94 0 49 62 c 0,28,29
 18 104 18 104 18 161 c 0,30,31
 18 197 18 197 42 223 c 128,-1,32
 66 249 66 249 96 252 c 0,33,34
 100 253 100 253 108 253 c 0,35,36
 143 253 143 253 164 229.5 c 128,-1,37
 185 206 185 206 185 161 c 0,38,39
 185 118 185 118 153 91 c 0,40,41
 129 70 129 70 107 70 c 1,42,43
 111 63 111 63 115 56 c 1,44,45
 151 24 151 24 192 23 c 0,46,47
 213 24 213 24 231 33 c 0,0,1
201 352 m 0,48,49
 241 352 241 352 263 389 c 0,50,51
 289 432 289 432 289 531 c 0,52,53
 289 599 289 599 273 640 c 0,54,55
 251 694 251 694 201 694 c 0,56,57
 153 694 153 694 132 640 c 0,58,59
 117 600 117 600 117 531 c 0,60,61
 117 453 117 453 129 413 c 0,62,63
 149 352 149 352 201 352 c 0,48,49
EndSplineSet
EndChar

StartChar: C
Encoding: 67 67 26
Width: 428
VWidth: 2047
Flags: W
LayerCount: 2
Fore
SplineSet
433 2004 m 1,0,1
 435 1995 435 1995 438 1986 c 0,2,3
 449 1952 449 1952 457 1923 c 0,4,5
 474 1862 474 1862 502 1829 c 2,6,-1
 537 1786 l 1,7,-1
 586 1727 l 1,8,-1
 622 1685 l 1,9,-1
 670 1635 l 1,10,11
 686 1612 686 1612 698 1595 c 128,-1,12
 710 1578 710 1578 717 1561 c 1,13,-1
 727 1621 l 1,14,-1
 727 1645 l 1,15,-1
 727 1686 l 1,16,-1
 719 1719 l 1,17,-1
 703 1768 l 2,18,19
 683 1830 683 1830 633 1883 c 1,20,21
 591 1936 591 1936 535 1967 c 0,22,23
 478 1998 478 1998 433 2004 c 1,0,1
451 1268 m 0,24,25
 457 1240 457 1240 467 1223 c 0,26,27
 480 1203 480 1203 494 1186 c 2,28,-1
 529 1141 l 1,29,-1
 574 1090 l 1,30,-1
 670 990 l 1,31,32
 686 967 686 967 697.5 950 c 128,-1,33
 709 933 709 933 717 916 c 1,34,-1
 727 976 l 1,35,-1
 727 1000 l 1,36,-1
 727 1041 l 1,37,-1
 719 1074 l 1,38,-1
 703 1123 l 2,39,40
 683 1185 683 1185 633 1238 c 1,41,42
 595 1285 595 1285 535 1322 c 0,43,44
 476 1358 476 1358 430 1359 c 1,45,46
 433 1342 433 1342 439.5 1315.5 c 128,-1,47
 446 1289 446 1289 451 1268 c 0,24,25
426 731 m 1,48,-1
 426 233 l 2,49,50
 426 170 426 170 381 113 c 1,51,52
 354 68 354 68 279 33 c 0,53,54
 215 0 215 0 145 0 c 0,55,56
 82 0 82 0 43 33 c 1,57,58
 0 63 0 63 0 125 c 0,59,60
 0 156 0 156 9 185.5 c 128,-1,61
 18 215 18 215 41 242 c 0,62,63
 61 266 61 266 87 288.5 c 128,-1,64
 113 311 113 311 147 328 c 0,65,66
 215 358 215 358 270 358 c 0,67,68
 358 358 358 358 391 326 c 1,69,-1
 391 1059 l 1,70,-1
 391 1359 l 1,71,-1
 390 1361 l 1,72,-1
 390 1384 l 1,73,-1
 390 1685 l 1,74,-1
 389 1686 l 1,75,-1
 389 1705 l 1,76,-1
 389 2006 l 1,77,-1
 388 2007 l 1,78,-1
 388 2382 l 1,79,-1
 423 2382 l 1,80,81
 428 2335 428 2335 437 2307 c 0,82,83
 448 2273 448 2273 456 2244 c 0,84,85
 473 2183 473 2183 501 2150 c 2,86,-1
 536 2107 l 1,87,-1
 585 2048 l 1,88,-1
 675 1943 l 1,89,90
 776 1810 776 1810 777 1665 c 0,91,92
 777 1608 777 1608 762 1556 c 0,93,94
 753 1524 753 1524 745 1506 c 1,95,96
 779 1427 779 1427 778 1344 c 0,97,98
 778 1287 778 1287 763 1235 c 0,99,100
 751 1196 751 1196 745 1184 c 1,101,-1
 743 1185 l 1,102,103
 778 1104 778 1104 779 1019 c 0,104,105
 779 953 779 953 765 910 c 0,106,107
 762 896 762 896 751 868 c 1,108,109
 780 794 780 794 780 717 c 0,110,111
 780 651 780 651 766 608 c 0,112,113
 763 593 763 593 750 561 c 1,114,115
 782 492 782 492 782 430 c 0,116,117
 782 416 782 416 780 401 c 0,118,119
 777 377 777 377 777 348 c 128,-1,120
 777 319 777 319 766 291 c 1,121,-1
 727 291 l 1,122,-1
 735 348 l 1,123,-1
 735 373 l 1,124,-1
 735 414 l 1,125,-1
 727 444 l 1,126,-1
 711 496 l 2,127,128
 700 526 700 526 682 554 c 128,-1,129
 664 582 664 582 641 608 c 0,130,131
 594 666 594 666 543 694 c 0,132,133
 514 711 514 711 482.5 721 c 128,-1,134
 451 731 451 731 426 731 c 1,48,-1
459 956 m 0,135,136
 465 928 465 928 475 911.5 c 128,-1,137
 485 895 485 895 502 874 c 2,138,-1
 537 829 l 1,139,-1
 582 778 l 1,140,-1
 678 678 l 1,141,142
 694 655 694 655 705.5 638 c 128,-1,143
 717 621 717 621 725 604 c 1,144,-1
 735 664 l 1,145,-1
 735 688 l 1,146,-1
 735 729 l 1,147,-1
 727 762 l 1,148,-1
 711 811 l 2,149,150
 690 874 690 874 641 926 c 1,151,152
 611 964 611 964 543 1010 c 0,153,154
 489 1046 489 1046 438 1047 c 1,155,156
 442 1030 442 1030 447.5 1003.5 c 128,-1,157
 453 977 453 977 459 956 c 0,135,136
433 1683 m 1,158,159
 436 1671 436 1671 438 1661 c 0,160,161
 447 1627 447 1627 458 1598 c 0,162,163
 472 1547 472 1547 503 1504 c 2,164,-1
 538 1461 l 1,165,-1
 587 1402 l 1,166,-1
 591 1397 l 1,167,-1
 671 1314 l 1,168,169
 687 1291 687 1291 698.5 1274 c 128,-1,170
 710 1257 710 1257 718 1240 c 1,171,-1
 726 1300 l 1,172,-1
 728 1324 l 1,173,-1
 728 1365 l 1,174,-1
 720 1398 l 1,175,-1
 704 1447 l 2,176,177
 684 1509 684 1509 634 1562 c 1,178,179
 592 1615 592 1615 536 1646 c 0,180,181
 478 1677 478 1677 433 1683 c 1,158,159
EndSplineSet
EndChar

StartChar: D
Encoding: 68 68 27
Width: 428
VWidth: 2047
Flags: W
LayerCount: 2
Fore
SplineSet
451 1268 m 0,0,1
 457 1240 457 1240 467 1223 c 0,2,3
 480 1203 480 1203 494 1186 c 2,4,-1
 529 1141 l 1,5,-1
 574 1090 l 1,6,-1
 670 990 l 1,7,8
 686 967 686 967 697.5 950 c 128,-1,9
 709 933 709 933 717 916 c 1,10,-1
 725 976 l 1,11,-1
 727 1000 l 1,12,-1
 727 1041 l 1,13,-1
 719 1074 l 1,14,-1
 703 1123 l 2,15,16
 683 1185 683 1185 633 1238 c 1,17,18
 591 1291 591 1291 535 1322 c 0,19,20
 476 1354 476 1354 430 1359 c 1,21,22
 433 1342 433 1342 439.5 1315.5 c 128,-1,23
 446 1289 446 1289 451 1268 c 0,0,1
426 731 m 1,24,-1
 426 233 l 2,25,26
 426 170 426 170 381 113 c 1,27,28
 354 68 354 68 279 33 c 0,29,30
 215 0 215 0 145 0 c 0,31,32
 82 0 82 0 43 33 c 1,33,34
 0 63 0 63 0 125 c 0,35,36
 0 156 0 156 9 185.5 c 128,-1,37
 18 215 18 215 41 242 c 0,38,39
 61 266 61 266 87 288.5 c 128,-1,40
 113 311 113 311 147 328 c 0,41,42
 215 358 215 358 270 358 c 0,43,44
 358 358 358 358 391 326 c 1,45,-1
 391 1059 l 1,46,-1
 391 1359 l 1,47,-1
 390 1361 l 1,48,-1
 390 1384 l 1,49,-1
 390 1685 l 1,50,-1
 389 1686 l 1,51,-1
 389 2061 l 1,52,-1
 424 2061 l 1,53,54
 429 2014 429 2014 438 1986 c 0,55,56
 449 1952 449 1952 457 1923 c 0,57,58
 474 1862 474 1862 502 1829 c 2,59,-1
 537 1786 l 1,60,-1
 586 1727 l 1,61,-1
 676 1622 l 1,62,63
 778 1490 778 1490 778 1344 c 0,64,65
 778 1287 778 1287 763 1235 c 0,66,67
 751 1196 751 1196 745 1184 c 1,68,-1
 743 1185 l 1,69,70
 778 1104 778 1104 779 1019 c 0,71,72
 779 953 779 953 765 910 c 0,73,74
 762 896 762 896 751 868 c 1,75,76
 780 794 780 794 780 717 c 0,77,78
 780 651 780 651 766 608 c 0,79,80
 763 593 763 593 750 561 c 1,81,82
 780 496 780 496 780 401 c 0,83,84
 780 377 780 377 777 348 c 128,-1,85
 774 319 774 319 766 291 c 1,86,-1
 727 291 l 1,87,-1
 733 348 l 1,88,-1
 735 373 l 1,89,-1
 735 414 l 1,90,-1
 727 444 l 1,91,-1
 711 496 l 2,92,93
 700 526 700 526 682 554 c 128,-1,94
 664 582 664 582 641 608 c 0,95,96
 594 666 594 666 543 694 c 0,97,98
 514 711 514 711 482.5 721 c 128,-1,99
 451 731 451 731 426 731 c 1,24,-1
459 956 m 0,100,101
 465 928 465 928 475 911.5 c 128,-1,102
 485 895 485 895 502 874 c 2,103,-1
 537 829 l 1,104,-1
 582 778 l 1,105,-1
 678 678 l 1,106,107
 694 655 694 655 705.5 638 c 128,-1,108
 717 621 717 621 725 604 c 1,109,-1
 733 664 l 1,110,-1
 735 688 l 1,111,-1
 735 729 l 1,112,-1
 727 762 l 1,113,-1
 711 811 l 2,114,115
 690 874 690 874 641 926 c 1,116,117
 596 983 596 983 543 1010 c 0,118,119
 489 1042 489 1042 438 1047 c 1,120,121
 442 1030 442 1030 447.5 1003.5 c 128,-1,122
 453 977 453 977 459 956 c 0,100,101
433 1683 m 1,123,124
 436 1671 436 1671 438 1661 c 0,125,126
 447 1627 447 1627 458 1598 c 0,127,128
 472 1547 472 1547 503 1504 c 2,129,-1
 538 1461 l 1,130,-1
 587 1402 l 1,131,-1
 591 1397 l 1,132,-1
 671 1314 l 1,133,134
 687 1291 687 1291 698.5 1274 c 128,-1,135
 710 1257 710 1257 718 1240 c 1,136,-1
 726 1300 l 1,137,-1
 728 1324 l 1,138,-1
 728 1365 l 1,139,-1
 720 1398 l 1,140,-1
 704 1447 l 2,141,142
 684 1509 684 1509 634 1562 c 1,143,144
 592 1615 592 1615 536 1646 c 0,145,146
 478 1677 478 1677 433 1683 c 1,123,124
EndSplineSet
EndChar

StartChar: E
Encoding: 69 69 28
Width: 428
VWidth: 2047
Flags: W
LayerCount: 2
Fore
SplineSet
459 956 m 0,0,1
 465 928 465 928 475 911.5 c 128,-1,2
 485 895 485 895 502 874 c 2,3,-1
 537 829 l 1,4,-1
 582 778 l 1,5,-1
 678 678 l 1,6,7
 694 655 694 655 705.5 638 c 128,-1,8
 717 621 717 621 725 604 c 1,9,-1
 733 664 l 1,10,-1
 735 688 l 1,11,-1
 735 729 l 1,12,-1
 727 762 l 1,13,-1
 711 811 l 2,14,15
 690 874 690 874 641 926 c 1,16,17
 596 983 596 983 543 1010 c 0,18,19
 489 1042 489 1042 438 1047 c 1,20,21
 442 1030 442 1030 447.5 1003.5 c 128,-1,22
 453 977 453 977 459 956 c 0,0,1
426 731 m 1,23,-1
 426 233 l 2,24,25
 426 170 426 170 381 113 c 1,26,27
 354 68 354 68 279 33 c 0,28,29
 215 0 215 0 145 0 c 0,30,31
 82 0 82 0 43 33 c 1,32,33
 0 63 0 63 0 125 c 0,34,35
 0 156 0 156 9 185.5 c 128,-1,36
 18 215 18 215 41 242 c 0,37,38
 61 266 61 266 87 288.5 c 128,-1,39
 113 311 113 311 147 328 c 0,40,41
 215 358 215 358 270 358 c 0,42,43
 358 358 358 358 391 326 c 1,44,-1
 391 1059 l 1,45,-1
 391 1359 l 1,46,-1
 390 1361 l 1,47,-1
 390 1736 l 1,48,-1
 425 1736 l 1,49,50
 429 1695 429 1695 438.5 1661 c 128,-1,51
 448 1627 448 1627 458 1598 c 0,52,53
 472 1547 472 1547 503 1504 c 2,54,-1
 538 1461 l 1,55,-1
 587 1402 l 1,56,-1
 677 1297 l 1,57,58
 779 1164 779 1164 779 1019 c 0,59,60
 779 953 779 953 765 910 c 0,61,62
 762 896 762 896 751 868 c 1,63,64
 780 794 780 794 780 717 c 0,65,66
 780 651 780 651 766 608 c 0,67,68
 763 593 763 593 750 561 c 1,69,70
 780 496 780 496 780 401 c 0,71,72
 780 377 780 377 777 348 c 128,-1,73
 774 319 774 319 766 291 c 1,74,-1
 727 291 l 1,75,-1
 733 348 l 1,76,-1
 735 373 l 1,77,-1
 735 414 l 1,78,-1
 727 444 l 1,79,-1
 711 496 l 2,80,81
 700 526 700 526 682 554 c 128,-1,82
 664 582 664 582 641 608 c 0,83,84
 594 666 594 666 543 694 c 0,85,86
 514 711 514 711 482.5 721 c 128,-1,87
 451 731 451 731 426 731 c 1,23,-1
451 1268 m 4,88,89
 457 1240 457 1240 467 1223 c 4,90,91
 480 1203 480 1203 494 1186 c 6,92,-1
 529 1141 l 5,93,-1
 574 1090 l 5,94,-1
 670 990 l 5,95,96
 686 967 686 967 697.5 950 c 132,-1,97
 709 933 709 933 717 916 c 5,98,-1
 725 976 l 5,99,-1
 727 1000 l 5,100,-1
 727 1041 l 5,101,-1
 719 1074 l 5,102,-1
 703 1123 l 6,103,104
 683 1185 683 1185 633 1238 c 5,105,106
 591 1291 591 1291 535 1322 c 4,107,108
 476 1354 476 1354 430 1359 c 5,109,110
 433 1342 433 1342 439.5 1315.5 c 132,-1,111
 446 1289 446 1289 451 1268 c 4,88,89
EndSplineSet
EndChar

StartChar: F
Encoding: 70 70 29
Width: 428
VWidth: 2047
Flags: W
LayerCount: 2
Fore
SplineSet
426 731 m 1,0,-1
 426 233 l 2,1,2
 426 170 426 170 381 113 c 1,3,4
 355 70 355 70 279 33 c 0,5,6
 212 0 212 0 145 0 c 0,7,8
 82 0 82 0 43 33 c 1,9,10
 0 63 0 63 0 125 c 0,11,12
 0 156 0 156 9 185.5 c 128,-1,13
 18 215 18 215 41 242 c 0,14,15
 61 266 61 266 87 288 c 0,16,17
 115 313 115 313 147 328 c 0,18,19
 212 358 212 358 270 358 c 0,20,21
 358 358 358 358 391 326 c 1,22,-1
 391 1059 l 1,23,-1
 391 1440 l 5,24,-1
 426 1440 l 5,25,26
 430 1389 430 1389 439 1359 c 0,27,28
 450 1325 450 1325 459 1296 c 0,29,30
 479 1231 479 1231 504 1202 c 2,31,-1
 539 1159 l 1,32,-1
 588 1100 l 1,33,-1
 678 995 l 1,34,35
 780 862 780 862 780 717 c 0,36,37
 780 655 780 655 766 608 c 0,38,39
 759 583 759 583 750 561 c 1,40,41
 780 496 780 496 780 401 c 0,42,43
 780 377 780 377 777 348 c 128,-1,44
 774 319 774 319 766 291 c 1,45,-1
 727 291 l 1,46,-1
 733 348 l 1,47,-1
 735 373 l 1,48,-1
 735 414 l 1,49,-1
 727 444 l 1,50,-1
 711 496 l 2,51,52
 703 522 703 522 682 554 c 0,53,54
 668 576 668 576 641 608 c 0,55,56
 593 665 593 665 543 694 c 0,57,58
 514 711 514 711 482.5 721 c 128,-1,59
 451 731 451 731 426 731 c 1,0,-1
459 956 m 0,60,61
 465 928 465 928 475 911.5 c 128,-1,62
 485 895 485 895 502 874 c 2,63,-1
 537 829 l 1,64,-1
 582 778 l 1,65,-1
 678 678 l 1,66,67
 694 655 694 655 705.5 638 c 128,-1,68
 717 621 717 621 725 604 c 1,69,-1
 733 664 l 1,70,-1
 735 688 l 1,71,-1
 735 729 l 1,72,-1
 727 762 l 1,73,-1
 711 811 l 2,74,75
 690 874 690 874 641 926 c 1,76,77
 596 983 596 983 543 1010 c 0,78,79
 489 1042 489 1042 438 1047 c 1,80,81
 442 1030 442 1030 447.5 1003.5 c 128,-1,82
 453 977 453 977 459 956 c 0,60,61
EndSplineSet
EndChar

StartChar: G
Encoding: 71 71 30
Width: 428
VWidth: 2047
Flags: W
LayerCount: 2
Fore
SplineSet
426 1441 m 1,0,1
 430 1389 430 1389 439 1359 c 0,2,3
 450 1325 450 1325 459 1296 c 0,4,5
 479 1232 479 1232 504 1202 c 2,6,-1
 539 1159 l 1,7,-1
 588 1100 l 1,8,-1
 678 995 l 1,9,10
 780 862 780 862 780 717 c 0,11,12
 780 682 780 682 774 640 c 0,13,14
 767 595 767 595 750 553 c 0,15,16
 729 503 729 503 726 494 c 0,17,18
 717 471 717 471 700 442 c 1,19,-1
 670 440 l 1,20,-1
 705 530 l 2,21,22
 711 549 711 549 717 568 c 0,23,24
 725 592 725 592 727 608 c 2,25,-1
 733 664 l 1,26,-1
 735 688 l 1,27,-1
 735 729 l 1,28,-1
 727 762 l 1,29,-1
 711 811 l 2,30,31
 690 874 690 874 641 926 c 1,32,33
 597 982 597 982 543 1010 c 0,34,35
 510 1027 510 1027 482 1036 c 0,36,37
 450 1046 450 1046 426 1047 c 5,38,-1
 426 233 l 2,39,40
 426 170 426 170 381 113 c 1,41,42
 355 70 355 70 279 33 c 0,43,44
 212 0 212 0 145 0 c 0,45,46
 82 0 82 0 43 33 c 1,47,48
 0 63 0 63 0 125 c 0,49,50
 0 156 0 156 9 185.5 c 128,-1,51
 18 215 18 215 41 242 c 0,52,53
 61 266 61 266 87 288 c 0,54,55
 115 313 115 313 147 328 c 0,56,57
 212 358 212 358 270 358 c 0,58,59
 358 358 358 358 391 326 c 1,60,-1
 391 1059 l 1,61,-1
 391 1441 l 1,62,-1
 426 1441 l 1,0,1
EndSplineSet
EndChar

StartChar: H
Encoding: 72 72 31
Width: 428
VWidth: 2047
Flags: W
LayerCount: 2
Fore
SplineSet
428 231 m 2,0,1
 428 174 428 174 387 117 c 0,2,3
 347 62 347 62 277 31 c 0,4,5
 209 0 209 0 145 0 c 0,6,7
 87 0 87 0 43 33 c 0,8,9
 0 65 0 65 0 121 c 0,10,11
 0 181 0 181 43 236 c 0,12,13
 57 253 57 253 92 282 c 0,14,15
 121 306 121 306 156 328 c 1,16,17
 193 344 193 344 223.5 351 c 128,-1,18
 254 358 254 358 283 358 c 0,19,20
 344 358 344 358 391 324 c 1,21,-1
 391 1441 l 1,22,-1
 428 1441 l 5,23,-1
 428 231 l 2,0,1
EndSplineSet
EndChar

StartChar: I
Encoding: 73 73 32
Width: 428
VWidth: 2047
Flags: W
LayerCount: 2
Fore
SplineSet
428 231 m 2,0,1
 428 174 428 174 387 117 c 0,2,3
 347 62 347 62 277 31 c 0,4,5
 209 0 209 0 145 0 c 0,6,7
 87 0 87 0 43 33 c 0,8,9
 0 65 0 65 0 121 c 0,10,11
 0 181 0 181 43 236 c 0,12,13
 57 253 57 253 92 282 c 0,14,15
 121 306 121 306 156 328 c 1,16,17
 193 344 193 344 223.5 351 c 128,-1,18
 254 358 254 358 283 358 c 0,19,20
 344 358 344 358 391 324 c 1,21,-1
 391 1441 l 1,22,-1
 428 1441 l 5,23,-1
 428 231 l 2,0,1
135 201 m 0,24,25
 108 182 108 182 78 144 c 0,26,27
 41 97 41 97 41 74 c 1,28,29
 47 50 47 50 80 37 c 1,30,31
 119 37 119 37 158 58 c 1,32,33
 190 68 190 68 258 117 c 0,34,35
 287 138 287 138 293 142 c 0,36,37
 306 153 306 153 334 187 c 0,38,39
 381 240 381 240 381 271 c 0,40,41
 381 295 381 295 350 306 c 1,42,43
 285 306 285 306 135 201 c 0,24,25
EndSplineSet
EndChar

StartChar: J
Encoding: 74 74 33
Width: 592
VWidth: 2047
Flags: W
LayerCount: 2
Fore
SplineSet
181 210 m 4,0,1
 181 184 181 184 182.5 173.5 c 132,-1,2
 184 163 184 163 193 139 c 4,3,4
 200 126 200 126 207.5 111.5 c 132,-1,5
 215 97 215 97 227 82 c 4,6,7
 269 30 269 30 330 31 c 5,8,9
 377 36 377 36 396 60 c 4,10,11
 412 81 412 81 411 150 c 4,12,13
 411 167 411 167 407.5 184.5 c 132,-1,14
 404 202 404 202 400 217 c 4,15,16
 395 234 395 234 385 249 c 132,-1,17
 375 264 375 264 363 278 c 4,18,19
 323 329 323 329 259 329 c 5,20,21
 219 324 219 324 200 300 c 132,-1,22
 181 276 181 276 181 210 c 4,0,1
2 180 m 260,23,24
 2 245 2 245 53 285 c 4,25,26
 104 326 104 326 167 341 c 4,27,28
 180 344 180 344 196 346.5 c 132,-1,29
 212 349 212 349 229 353 c 4,30,31
 261 358 261 358 290 358 c 4,32,33
 361 358 361 358 419 341 c 5,34,35
 486 327 486 327 539 285 c 5,36,37
 593 248 593 248 592 180 c 4,38,39
 592 121 592 121 546 79 c 4,40,41
 501 40 501 40 431 20 c 4,42,43
 396 9 396 9 363 5.5 c 132,-1,44
 330 2 330 2 300 2 c 4,45,46
 240 2 240 2 172 18 c 132,-1,47
 104 34 104 34 53 74 c 4,48,49
 2 115 2 115 2 180 c 260,23,24
EndSplineSet
EndChar

StartChar: K
Encoding: 75 75 34
Width: 1022
VWidth: 2047
Flags: W
LayerCount: 2
Fore
SplineSet
793 372 m 1,0,-1
 874 372 l 1,1,-1
 874 -10 l 1,2,-1
 793 -10 l 1,3,-1
 793 163 l 1,4,5
 786 110 786 110 747 77 c 0,6,7
 724 56 724 56 697 42 c 128,-1,8
 670 28 670 28 638 19 c 0,9,10
 605 7 605 7 575.5 3 c 128,-1,11
 546 -1 546 -1 517 -1 c 2,12,-1
 490 -1 l 2,13,14
 466 -1 466 -1 463 1 c 0,15,16
 451 1 451 1 434 5 c 128,-1,17
 417 9 417 9 396 14 c 0,18,19
 334 31 334 31 285 76 c 1,20,21
 245 109 245 109 236 159 c 1,22,-1
 236 -10 l 1,23,-1
 155 -10 l 1,24,-1
 155 372 l 1,25,-1
 236 372 l 1,26,-1
 236 202 l 1,27,28
 243 248 243 248 280 282 c 0,29,30
 302 301 302 301 330 316.5 c 128,-1,31
 358 332 358 332 392 341 c 0,32,33
 479 362 479 362 510 362 c 0,34,35
 578 362 578 362 631 343 c 0,36,37
 662 335 662 335 691 322 c 128,-1,38
 720 309 720 309 745 289 c 0,39,40
 786 251 786 251 793 199 c 1,41,-1
 793 372 l 1,0,-1
404 189 m 2,42,43
 404 176 404 176 406 166.5 c 128,-1,44
 408 157 408 157 417 137 c 0,45,46
 424 121 424 121 431 109 c 128,-1,47
 438 97 438 97 449 81 c 0,48,49
 492 26 492 26 546 26 c 1,50,51
 589 34 589 34 602 59 c 0,52,53
 608 65 608 65 617 91 c 0,54,55
 623 108 623 108 622 149 c 0,56,57
 622 223 622 223 580 280 c 1,58,59
 533 332 533 332 481 332 c 0,60,61
 440 330 440 330 420 300 c 0,62,63
 404 277 404 277 404 213 c 2,64,-1
 404 189 l 2,42,43
939 372 m 1,65,-1
 1022 372 l 5,66,-1
 1022 -10 l 1,67,-1
 939 -10 l 1,68,-1
 939 372 l 1,65,-1
-0 372 m 1,69,-1
 82 372 l 1,70,-1
 82 -10 l 1,71,-1
 -0 -10 l 1,72,-1
 -0 372 l 1,69,-1
EndSplineSet
EndChar

StartChar: L
Encoding: 76 76 35
Width: 668
VWidth: 2047
Flags: W
LayerCount: 2
Fore
SplineSet
627 1441 m 1,0,-1
 668 1441 l 1,1,-1
 668 -43 l 5,2,-1
 631 -43 l 1,3,-1
 627 1441 l 1,0,-1
0 403 m 1,4,-1
 37 403 l 1,5,-1
 37 -43 l 1,6,-1
 0 -43 l 1,7,-1
 0 403 l 1,4,-1
218 210 m 0,8,9
 218 184 218 184 220 174 c 0,10,11
 222 163 222 163 230 139 c 1,12,13
 237 126 237 126 245 111 c 0,14,15
 253 97 253 97 265 82 c 0,16,17
 306 30 306 30 367 31 c 1,18,19
 414 36 414 36 433 60 c 0,20,21
 449 80 449 80 449 150 c 0,22,23
 449 167 449 167 445 185 c 0,24,25
 442 202 442 202 437 217 c 0,26,27
 432 234 432 234 422 249 c 128,-1,28
 412 264 412 264 400 278 c 0,29,30
 360 329 360 329 296 329 c 1,31,32
 256 324 256 324 237 300 c 0,33,34
 218 277 218 277 218 210 c 0,8,9
39 180 m 256,35,36
 39 243 39 243 91 285 c 0,37,38
 145 328 145 328 204 341 c 0,39,40
 217 344 217 344 234 347 c 0,41,42
 250 350 250 350 266 353 c 0,43,44
 298 358 298 358 328 358 c 0,45,46
 399 358 399 358 456 341 c 1,47,48
 523 327 523 327 576 285 c 1,49,50
 629 248 629 248 630 180 c 0,51,52
 630 120 630 120 583 79 c 0,53,54
 539 41 539 41 468 20 c 0,55,56
 429 9 429 9 400 6 c 0,57,58
 367 2 367 2 337 2 c 0,59,60
 276 2 276 2 209 18 c 0,61,62
 143 33 143 33 91 74 c 128,-1,63
 39 115 39 115 39 180 c 256,35,36
EndSplineSet
EndChar

StartChar: M
Encoding: 77 77 36
Width: 1126
VWidth: 2047
Flags: W
LayerCount: 2
Fore
SplineSet
1085 1255 m 5,0,-1
 1126 1255 l 5,1,-1
 1126 -186 l 5,2,-1
 1088 -186 l 5,3,-1
 1087.13425926 1 l 5,4,-1
 37 1 l 5,5,-1
 37 -186 l 5,6,-1
 0 -186 l 5,7,-1
 0 536 l 5,8,-1
 37 536 l 5,9,-1
 38 360 l 5,10,-1
 1086.86328938 360 l 5,11,-1
 1085 1255 l 5,0,-1
1086.60185185 116 m 5,12,-1
 1086 246 l 5,13,-1
 37 246 l 5,14,-1
 37 116 l 5,15,-1
 1086.60185185 116 l 5,12,-1
EndSplineSet
EndChar

StartChar: c
Encoding: 99 99 37
Width: 428
VWidth: 2047
Flags: W
LayerCount: 2
Fore
SplineSet
336 -1192 m 1,0,1
 316 -1228 316 -1228 289 -1263 c 2,2,-1
 200 -1369 l 1,3,-1
 151 -1428 l 1,4,-1
 116 -1472 l 2,5,6
 88 -1507 88 -1507 71 -1566 c 0,7,8
 63 -1595 63 -1595 52 -1629 c 1,9,10
 97 -1623 97 -1623 154 -1592 c 0,11,12
 208 -1561 208 -1561 252 -1508 c 0,13,14
 302 -1454 302 -1454 322 -1392 c 2,15,-1
 338 -1344 l 1,16,-1
 345 -1310 l 1,17,-1
 345 -1269 l 1,18,-1
 344 -1245 l 1,19,-1
 336 -1192 l 1,0,1
335 -567 m 1,20,21
 315 -602 315 -602 289 -637 c 2,22,-1
 200 -742 l 1,23,-1
 151 -801 l 1,24,-1
 116 -845 l 2,25,26
 89 -878 89 -878 71 -939 c 0,27,28
 62 -968 62 -968 52 -1002 c 0,29,30
 51 -1005 51 -1005 51 -1008 c 1,31,32
 96 -1003 96 -1003 154 -970 c 0,33,34
 208 -939 208 -939 252 -886 c 0,35,36
 302 -832 302 -832 321 -770 c 2,37,-1
 337 -722 l 1,38,-1
 345 -689 l 1,39,-1
 345 -648 l 1,40,-1
 343 -624 l 1,41,-1
 335 -567 l 1,20,21
336 66 m 1,42,43
 311 45 311 45 279 30 c 0,44,45
 211 -1 211 -1 156 -1 c 0,46,47
 68 -1 68 -1 35 32 c 1,48,-1
 36 -374 l 1,49,50
 61 -374 61 -374 93 -364 c 0,51,52
 124 -354 124 -354 153 -337 c 0,53,54
 205 -305 205 -305 251 -250 c 0,55,56
 281 -213 281 -213 292 -196 c 0,57,58
 313 -164 313 -164 321 -138 c 2,59,-1
 337 -86 l 1,60,-1
 344 -56 l 1,61,-1
 344 -15 l 1,62,-1
 342 10 l 1,63,-1
 336 66 l 1,42,43
0 -1076 m 1,64,-1
 0 124 l 2,65,66
 0 188 0 188 45 245 c 1,67,68
 72 289 72 289 147 325 c 0,69,70
 215 358 215 358 281 358 c 0,71,72
 341 358 341 358 383 325 c 0,73,74
 426 291 426 291 426 233 c 4,75,76
 426 202 426 202 417 172.5 c 128,-1,77
 408 143 408 143 385 116 c 0,78,79
 365 91 365 91 339 69 c 0,80,81
 338 68 338 68 337 67 c 2,82,-1
 375 67 l 1,83,84
 382 39 382 39 387 10 c 0,85,86
 390 -19 390 -19 390 -43 c 0,87,88
 391 -135 391 -135 360 -203 c 1,89,90
 368 -223 368 -223 376 -250 c 0,91,92
 390 -297 390 -297 390 -359 c 0,93,94
 391 -444 391 -444 356 -525 c 1,95,-1
 360 -521 l 1,96,97
 368 -541 368 -541 376 -567 c 0,98,99
 390 -614 390 -614 390 -677 c 0,100,101
 391 -756 391 -756 360 -830 c 1,102,103
 368 -850 368 -850 376 -876 c 0,104,105
 390 -923 390 -923 390 -986 c 0,106,107
 391 -1067 391 -1067 359 -1144 c 1,108,-1
 360 -1143 l 1,109,110
 368 -1163 368 -1163 376 -1189 c 0,111,112
 390 -1236 390 -1236 390 -1298 c 0,113,114
 391 -1443 391 -1443 289 -1577 c 1,115,-1
 200 -1682 l 1,116,-1
 151 -1741 l 1,117,-1
 116 -1784 l 2,118,119
 88 -1819 88 -1819 71 -1878 c 0,120,121
 63 -1907 63 -1907 52 -1941 c 0,122,123
 44 -1967 44 -1967 39 -2016 c 1,124,-1
 0 -2015 l 1,125,-1
 0 -1703 l 1,126,-1
 0 -1574 l 1,127,-1
 0 -1394 l 1,128,-1
 -1 -1394 l 1,129,-1
 0 -1076 l 1,64,-1
71 -599 m 0,130,131
 67 -620 67 -620 59 -646 c 0,132,133
 58 -650 58 -650 50 -690 c 1,134,135
 96 -685 96 -685 154 -653 c 0,136,137
 208 -622 208 -622 252 -568 c 1,138,139
 302 -514 302 -514 322 -453 c 2,140,-1
 338 -404 l 1,141,-1
 345 -371 l 1,142,-1
 345 -330 l 1,143,-1
 344 -306 l 1,144,-1
 335 -246 l 1,145,146
 327 -263 327 -263 316 -280 c 0,147,148
 304 -297 304 -297 288 -320 c 1,149,-1
 193 -421 l 1,150,-1
 148 -471 l 1,151,-1
 113 -517 l 2,152,153
 99 -535 99 -535 86 -554 c 0,154,155
 77 -571 77 -571 71 -599 c 0,130,131
336 -881 m 1,156,157
 316 -918 316 -918 289 -954 c 2,158,-1
 199 -1060 l 1,159,-1
 151 -1119 l 1,160,-1
 115 -1163 l 2,161,162
 87 -1198 87 -1198 71 -1257 c 0,163,164
 63 -1284 63 -1284 53 -1316 c 1,165,166
 98 -1310 98 -1310 154 -1279 c 0,167,168
 208 -1248 208 -1248 252 -1195 c 0,169,170
 302 -1141 302 -1141 322 -1079 c 2,171,-1
 338 -1031 l 1,172,-1
 345 -998 l 1,173,-1
 345 -957 l 1,174,-1
 344 -933 l 1,175,-1
 336 -881 l 1,156,157
EndSplineSet
EndChar

StartChar: d
Encoding: 100 100 38
Width: 428
VWidth: 2047
Flags: W
LayerCount: 2
Fore
SplineSet
336 -881 m 1,0,1
 316 -918 316 -918 289 -954 c 2,2,-1
 199 -1060 l 1,3,-1
 151 -1119 l 1,4,-1
 115 -1163 l 2,5,6
 87 -1198 87 -1198 71 -1257 c 0,7,8
 63 -1284 63 -1284 53 -1316 c 1,9,10
 98 -1310 98 -1310 154 -1279 c 0,11,12
 208 -1248 208 -1248 252 -1195 c 0,13,14
 302 -1141 302 -1141 322 -1079 c 2,15,-1
 338 -1031 l 1,16,-1
 345 -998 l 1,17,-1
 345 -957 l 1,18,-1
 344 -933 l 1,19,-1
 336 -881 l 1,0,1
71 -599 m 0,20,21
 67 -620 67 -620 59 -646 c 0,22,23
 58 -650 58 -650 50 -690 c 1,24,25
 96 -685 96 -685 154 -653 c 0,26,27
 208 -622 208 -622 252 -568 c 1,28,29
 302 -514 302 -514 322 -453 c 2,30,-1
 338 -404 l 1,31,-1
 345 -371 l 1,32,-1
 345 -330 l 1,33,-1
 344 -306 l 1,34,-1
 335 -246 l 1,35,36
 327 -263 327 -263 316 -280 c 0,37,38
 304 -297 304 -297 288 -320 c 1,39,-1
 193 -421 l 1,40,-1
 148 -471 l 1,41,-1
 113 -517 l 2,42,43
 99 -535 99 -535 86 -554 c 0,44,45
 77 -571 77 -571 71 -599 c 0,20,21
0 -1076 m 1,46,-1
 0 124 l 2,47,48
 0 188 0 188 45 245 c 1,49,50
 72 289 72 289 147 325 c 0,51,52
 215 358 215 358 281 358 c 0,53,54
 341 358 341 358 383 325 c 0,55,56
 426 291 426 291 426 233 c 0,57,58
 426 202 426 202 417 172.5 c 128,-1,59
 408 143 408 143 385 116 c 0,60,61
 365 91 365 91 339 69 c 0,62,63
 338 68 338 68 337 67 c 2,64,-1
 375 67 l 1,65,66
 382 39 382 39 387 10 c 0,67,68
 390 -19 390 -19 390 -43 c 0,69,70
 391 -135 391 -135 360 -203 c 1,71,72
 368 -223 368 -223 376 -250 c 0,73,74
 390 -297 390 -297 390 -359 c 0,75,76
 391 -444 391 -444 356 -525 c 1,77,-1
 360 -521 l 1,78,79
 368 -541 368 -541 376 -567 c 0,80,81
 390 -614 390 -614 390 -677 c 0,82,83
 391 -756 391 -756 360 -830 c 1,84,85
 368 -850 368 -850 376 -876 c 0,86,87
 390 -923 390 -923 390 -986 c 0,88,89
 391 -1131 391 -1131 289 -1263 c 1,90,-1
 200 -1369 l 1,91,-1
 151 -1428 l 1,92,-1
 116 -1472 l 2,93,94
 88 -1507 88 -1507 71 -1566 c 0,95,96
 63 -1595 63 -1595 52 -1629 c 0,97,98
 44 -1655 44 -1655 39 -1704 c 1,99,-1
 0 -1703 l 1,100,-1
 0 -1394 l 1,101,-1
 -1 -1394 l 1,102,-1
 0 -1076 l 1,46,-1
336 66 m 1,103,104
 311 45 311 45 279 30 c 0,105,106
 211 -1 211 -1 156 -1 c 0,107,108
 68 -1 68 -1 35 32 c 1,109,-1
 36 -374 l 1,110,111
 61 -374 61 -374 93 -364 c 0,112,113
 124 -354 124 -354 153 -337 c 0,114,115
 205 -305 205 -305 251 -250 c 0,116,117
 281 -213 281 -213 292 -196 c 0,118,119
 313 -164 313 -164 321 -138 c 2,120,-1
 337 -86 l 1,121,-1
 344 -56 l 1,122,-1
 344 -15 l 1,123,-1
 342 10 l 1,124,-1
 336 66 l 1,103,104
335 -567 m 1,125,126
 315 -602 315 -602 289 -637 c 2,127,-1
 200 -742 l 1,128,-1
 151 -801 l 1,129,-1
 116 -845 l 2,130,131
 89 -878 89 -878 71 -939 c 0,132,133
 62 -968 62 -968 52 -1002 c 0,134,135
 51 -1005 51 -1005 51 -1008 c 1,136,137
 96 -1003 96 -1003 154 -970 c 0,138,139
 208 -939 208 -939 252 -886 c 0,140,141
 302 -832 302 -832 321 -770 c 2,142,-1
 337 -722 l 1,143,-1
 345 -689 l 1,144,-1
 345 -648 l 1,145,-1
 343 -624 l 1,146,-1
 335 -567 l 1,125,126
EndSplineSet
EndChar

StartChar: e
Encoding: 101 101 39
Width: 428
VWidth: 2047
Flags: W
LayerCount: 2
Fore
SplineSet
335 -567 m 1,0,1
 315 -602 315 -602 289 -637 c 2,2,-1
 200 -742 l 1,3,-1
 151 -801 l 1,4,-1
 116 -845 l 2,5,6
 89 -878 89 -878 71 -939 c 0,7,8
 62 -968 62 -968 52 -1002 c 0,9,10
 51 -1005 51 -1005 51 -1008 c 1,11,12
 96 -1003 96 -1003 154 -970 c 0,13,14
 208 -939 208 -939 252 -886 c 0,15,16
 302 -832 302 -832 321 -770 c 2,17,-1
 337 -722 l 1,18,-1
 345 -689 l 1,19,-1
 345 -648 l 1,20,-1
 343 -624 l 1,21,-1
 335 -567 l 1,0,1
336 66 m 1,22,23
 311 45 311 45 279 30 c 0,24,25
 211 -1 211 -1 156 -1 c 0,26,27
 68 -1 68 -1 35 32 c 1,28,-1
 36 -374 l 1,29,30
 61 -374 61 -374 93 -364 c 0,31,32
 124 -354 124 -354 153 -337 c 0,33,34
 205 -305 205 -305 251 -250 c 0,35,36
 281 -213 281 -213 292 -196 c 0,37,38
 313 -164 313 -164 321 -138 c 2,39,-1
 337 -86 l 1,40,-1
 344 -56 l 1,41,-1
 344 -15 l 1,42,-1
 342 10 l 1,43,-1
 336 66 l 1,22,23
0 -1076 m 1,44,-1
 0 124 l 2,45,46
 0 188 0 188 45 245 c 1,47,48
 72 289 72 289 147 325 c 0,49,50
 215 358 215 358 281 358 c 0,51,52
 341 358 341 358 383 325 c 0,53,54
 426 291 426 291 426 233 c 0,55,56
 426 202 426 202 417 172.5 c 128,-1,57
 408 143 408 143 385 116 c 0,58,59
 365 91 365 91 339 69 c 0,60,61
 338 68 338 68 337 67 c 2,62,-1
 375 67 l 1,63,64
 382 39 382 39 387 10 c 0,65,66
 390 -19 390 -19 390 -43 c 0,67,68
 391 -135 391 -135 360 -203 c 1,69,70
 368 -223 368 -223 376 -250 c 0,71,72
 390 -297 390 -297 390 -359 c 0,73,74
 391 -444 391 -444 356 -525 c 1,75,-1
 360 -521 l 1,76,77
 368 -541 368 -541 376 -567 c 0,78,79
 390 -614 390 -614 390 -677 c 0,80,81
 391 -822 391 -822 289 -954 c 1,82,-1
 199 -1060 l 1,83,-1
 151 -1119 l 1,84,-1
 115 -1163 l 2,85,86
 87 -1198 87 -1198 71 -1257 c 0,87,88
 63 -1286 63 -1286 52 -1320 c 0,89,90
 44 -1346 44 -1346 38 -1395 c 1,91,-1
 -1 -1394 l 1,92,-1
 0 -1076 l 1,44,-1
71 -599 m 0,93,94
 67 -620 67 -620 59 -646 c 0,95,96
 58 -650 58 -650 50 -690 c 1,97,98
 96 -685 96 -685 154 -653 c 0,99,100
 208 -622 208 -622 252 -568 c 1,101,102
 302 -514 302 -514 322 -453 c 2,103,-1
 338 -404 l 1,104,-1
 345 -371 l 1,105,-1
 345 -330 l 1,106,-1
 344 -306 l 1,107,-1
 335 -246 l 1,108,109
 327 -263 327 -263 316 -280 c 0,110,111
 304 -297 304 -297 288 -320 c 1,112,-1
 193 -421 l 1,113,-1
 148 -471 l 1,114,-1
 113 -517 l 2,115,116
 99 -535 99 -535 86 -554 c 0,117,118
 77 -571 77 -571 71 -599 c 0,93,94
EndSplineSet
EndChar

StartChar: f
Encoding: 102 102 40
Width: 428
VWidth: 2047
Flags: W
LayerCount: 2
Fore
SplineSet
71 -599 m 0,0,1
 67 -620 67 -620 59 -646 c 0,2,3
 58 -650 58 -650 50 -690 c 1,4,5
 96 -685 96 -685 154 -653 c 0,6,7
 208 -622 208 -622 252 -568 c 1,8,9
 302 -514 302 -514 322 -453 c 2,10,-1
 338 -404 l 1,11,-1
 345 -371 l 1,12,-1
 345 -330 l 1,13,-1
 344 -306 l 1,14,-1
 335 -246 l 1,15,16
 327 -263 327 -263 316 -280 c 0,17,18
 304 -297 304 -297 288 -320 c 1,19,-1
 193 -421 l 1,20,-1
 148 -471 l 1,21,-1
 113 -517 l 2,22,23
 99 -535 99 -535 86 -554 c 0,24,25
 77 -571 77 -571 71 -599 c 0,0,1
0 -1076 m 1,26,-1
 0 124 l 2,27,28
 0 188 0 188 45 245 c 1,29,30
 72 289 72 289 147 325 c 0,31,32
 215 358 215 358 281 358 c 0,33,34
 341 358 341 358 383 325 c 0,35,36
 426 291 426 291 426 233 c 0,37,38
 426 202 426 202 417 172.5 c 128,-1,39
 408 143 408 143 385 116 c 0,40,41
 365 91 365 91 339 68.5 c 0,42,43
 338.129119821 67.7463536909 338.129119821 67.7463536909 337.249264111 67 c 2,44,-1
 375 67 l 1,45,46
 382 39 382 39 387 10 c 0,47,48
 390 -19 390 -19 390 -43 c 0,49,50
 391 -135 391 -135 360 -203 c 1,51,52
 368 -223 368 -223 376 -250 c 0,53,54
 390 -297 390 -297 390 -359 c 0,55,56
 391 -504 391 -504 289 -637 c 1,57,-1
 200 -742 l 1,58,-1
 151 -801 l 1,59,-1
 116 -845 l 2,60,61
 89 -878 89 -878 71 -939 c 0,62,63
 62 -968 62 -968 52 -1002 c 0,64,65
 44 -1028 44 -1028 39 -1077 c 1,66,-1
 0 -1076 l 1,26,-1
336.101796232 66.0329357993 m 1,67,68
 311.120996425 45.1157630235 311.120996425 45.1157630235 279 30 c 0,69,70
 211 -1 211 -1 156 -1 c 0,71,72
 68 -1 68 -1 35 32 c 1,73,-1
 36 -374 l 1,74,75
 61 -374 61 -374 93 -364 c 0,76,77
 124 -354 124 -354 153 -337 c 0,78,79
 205 -305 205 -305 251 -250 c 0,80,81
 281 -213 281 -213 292 -196 c 0,82,83
 313 -164 313 -164 321 -138 c 2,84,-1
 337 -86 l 1,85,-1
 344 -56 l 1,86,-1
 344 -15 l 1,87,-1
 342 10 l 1,88,-1
 336.101796232 66.0329357993 l 1,67,68
EndSplineSet
EndChar

StartChar: g
Encoding: 103 103 41
Width: 428
VWidth: 2047
Flags: W
LayerCount: 2
Fore
SplineSet
35 -687 m 5,0,1
 59 -687 59 -687 91 -676.5 c 132,-1,2
 123 -666 123 -666 152 -651 c 4,3,4
 207 -622 207 -622 250 -566 c 5,5,6
 299 -515 299 -515 319 -451 c 4,7,8
 328 -427 328 -427 332 -414.5 c 132,-1,9
 336 -402 336 -402 337 -398.5 c 132,-1,10
 338 -395 338 -395 339 -386.5 c 132,-1,11
 340 -378 340 -378 344 -370 c 5,12,-1
 344 -329 l 5,13,-1
 342 -305 l 5,14,-1
 336 -250 l 6,15,16
 332 -227 332 -227 325.5 -208 c 132,-1,17
 319 -189 319 -189 313 -171 c 6,18,-1
 279 -81 l 5,19,-1
 309 -83 l 5,20,21
 326 -111 326 -111 335 -135.5 c 132,-1,22
 344 -160 344 -160 358 -194 c 4,23,24
 377 -239 377 -239 383 -280.5 c 132,-1,25
 389 -322 389 -322 389 -358 c 4,26,27
 389 -504 389 -504 287 -636 c 5,28,-1
 197 -740 l 5,29,-1
 147 -800 l 5,30,-1
 113 -844 l 6,31,32
 84 -885 84 -885 68 -938 c 4,33,34
 57 -966 57 -966 48 -999.5 c 132,-1,35
 39 -1033 39 -1033 35 -1075 c 5,36,-1
 0 -1075 l 5,37,-1
 0 125 l 6,38,39
 0 189 0 189 45 247 c 5,40,41
 74 294 74 294 147 326 c 4,42,43
 211 359 211 359 281 360 c 4,44,45
 344 360 344 360 383 326 c 4,46,47
 426 295 426 295 426 235 c 4,48,49
 426 204 426 204 417 174 c 132,-1,50
 408 144 408 144 385 117 c 4,51,52
 365 92 365 92 339 69.5 c 132,-1,53
 313 47 313 47 279 32 c 4,54,55
 211 1 211 1 156 1 c 4,56,57
 68 1 68 1 35 33 c 5,58,-1
 35 -687 l 5,0,1
EndSplineSet
EndChar

StartChar: h
Encoding: 104 104 42
Width: 428
VWidth: 2047
Flags: W
LayerCount: 2
Fore
SplineSet
35 -1075 m 5,0,-1
 0 -1075 l 5,1,-1
 0 125 l 6,2,3
 0 189 0 189 45 247 c 5,4,5
 74 294 74 294 147 326 c 4,6,7
 211 359 211 359 281 360 c 4,8,9
 344 360 344 360 383 326 c 4,10,11
 426 295 426 295 426 235 c 4,12,13
 426 204 426 204 417 174 c 132,-1,14
 408 144 408 144 385 117 c 4,15,16
 365 92 365 92 339 69.5 c 132,-1,17
 313 47 313 47 279 32 c 4,18,19
 211 1 211 1 156 1 c 4,20,21
 68 1 68 1 35 33 c 5,22,-1
 35 -1075 l 5,0,-1
EndSplineSet
EndChar

StartChar: i
Encoding: 105 105 43
Width: 428
VWidth: 2047
Flags: W
LayerCount: 2
Fore
SplineSet
35 -1075 m 5,0,-1
 0 -1075 l 5,1,-1
 0 125 l 6,2,3
 0 189 0 189 45 247 c 5,4,5
 74 294 74 294 147 326 c 4,6,7
 211 359 211 359 281 360 c 4,8,9
 344 360 344 360 383 326 c 4,10,11
 426 295 426 295 426 235 c 4,12,13
 426 204 426 204 417 174 c 132,-1,14
 408 144 408 144 385 117 c 4,15,16
 365 92 365 92 339 69.5 c 132,-1,17
 313 47 313 47 279 32 c 4,18,19
 211 1 211 1 156 1 c 4,20,21
 68 1 68 1 35 33 c 5,22,-1
 35 -1075 l 5,0,-1
131 207 m 4,23,24
 104 188 104 188 74 149 c 4,25,26
 37 102 37 102 37 80 c 5,27,28
 43 56 43 56 76 42 c 5,29,30
 115 42 115 42 154 64 c 5,31,32
 186 74 186 74 254 122 c 4,33,34
 283 143 283 143 289 148 c 4,35,36
 302 159 302 159 330 192 c 4,37,38
 377 245 377 245 377 277 c 4,39,40
 377 301 377 301 346 312 c 5,41,42
 281 312 281 312 131 207 c 4,23,24
EndSplineSet
EndChar

StartChar: j
Encoding: 106 106 44
Width: 592
VWidth: 2047
Flags: W
LayerCount: 2
Fore
SplineSet
181 210 m 4,0,1
 181 184 181 184 182.5 173.5 c 132,-1,2
 184 163 184 163 193 139 c 4,3,4
 200 126 200 126 207.5 111.5 c 132,-1,5
 215 97 215 97 227 82 c 4,6,7
 269 30 269 30 330 31 c 5,8,9
 377 36 377 36 396 60 c 4,10,11
 412 81 412 81 411 150 c 4,12,13
 411 167 411 167 407.5 184.5 c 132,-1,14
 404 202 404 202 400 217 c 4,15,16
 395 234 395 234 385 249 c 132,-1,17
 375 264 375 264 363 278 c 4,18,19
 323 329 323 329 259 329 c 5,20,21
 219 324 219 324 200 300 c 132,-1,22
 181 276 181 276 181 210 c 4,0,1
2 180 m 260,23,24
 2 245 2 245 53 285 c 4,25,26
 104 326 104 326 167 341 c 4,27,28
 180 344 180 344 196 346.5 c 132,-1,29
 212 349 212 349 229 353 c 4,30,31
 261 358 261 358 290 358 c 4,32,33
 361 358 361 358 419 341 c 5,34,35
 486 327 486 327 539 285 c 5,36,37
 593 248 593 248 592 180 c 4,38,39
 592 121 592 121 546 79 c 4,40,41
 501 40 501 40 431 20 c 4,42,43
 396 9 396 9 363 5.5 c 132,-1,44
 330 2 330 2 300 2 c 4,45,46
 240 2 240 2 172 18 c 132,-1,47
 104 34 104 34 53 74 c 4,48,49
 2 115 2 115 2 180 c 260,23,24
EndSplineSet
EndChar

StartChar: k
Encoding: 107 107 45
Width: 1022
VWidth: 2047
Flags: W
LayerCount: 2
Fore
SplineSet
793 372 m 1,0,-1
 874 372 l 1,1,-1
 874 -10 l 1,2,-1
 793 -10 l 1,3,-1
 793 163 l 1,4,5
 786 110 786 110 747 77 c 0,6,7
 724 56 724 56 697 42 c 128,-1,8
 670 28 670 28 638 19 c 0,9,10
 605 7 605 7 575.5 3 c 128,-1,11
 546 -1 546 -1 517 -1 c 2,12,-1
 490 -1 l 2,13,14
 466 -1 466 -1 463 1 c 0,15,16
 451 1 451 1 434 5 c 128,-1,17
 417 9 417 9 396 14 c 0,18,19
 334 31 334 31 285 76 c 1,20,21
 245 109 245 109 236 159 c 1,22,-1
 236 -10 l 1,23,-1
 155 -10 l 1,24,-1
 155 372 l 1,25,-1
 236 372 l 1,26,-1
 236 202 l 1,27,28
 243 248 243 248 280 282 c 0,29,30
 302 301 302 301 330 316.5 c 128,-1,31
 358 332 358 332 392 341 c 0,32,33
 479 362 479 362 510 362 c 0,34,35
 578 362 578 362 631 343 c 0,36,37
 662 335 662 335 691 322 c 128,-1,38
 720 309 720 309 745 289 c 0,39,40
 786 251 786 251 793 199 c 1,41,-1
 793 372 l 1,0,-1
404 189 m 2,42,43
 404 176 404 176 406 166.5 c 128,-1,44
 408 157 408 157 417 137 c 0,45,46
 424 121 424 121 431 109 c 128,-1,47
 438 97 438 97 449 81 c 0,48,49
 492 26 492 26 546 26 c 1,50,51
 589 34 589 34 602 59 c 0,52,53
 608 65 608 65 617 91 c 0,54,55
 623 108 623 108 622 149 c 0,56,57
 622 223 622 223 580 280 c 1,58,59
 533 332 533 332 481 332 c 0,60,61
 440 330 440 330 420 300 c 0,62,63
 404 277 404 277 404 213 c 2,64,-1
 404 189 l 2,42,43
939 372 m 1,65,-1
 1022 372 l 5,66,-1
 1022 -10 l 1,67,-1
 939 -10 l 1,68,-1
 939 372 l 1,65,-1
-0 372 m 1,69,-1
 82 372 l 1,70,-1
 82 -10 l 1,71,-1
 -0 -10 l 1,72,-1
 -0 372 l 1,69,-1
EndSplineSet
EndChar

StartChar: l
Encoding: 108 108 46
Width: 670
VWidth: 2047
Flags: W
LayerCount: 2
Fore
SplineSet
39 180 m 0,0,1
 39 243 39 243 91 285 c 0,2,3
 145 328 145 328 204 341 c 0,4,5
 217 344 217 344 234 347 c 0,6,7
 250 350 250 350 266 353 c 0,8,9
 298 358 298 358 328 358 c 0,10,11
 399 358 399 358 456 341 c 1,12,13
 523 327 523 327 576 285 c 0,14,15
 622.599118767 252.468539729 622.599118767 252.468539729 629 195.972745544 c 1,16,-1
 629 403 l 1,17,-1
 670 403 l 5,18,-1
 670 -43 l 1,19,-1
 629 -43 l 1,20,-1
 629 162.900456339 l 1,21,22
 623.1443454 114.019535349 623.1443454 114.019535349 583 79 c 0,23,24
 539 41 539 41 468 20 c 0,25,26
 429 9 429 9 400 6 c 0,27,28
 367 2 367 2 337 2 c 0,29,30
 276 2 276 2 209 18 c 0,31,32
 143 33 143 33 91 74 c 128,-1,33
 39 115 39 115 39 180 c 0,0,1
218 210 m 0,34,35
 218 184 218 184 220 174 c 0,36,37
 222 163 222 163 230 139 c 0,38,39
 237 126 237 126 245 111 c 0,40,41
 253 97 253 97 265 82 c 0,42,43
 306 30 306 30 367 31 c 1,44,45
 414 36 414 36 433 60 c 0,46,47
 449 80 449 80 449 150 c 0,48,49
 449 167 449 167 445 185 c 0,50,51
 442 202 442 202 437 217 c 0,52,53
 432 234 432 234 422 249 c 128,-1,54
 412 264 412 264 400 278 c 0,55,56
 360 329 360 329 296 329 c 1,57,58
 256 324 256 324 237 300 c 0,59,60
 218 277 218 277 218 210 c 0,34,35
0 403 m 1,61,-1
 37 403 l 1,62,-1
 37 -1081 l 1,63,-1
 0 -1081 l 1,64,-1
 0 403 l 1,61,-1
EndSplineSet
EndChar

StartChar: m
Encoding: 109 109 47
Width: 1127
VWidth: 2047
Flags: W
LayerCount: 2
Fore
SplineSet
0 536 m 1,0,-1
 37 536 l 1,1,-1
 37 360 l 1,2,-1
 1086.48854962 360 l 1,3,-1
 1086 536 l 1,4,-1
 1127 536 l 1,5,-1
 1127 -905 l 5,6,-1
 1090 -905 l 1,7,-1
 1087.48507981 1 l 1,8,-1
 37 1 l 1,9,-1
 37 -185 l 1,10,-1
 0 -185 l 1,11,-1
 0 536 l 1,0,-1
1086.80499653 246 m 1,12,-1
 37 246 l 1,13,-1
 37 116 l 1,14,-1
 1087.16585704 116 l 1,15,-1
 1086.80499653 246 l 1,12,-1
EndSplineSet
EndChar

StartChar: o
Encoding: 111 111 48
Width: 723
VWidth: 2047
Flags: W
LayerCount: 2
Fore
SplineSet
464 988 m 1,0,1
 547 1293 l 1,2,3
 465 1248 465 1248 415 1249 c 0,4,5
 376 1249 376 1249 337 1280 c 0,6,7
 305 1305 305 1305 305 1347 c 0,8,9
 305 1385 305 1385 329.5 1414 c 0,10,11
 352.772460938 1441.546875 352.772460938 1441.546875 392 1443 c 0,12,13
 419 1444 419 1444 450 1413 c 1,14,15
 470 1385 470 1385 470 1347 c 1,16,-1
 465 1331 l 1,17,-1
 459 1314 l 1,18,19
 461 1301 461 1301 479 1300 c 0,20,21
 499 1299 499 1299 565 1353 c 1,22,-1
 648 1650 l 1,23,-1
 578 1619 l 1,24,-1
 549 1611 l 1,25,-1
 517 1609 l 2,26,27
 475 1606 475 1606 439 1636 c 0,28,29
 403 1665 403 1665 404 1705 c 0,30,31
 404 1741 404 1741 424 1767 c 128,-1,32
 444 1793 444 1793 479 1799 c 1,33,34
 524 1799 524 1799 550 1773 c 1,35,36
 573 1744 573 1744 573 1711 c 0,37,38
 573 1701 573 1701 572.5 1695 c 128,-1,39
 572 1689 572 1689 566 1666 c 1,40,-1
 579 1660 l 1,41,42
 651 1683 651 1683 703 1767 c 1,43,-1
 723 1767 l 1,44,-1
 639 1469 l 1,45,-1
 200 -124 l 1,46,-1
 156 -124 l 1,47,-1
 248 209 l 1,48,49
 165 164 165 164 117 165 c 0,50,51
 71 165 71 165 33 196 c 0,52,53
 -1 223 -1 223 0 263 c 0,54,55
 0 292 0 292 30 330 c 0,56,57
 52 358 52 358 94 359 c 0,58,59
 121 359 121 359 151 329 c 1,60,61
 173 301 173 301 172 263 c 1,62,-1
 166 247 l 1,63,-1
 160 230 l 1,64,65
 162 217 162 217 174 216 c 0,66,67
 199 215 199 215 263 267 c 1,68,-1
 347 572 l 1,69,70
 266 527 266 527 215 527 c 0,71,72
 176 527 176 527 137 558 c 0,73,74
 104 584 104 584 104 626 c 0,75,76
 104 663 104 663 128.5 692.5 c 128,-1,77
 153 722 153 722 192 722 c 0,78,79
 221.741210938 722 221.741210938 722 249 691 c 0,80,81
 270 667 270 667 270 626 c 1,82,-1
 265 610 l 1,83,-1
 258 593 l 1,84,85
 260 579 260 579 272 578 c 0,86,87
 298 577 298 577 363 631 c 1,88,-1
 450 931 l 1,89,90
 369 886 369 886 318 886 c 0,91,92
 279 886 279 886 240 917 c 0,93,94
 208 943 208 943 207 984 c 0,95,96
 207 1021 207 1021 231.5 1050.5 c 128,-1,97
 256 1080 256 1080 295 1080 c 0,98,99
 322 1080 322 1080 352 1050 c 1,100,101
 372 1024 372 1024 373 984 c 1,102,-1
 367 968 l 1,103,-1
 360 951 l 1,104,105
 363 939 363 939 381 938 c 0,106,107
 400 936 400 936 464 988 c 1,0,1
EndSplineSet
EndChar

StartChar: p
Encoding: 112 112 49
Width: 618
VWidth: 2047
Flags: W
LayerCount: 2
Fore
SplineSet
443 931 m 1,0,1
 361 886 361 886 311 886 c 0,2,3
 272 886 272 886 233 917 c 0,4,5
 200 943 200 943 199 984 c 0,6,7
 199 1021 199 1021 223.5 1050.5 c 128,-1,8
 248 1080 248 1080 287 1080 c 0,9,10
 314 1080 314 1080 344 1050 c 1,11,12
 365 1023 365 1023 366 984 c 1,13,-1
 360 968 l 1,14,-1
 353 951 l 1,15,16
 355 938 355 938 373 938 c 0,17,18
 393 937 393 937 460 990 c 1,19,-1
 543 1291 l 1,20,-1
 473 1261 l 1,21,-1
 444 1252 l 1,22,-1
 411 1251 l 2,23,24
 368 1249 368 1249 334 1278 c 0,25,26
 299 1307 299 1307 299 1346 c 0,27,28
 299 1381 299 1381 319.5 1408 c 128,-1,29
 340 1435 340 1435 375 1441 c 1,30,31
 420 1441 420 1441 446 1414 c 1,32,33
 469 1385 469 1385 469 1353 c 0,34,35
 469 1343 469 1343 468 1336.5 c 128,-1,36
 467 1330 467 1330 460 1308 c 1,37,-1
 475 1301 l 1,38,39
 547 1324 547 1324 598 1409 c 1,40,-1
 618 1409 l 1,41,-1
 125 -363 l 1,42,-1
 81 -363 l 1,43,-1
 242 211 l 1,44,45
 159 166 159 166 111 167 c 0,46,47
 71 168 71 168 33 198 c 0,48,49
 -1 225 -1 225 0 265 c 0,50,51
 1 301 1 301 24 332 c 0,52,53
 46 360 46 360 88 361 c 0,54,55
 114 362 114 362 145 331 c 1,56,57
 167 303 167 303 166 265 c 1,58,-1
 160 249 l 1,59,-1
 154 232 l 1,60,61
 157 219 157 219 168 218 c 0,62,63
 193 217 193 217 257 269 c 1,64,-1
 340 571 l 1,65,66
 259 526 259 526 208 526 c 0,67,68
 169 526 169 526 130 557 c 0,69,70
 97 583 97 583 98 624 c 0,71,72
 98 661 98 661 122.5 690.5 c 128,-1,73
 147 720 147 720 186 720 c 0,74,75
 213 720 213 720 243 690 c 1,76,77
 264 663 264 663 263 624 c 1,78,-1
 258 608 l 1,79,-1
 252 591 l 1,80,81
 254 577 254 577 265 577 c 0,82,83
 291 576 291 576 357 630 c 1,84,-1
 443 931 l 1,0,1
EndSplineSet
EndChar

StartChar: q
Encoding: 113 113 50
Width: 519
VWidth: 2047
Flags: W
LayerCount: 2
Fore
SplineSet
343 933 m 1,0,1
 261 888 261 888 211 888 c 0,2,3
 172 888 172 888 133 919 c 0,4,5
 100 945 100 945 100 986 c 0,6,7
 100 1023 100 1023 124.5 1053 c 128,-1,8
 149 1083 149 1083 188 1083 c 0,9,10
 215 1083 215 1083 245 1052 c 1,11,12
 266 1025 266 1025 266 986 c 1,13,-1
 260 970 l 1,14,-1
 254 953 l 1,15,16
 256 940 256 940 274 940 c 0,17,18
 294 939 294 939 360 992 c 1,19,-1
 444 1293 l 1,20,-1
 374 1262 l 1,21,-1
 345 1254 l 1,22,-1
 312 1252 l 2,23,24
 269 1250 269 1250 235 1279 c 0,25,26
 200 1308 200 1308 200 1348 c 0,27,28
 200 1383 200 1383 220.5 1409.5 c 128,-1,29
 241 1436 241 1436 276 1443 c 1,30,31
 321 1443 321 1443 347 1416 c 1,32,33
 370 1387 370 1387 370 1354 c 0,34,35
 370 1344 370 1344 369 1338 c 128,-1,36
 368 1332 368 1332 361 1309 c 1,37,-1
 376 1303 l 1,38,39
 448 1326 448 1326 499 1411 c 1,40,-1
 519 1411 l 1,41,-1
 134 1 l 1,42,-1
 90 1 l 1,43,-1
 242 569 l 1,44,45
 161 524 161 524 110 525 c 0,46,47
 71 525 71 525 32 556 c 0,48,49
 -1 582 -1 582 0 623 c 0,50,51
 0 660 0 660 24.5 689.5 c 128,-1,52
 49 719 49 719 88 719 c 0,53,54
 115 719 115 719 145 689 c 1,55,56
 166 662 166 662 165 623 c 1,57,-1
 160 607 l 1,58,-1
 154 590 l 1,59,60
 156 576 156 576 167 576 c 0,61,62
 193 575 193 575 259 629 c 1,63,-1
 343 933 l 1,0,1
EndSplineSet
EndChar

StartChar: r
Encoding: 114 114 51
Width: 419
VWidth: 2047
Flags: W
LayerCount: 2
Fore
SplineSet
345 933 m 1,0,-1
 274 902 l 1,1,-1
 245 894 l 1,2,-1
 213 892 l 2,3,4
 172 889 172 889 135 919 c 0,5,6
 100 948 100 948 100 988 c 0,7,8
 100 1023 100 1023 121 1049.5 c 128,-1,9
 142 1076 142 1076 176 1082 c 1,10,11
 221 1082 221 1082 247 1056 c 1,12,13
 270 1027 270 1027 270 994 c 0,14,15
 270 984 270 984 269 978 c 128,-1,16
 268 972 268 972 262 949 c 1,17,-1
 277 943 l 1,18,19
 349 966 349 966 399 1050 c 1,20,-1
 419 1050 l 1,21,-1
 129 1 l 1,22,-1
 85 1 l 1,23,-1
 244 571 l 1,24,25
 160 525 160 525 110 525 c 0,26,27
 70 525 70 525 32 556 c 0,28,29
 -1 583 -1 583 0 624 c 0,30,31
 0 661 0 661 24.5 690.5 c 128,-1,32
 49 720 49 720 88 720 c 0,33,34
 115 720 115 720 145 689 c 1,35,36
 166 662 166 662 165 624 c 1,37,-1
 160 607 l 1,38,-1
 154 591 l 1,39,40
 156 578 156 578 174 576 c 0,41,42
 194 575 194 575 260 630 c 1,43,-1
 345 933 l 1,0,-1
EndSplineSet
EndChar

StartChar: s
Encoding: 115 115 52
Width: 319
VWidth: 2047
Flags: W
LayerCount: 2
Fore
SplineSet
244 933 m 1,0,-1
 174 902 l 1,1,-1
 145 895 l 1,2,-1
 113 892 l 2,3,4
 72 889 72 889 35 920 c 0,5,6
 0 949 0 949 0 989 c 0,7,8
 0 1024 0 1024 20.5 1050 c 128,-1,9
 41 1076 41 1076 76 1083 c 1,10,11
 121 1083 121 1083 147 1057 c 1,12,13
 170 1028 170 1028 170 994 c 0,14,15
 170 984 170 984 169 978 c 128,-1,16
 168 972 168 972 162 950 c 1,17,-1
 176 943 l 1,18,19
 248 966 248 966 299 1050 c 1,20,-1
 319 1050 l 1,21,-1
 134 360 l 1,22,-1
 91 360 l 1,23,-1
 244 933 l 1,0,-1
EndSplineSet
EndChar

StartChar: t
Encoding: 116 116 53
Width: 363
VWidth: 2047
Flags: W
LayerCount: 2
Fore
SplineSet
363 971 m 1,0,1
 323 924 323 924 295 886 c 128,-1,2
 267 848 267 848 249 817 c 0,3,4
 216 754 216 754 216 702 c 0,5,6
 216 655 216 655 253 592 c 2,7,-1
 296 524 l 2,8,9
 300 520 300 520 304 513 c 128,-1,10
 308 506 308 506 318 496 c 0,11,12
 329 481 329 481 338 470 c 128,-1,13
 347 459 347 459 357 444 c 1,14,-1
 333 416 l 1,15,16
 323 422 323 422 308.5 429 c 128,-1,17
 294 436 294 436 275 444 c 0,18,19
 255 449 255 449 242.5 452 c 128,-1,20
 230 455 230 455 220 455 c 0,21,22
 183 455 183 455 163 430 c 0,23,24
 144 401 144 401 138 365 c 1,25,26
 138 324 138 324 157 281 c 0,27,28
 167 260 167 260 179 239.5 c 128,-1,29
 191 219 191 219 210 203 c 1,30,-1
 191 174 l 1,31,32
 146 205 146 205 113.5 235.5 c 128,-1,33
 81 266 81 266 58 295 c 0,34,35
 30 326 30 326 15 362 c 0,36,37
 2 379 2 379 -0.5 395.5 c 128,-1,38
 -3 412 -3 412 0 428 c 0,39,40
 13 496 13 496 36 518 c 1,41,42
 75 551 75 551 130 551 c 0,43,44
 181 551 181 551 241 514 c 1,45,-1
 26 811 l 1,46,47
 95 877 95 877 132 935 c 128,-1,48
 169 993 169 993 169 1047 c 0,49,50
 169 1090 169 1090 145.5 1140 c 128,-1,51
 122 1190 122 1190 79 1249 c 1,52,-1
 136 1249 l 1,53,-1
 363 971 l 1,0,1
EndSplineSet
EndChar

StartChar: u
Encoding: 117 117 54
Width: 428
VWidth: 2047
Flags: W
LayerCount: 2
Fore
SplineSet
0 721 m 5,0,-1
 0 884 l 5,1,-1
 428 884 l 5,2,-1
 428 721 l 5,3,-1
 0 721 l 5,0,-1
EndSplineSet
EndChar

StartChar: v
Encoding: 118 118 55
Width: 428
VWidth: 2047
Flags: W
LayerCount: 2
Fore
SplineSet
0 917 m 5,0,-1
 0 1080 l 5,1,-1
 428 1080 l 5,2,-1
 428 917 l 5,3,-1
 0 917 l 5,0,-1
EndSplineSet
EndChar

StartChar: w
Encoding: 119 119 56
Width: 428
VWidth: 2047
Flags: W
LayerCount: 2
Fore
SplineSet
0 721 m 5,0,-1
 0 1080 l 5,1,-1
 428 1080 l 5,2,-1
 428 721 l 5,3,-1
 0 721 l 5,0,-1
EndSplineSet
EndChar

StartChar: x
Encoding: 120 120 57
Width: 428
VWidth: 2047
Flags: W
LayerCount: 2
Fore
SplineSet
0 361 m 5,0,-1
 0 1080 l 5,1,-1
 428 1080 l 5,2,-1
 428 361 l 5,3,-1
 0 361 l 5,0,-1
EndSplineSet
EndChar

StartChar: y
Encoding: 121 121 58
Width: 723
VWidth: 2047
Flags: W
LayerCount: 2
Fore
SplineSet
0 361 m 1,0,-1
 0 1080 l 1,1,-1
 723 1080 l 5,2,-1
 723 361 l 5,3,-1
 0 361 l 1,0,-1
EndSplineSet
EndChar

StartChar: quoteleft
Encoding: 8216 8216 59
Width: 512
VWidth: 2047
Flags: W
LayerCount: 2
Fore
SplineSet
102 1434 m 1,0,-1
 102 31 l 1,1,-1
 102 0 l 1,2,-1
 0 0 l 1,3,-1
 0 1403 l 1,4,-1
 0 1434 l 1,5,-1
 102 1434 l 1,0,-1
EndSplineSet
Validated: 1
EndChar

StartChar: quoteright
Encoding: 8217 8217 60
Width: 512
VWidth: 2047
Flags: W
LayerCount: 2
Fore
SplineSet
102 1434 m 1,0,-1
 102 31 l 1,1,-1
 102 0 l 1,2,-1
 0 0 l 1,3,-1
 0 1403 l 1,4,-1
 0 1434 l 1,5,-1
 102 1434 l 1,0,-1
EndSplineSet
Validated: 1
EndChar

StartChar: quotedblleft
Encoding: 8220 8220 61
Width: 512
VWidth: 2047
Flags: W
LayerCount: 2
Fore
SplineSet
102 0 m 1,0,-1
 0 0 l 1,1,-1
 0 1434 l 1,2,-1
 102 1434 l 1,3,-1
 102 0 l 1,0,-1
311 0 m 1,4,-1
 205 0 l 1,5,-1
 205 1434 l 1,6,-1
 311 1434 l 1,7,-1
 311 0 l 1,4,-1
EndSplineSet
Validated: 1
EndChar

StartChar: quotedblright
Encoding: 8221 8221 62
Width: 512
VWidth: 2047
Flags: W
LayerCount: 2
Fore
SplineSet
102 0 m 1,0,-1
 0 0 l 1,1,-1
 0 1434 l 1,2,-1
 102 1434 l 1,3,-1
 102 0 l 1,0,-1
311 0 m 1,4,-1
 205 0 l 1,5,-1
 205 1434 l 1,6,-1
 311 1434 l 1,7,-1
 311 0 l 1,4,-1
EndSplineSet
Validated: 1
EndChar

StartChar: endash
Encoding: 8211 8211 63
Width: 512
VWidth: 2047
Flags: W
LayerCount: 2
Fore
SplineSet
0 358 m 1,0,-1
 512 358 l 1,1,-1
 512 256 l 1,2,-1
 0 256 l 1,3,-1
 0 358 l 1,0,-1
EndSplineSet
Validated: 1
EndChar

StartChar: emdash
Encoding: 8212 8212 64
Width: 1024
VWidth: 2047
Flags: W
LayerCount: 2
Fore
SplineSet
0 358 m 1,0,-1
 1024 358 l 1,1,-1
 1024 256 l 1,2,-1
 0 256 l 1,3,-1
 0 358 l 1,0,-1
EndSplineSet
Validated: 1
EndChar

StartChar: yen
Encoding: 165 165 65
Width: 1024
VWidth: 2047
Flags: W
LayerCount: 2
Fore
SplineSet
453 -199 m 2,0,1
 367 -199 367 -199 288 -170 c 128,-1,2
 209 -141 209 -141 123 -80 c 0,3,4
 119 -80 119 -80 95.5 -43 c 128,-1,5
 72 -6 72 -6 48.5 36 c 128,-1,6
 25 78 25 78 14 100 c 128,-1,7
 3 122 3 122 3 128 c 0,8,9
 3 130 3 130 5 130 c 0,10,11
 6 130 6 130 10 127 c 0,12,13
 31 113 31 113 51.5 90.5 c 128,-1,14
 72 68 72 68 89 46.5 c 128,-1,15
 106 25 106 25 118.5 7.5 c 128,-1,16
 131 -10 131 -10 137 -16 c 0,17,18
 219 -82 219 -82 307 -105.5 c 128,-1,19
 395 -129 395 -129 481 -129 c 256,20,21
 567 -129 567 -129 647 -103.5 c 128,-1,22
 727 -78 727 -78 807 -20 c 0,23,24
 813 -16 813 -16 826.5 2 c 128,-1,25
 840 20 840 20 858.5 44 c 128,-1,26
 877 68 877 68 897.5 91.5 c 128,-1,27
 918 115 918 115 936 127 c 0,28,29
 940 129 940 129 942 129 c 0,30,31
 946 129 946 129 946 125 c 0,32,33
 946 118 946 118 935 96 c 128,-1,34
 924 74 924 74 898 33 c 128,-1,35
 872 -8 872 -8 848.5 -44 c 128,-1,36
 825 -80 825 -80 784 -110.5 c 128,-1,37
 743 -141 743 -141 666.5 -170 c 128,-1,38
 590 -199 590 -199 504 -199 c 2,39,-1
 453 -199 l 2,0,1
EndSplineSet
Validated: 1
EndChar

StartChar: brokenbar
Encoding: 166 166 66
Width: 512
VWidth: 2047
Flags: W
LayerCount: 2
Fore
SplineSet
102 504 m 1,0,-1
 102 31 l 1,1,-1
 102 0 l 1,2,-1
 0 0 l 1,3,-1
 0 473 l 1,4,-1
 0 504 l 1,5,-1
 102 504 l 1,0,-1
102 1434 m 1,6,-1
 102 961 l 1,7,-1
 102 930 l 1,8,-1
 0 930 l 1,9,-1
 0 1403 l 1,10,-1
 0 1434 l 1,11,-1
 102 1434 l 1,6,-1
EndSplineSet
Validated: 1
EndChar

StartChar: ordfeminine
Encoding: 170 170 67
Width: 1024
VWidth: 2047
Flags: W
LayerCount: 2
Fore
SplineSet
772 412 m 1,0,-1
 901 412 l 1,1,-1
 901 0 l 1,2,-1
 772 0 l 1,3,-1
 772 189 l 1,4,5
 765 130 765 130 719 94 c 0,6,7
 692 72 692 72 661.5 56.5 c 128,-1,8
 631 41 631 41 594 31 c 0,9,10
 557 18 557 18 522 14 c 128,-1,11
 487 10 487 10 455 10 c 2,12,-1
 424 10 l 2,13,14
 395 10 395 10 393 12 c 0,15,16
 379 12 379 12 359.5 16 c 128,-1,17
 340 20 340 20 315 25 c 0,18,19
 244 43 244 43 188 92 c 0,20,21
 140 129 140 129 133 189 c 1,22,-1
 133 0 l 1,23,-1
 0 0 l 1,24,-1
 0 412 l 1,25,-1
 133 412 l 1,26,-1
 133 223 l 1,27,28
 139 277 139 277 182 315 c 0,29,30
 209 336 209 336 240.5 352.5 c 128,-1,31
 272 369 272 369 311 379 c 0,32,33
 412 401 412 401 446 401 c 0,34,35
 524 401 524 401 586 381 c 0,36,37
 621 373 621 373 654.5 358.5 c 128,-1,38
 688 344 688 344 717 322 c 0,39,40
 765 280 765 280 772 223 c 1,41,-1
 772 412 l 1,0,-1
326 215 m 2,42,43
 326 201 326 201 328 190.5 c 128,-1,44
 330 180 330 180 340 158 c 0,45,46
 348 141 348 141 356.5 128 c 128,-1,47
 365 115 365 115 377 98 c 0,48,49
 426 39 426 39 487 39 c 1,50,51
 537 47 537 47 553 74 c 0,52,53
 559 80 559 80 569 109 c 0,54,55
 575 127 575 127 575 172 c 0,56,57
 575 252 575 252 526 313 c 1,58,59
 473 369 473 369 414 369 c 0,60,61
 367 367 367 367 344 334 c 0,62,63
 326 309 326 309 326 240 c 2,64,-1
 326 215 l 2,42,43
EndSplineSet
Validated: 1
EndChar

StartChar: uni00AD
Encoding: 173 173 68
Width: 512
VWidth: 2047
Flags: W
LayerCount: 2
Fore
SplineSet
0 358 m 1,0,-1
 260 358 l 1,1,-1
 260 256 l 1,2,-1
 0 256 l 1,3,-1
 0 358 l 1,0,-1
EndSplineSet
Validated: 1
EndChar

StartChar: degree
Encoding: 176 176 69
Width: 512
VWidth: 2047
Flags: W
LayerCount: 2
Fore
SplineSet
162 618 m 0,0,1
 229 618 229 618 275.5 572 c 128,-1,2
 322 526 322 526 322 459 c 0,3,4
 322 389 322 389 275.5 343 c 128,-1,5
 229 297 229 297 162 297 c 0,6,7
 92 297 92 297 46 343 c 128,-1,8
 0 389 0 389 0 459 c 0,9,10
 0 526 0 526 46 572 c 128,-1,11
 92 618 92 618 162 618 c 0,0,1
162 575 m 256,12,13
 115 575 115 575 80 542.5 c 128,-1,14
 45 510 45 510 45 459 c 256,15,16
 45 408 45 408 79 372 c 128,-1,17
 113 336 113 336 162 336 c 0,18,19
 209 336 209 336 244 372 c 128,-1,20
 279 408 279 408 279 459 c 256,21,22
 279 510 279 510 244 542.5 c 128,-1,23
 209 575 209 575 162 575 c 256,12,13
EndSplineSet
Validated: 1
EndChar

StartChar: plusminus
Encoding: 177 177 70
Width: 1024
VWidth: 2047
Flags: W
LayerCount: 2
Fore
SplineSet
106 1432 m 1,0,-1
 106 -2 l 1,1,-1
 0 0 l 1,2,-1
 0 1434 l 1,3,-1
 106 1432 l 1,0,-1
465 1434 m 1,4,-1
 465 0 l 1,5,-1
 358 2 l 1,6,-1
 358 1436 l 1,7,-1
 465 1434 l 1,4,-1
EndSplineSet
Validated: 1
EndChar

StartChar: Atilde
Encoding: 195 195 71
Width: 512
VWidth: 2047
Flags: W
LayerCount: 2
Fore
SplineSet
0 362 m 1,0,-1
 512 362 l 1,1,-1
 512 256 l 1,2,-1
 0 256 l 1,3,-1
 0 362 l 1,0,-1
EndSplineSet
Validated: 1
EndChar

StartChar: Adieresis
Encoding: 196 196 72
Width: 1024
VWidth: 2047
Flags: W
LayerCount: 2
Fore
SplineSet
0 362 m 1,0,-1
 510 362 l 1,1,-1
 510 256 l 1,2,-1
 0 256 l 1,3,-1
 0 362 l 1,0,-1
EndSplineSet
Validated: 1
EndChar

StartChar: Igrave
Encoding: 204 204 73
Width: 512
VWidth: 2047
Flags: W
LayerCount: 2
Fore
SplineSet
109 883 m 1,0,-1
 66 883 l 1,1,2
 51 958 51 958 40 1028 c 128,-1,3
 29 1098 29 1098 19.5 1154 c 128,-1,4
 10 1210 10 1210 5 1249 c 128,-1,5
 0 1288 0 1288 0 1300 c 0,6,7
 0 1335 0 1335 25.5 1359.5 c 128,-1,8
 51 1384 51 1384 88 1384 c 0,9,10
 123 1384 123 1384 148.5 1360.5 c 128,-1,11
 174 1337 174 1337 174 1305 c 0,12,13
 174 1257 174 1257 160.5 1169 c 128,-1,14
 147 1081 147 1081 123 965 c 0,15,16
 119 944 119 944 116 924.5 c 128,-1,17
 113 905 113 905 109 883 c 1,0,-1
EndSplineSet
Validated: 1
EndChar

StartChar: Iacute
Encoding: 205 205 74
Width: 512
VWidth: 2047
Flags: W
LayerCount: 2
Fore
SplineSet
258 635 m 0,0,1
 303 635 303 635 337 600 c 128,-1,2
 371 565 371 565 371 518 c 0,3,4
 371 473 371 473 337 441 c 0,5,6
 304 408 304 408 256 408 c 256,7,8
 209 408 209 408 176 440.5 c 128,-1,9
 143 473 143 473 143 520 c 256,10,11
 143 567 143 567 177 601 c 128,-1,12
 211 635 211 635 258 635 c 0,0,1
EndSplineSet
Validated: 1
EndChar

StartChar: Icircumflex
Encoding: 206 206 75
Width: 512
VWidth: 2047
Flags: W
LayerCount: 2
Fore
SplineSet
0 526 m 1,0,-1
 512 526 l 1,1,-1
 512 397 l 1,2,-1
 0 397 l 1,3,-1
 0 526 l 1,0,-1
EndSplineSet
Validated: 1
EndChar

StartChar: Eth
Encoding: 208 208 76
Width: 1024
VWidth: 2047
Flags: W
LayerCount: 2
Fore
SplineSet
508 86 m 1,0,-1
 553 129 l 1,1,-1
 602 184 l 1,2,-1
 623 209 l 1,3,-1
 639 240 l 2,4,5
 647 254 647 254 649 266.5 c 128,-1,6
 651 279 651 279 651 289 c 0,7,8
 651 319 651 319 633 338 c 0,9,10
 616 356 616 356 590 356 c 2,11,-1
 571 356 l 2,12,13
 563 354 563 354 556 350 c 128,-1,14
 549 346 549 346 537 340 c 0,15,16
 516 330 516 330 508 301 c 1,17,-1
 508 86 l 1,0,-1
438 184 m 1,18,-1
 418 168 l 1,19,-1
 393 150 l 1,20,-1
 360 125 l 1,21,-1
 317 100 l 1,22,-1
 283 70 l 2,23,24
 264 57 264 57 244.5 38.5 c 128,-1,25
 225 20 225 20 205 0 c 1,26,-1
 205 860 l 1,27,-1
 250 860 l 1,28,-1
 250 358 l 1,29,30
 328 406 328 406 377 406 c 0,31,32
 424 406 424 406 461 381 c 1,33,-1
 461 860 l 1,34,-1
 508 860 l 1,35,-1
 508 358 l 1,36,37
 573 406 573 406 637 406 c 0,38,39
 690 406 690 406 723 379 c 0,40,41
 743 362 743 362 754.5 343 c 128,-1,42
 766 324 766 324 766 299 c 0,43,44
 766 258 766 258 735.5 223 c 128,-1,45
 705 188 705 188 657 154 c 2,46,-1
 553 78 l 2,47,48
 532 63 532 63 509.5 45 c 128,-1,49
 487 27 487 27 461 0 c 1,50,-1
 461 209 l 1,51,-1
 438 184 l 1,18,-1
250 86 m 1,52,53
 279 115 279 115 305.5 142.5 c 128,-1,54
 332 170 332 170 354 199 c 0,55,56
 391 242 391 242 391 289 c 0,57,58
 391 354 391 354 330 354 c 1,59,-1
 305 350 l 1,60,-1
 281 340 l 1,61,62
 256 322 256 322 250 301 c 1,63,-1
 250 86 l 1,52,53
EndSplineSet
Validated: 1
EndChar

StartChar: Odieresis
Encoding: 214 214 77
Width: 1024
VWidth: 2047
Flags: W
LayerCount: 2
Fore
SplineSet
213 256 m 1,0,-1
 381 424 l 1,1,-1
 381 1434 l 1,2,-1
 424 1434 l 1,3,-1
 424 381 l 1,4,-1
 256 213 l 1,5,-1
 424 43 l 1,6,-1
 381 0 l 1,7,-1
 213 170 l 1,8,-1
 43 0 l 1,9,-1
 0 43 l 1,10,-1
 170 213 l 1,11,-1
 0 381 l 1,12,-1
 43 424 l 1,13,-1
 213 256 l 1,0,-1
698 219 m 256,14,15
 698 188 698 188 676.5 165.5 c 128,-1,16
 655 143 655 143 625 143 c 0,17,18
 594 143 594 143 572.5 165.5 c 128,-1,19
 551 188 551 188 551 219 c 256,20,21
 551 250 551 250 572.5 271.5 c 128,-1,22
 594 293 594 293 625 293 c 0,23,24
 655 293 655 293 676.5 271.5 c 128,-1,25
 698 250 698 250 698 219 c 256,14,15
EndSplineSet
Validated: 1
EndChar

StartChar: multiply
Encoding: 215 215 78
Width: 1024
VWidth: 2047
Flags: W
LayerCount: 2
Fore
SplineSet
383 635 m 1,0,-1
 426 592 l 1,1,-1
 256 422 l 1,2,-1
 426 252 l 1,3,-1
 383 209 l 1,4,-1
 213 379 l 1,5,-1
 43 209 l 1,6,-1
 0 252 l 1,7,-1
 170 422 l 1,8,-1
 0 592 l 1,9,-1
 43 635 l 1,10,-1
 213 465 l 1,11,-1
 383 635 l 1,0,-1
EndSplineSet
Validated: 1
EndChar

StartChar: Oslash
Encoding: 216 216 79
Width: 1024
VWidth: 2047
Flags: W
LayerCount: 2
Fore
SplineSet
379 301 m 1,0,-1
 266 190 l 1,1,-1
 379 78 l 1,2,-1
 301 0 l 1,3,-1
 190 113 l 1,4,-1
 78 0 l 1,5,-1
 0 78 l 1,6,-1
 113 190 l 1,7,-1
 0 301 l 1,8,-1
 78 379 l 1,9,-1
 190 266 l 1,10,-1
 301 379 l 1,11,-1
 340 338 l 1,12,-1
 340 1434 l 1,13,-1
 379 1434 l 1,14,-1
 379 301 l 1,0,-1
301 340 m 1,15,-1
 190 229 l 1,16,-1
 78 340 l 1,17,-1
 39 301 l 1,18,-1
 152 190 l 1,19,-1
 39 78 l 1,20,-1
 78 39 l 1,21,-1
 190 152 l 1,22,-1
 301 39 l 1,23,-1
 340 78 l 1,24,-1
 229 190 l 1,25,-1
 340 301 l 1,26,-1
 301 340 l 1,15,-1
604 188 m 0,27,28
 604 160 604 160 585.5 140.5 c 128,-1,29
 567 121 567 121 539 121 c 0,30,31
 512 121 512 121 493.5 140.5 c 128,-1,32
 475 160 475 160 475 188 c 0,33,34
 475 215 475 215 493.5 233.5 c 128,-1,35
 512 252 512 252 539 252 c 0,36,37
 567 252 567 252 585.5 233.5 c 128,-1,38
 604 215 604 215 604 188 c 0,27,28
EndSplineSet
Validated: 1
EndChar

StartChar: Ugrave
Encoding: 217 217 80
Width: 2048
VWidth: 2047
Flags: W
LayerCount: 2
Fore
SplineSet
381 1311 m 1,0,-1
 381 1434 l 1,1,-1
 1872 1434 l 1,2,-1
 1872 383 l 1,3,-1
 1702 213 l 1,4,-1
 1872 43 l 1,5,-1
 1829 0 l 1,6,-1
 1659 170 l 1,7,-1
 1491 0 l 1,8,-1
 1448 43 l 1,9,-1
 1618 213 l 1,10,-1
 1448 383 l 1,11,-1
 1491 424 l 1,12,-1
 1659 256 l 1,13,-1
 1829 424 l 1,14,-1
 1829 993 l 1,15,-1
 1458 993 l 1,16,-1
 1458 1116 l 1,17,-1
 1829 1116 l 1,18,-1
 1829 1311 l 1,19,-1
 424 1311 l 1,20,-1
 424 383 l 1,21,-1
 254 213 l 1,22,-1
 424 43 l 1,23,-1
 381 0 l 1,24,-1
 213 170 l 1,25,-1
 43 0 l 1,26,-1
 0 43 l 1,27,-1
 170 213 l 1,28,-1
 0 383 l 1,29,-1
 43 424 l 1,30,-1
 213 256 l 1,31,-1
 381 424 l 1,32,-1
 381 1311 l 1,0,-1
633 190 m 0,33,34
 633 166 633 166 615.5 147.5 c 128,-1,35
 598 129 598 129 571 129 c 0,36,37
 545 129 545 129 526.5 147.5 c 128,-1,38
 508 166 508 166 508 190 c 0,39,40
 508 217 508 217 526.5 235.5 c 128,-1,41
 545 254 545 254 571 254 c 0,42,43
 598 254 598 254 615.5 235.5 c 128,-1,44
 633 217 633 217 633 190 c 0,33,34
EndSplineSet
Validated: 1
EndChar

StartChar: Uacute
Encoding: 218 218 81
Width: 1024
VWidth: 2047
Flags: W
LayerCount: 2
Fore
SplineSet
383 424 m 1,0,-1
 383 1436 l 1,1,-1
 426 1436 l 1,2,-1
 426 381 l 1,3,-1
 256 211 l 1,4,-1
 426 41 l 1,5,-1
 383 0 l 1,6,-1
 213 168 l 1,7,-1
 43 0 l 1,8,-1
 0 41 l 1,9,-1
 170 211 l 1,10,-1
 0 381 l 1,11,-1
 43 424 l 1,12,-1
 213 254 l 1,13,-1
 383 424 l 1,0,-1
EndSplineSet
Validated: 1
EndChar

StartChar: Ucircumflex
Encoding: 219 219 82
Width: 1024
VWidth: 2047
Flags: W
LayerCount: 2
Fore
SplineSet
305 217 m 1,0,-1
 432 88 l 1,1,-1
 344 0 l 1,2,-1
 217 129 l 1,3,-1
 88 0 l 1,4,-1
 0 88 l 1,5,-1
 129 217 l 1,6,-1
 0 344 l 1,7,-1
 88 432 l 1,8,-1
 217 305 l 1,9,-1
 344 432 l 1,10,-1
 432 344 l 1,11,-1
 305 217 l 1,0,-1
217 262 m 1,12,-1
 88 389 l 1,13,-1
 45 344 l 1,14,-1
 174 217 l 1,15,-1
 45 88 l 1,16,-1
 88 45 l 1,17,-1
 217 174 l 1,18,-1
 344 45 l 1,19,-1
 389 88 l 1,20,-1
 262 217 l 1,21,-1
 389 344 l 1,22,-1
 344 389 l 1,23,-1
 217 262 l 1,12,-1
EndSplineSet
Validated: 1
EndChar

StartChar: Udieresis
Encoding: 220 220 83
Width: 1024
VWidth: 2047
Flags: W
LayerCount: 2
Fore
SplineSet
305 217 m 1,0,-1
 432 88 l 1,1,-1
 344 0 l 1,2,-1
 217 129 l 1,3,-1
 88 0 l 1,4,-1
 0 88 l 1,5,-1
 129 217 l 1,6,-1
 0 344 l 1,7,-1
 88 432 l 1,8,-1
 217 305 l 1,9,-1
 344 432 l 1,10,-1
 389 387 l 1,11,-1
 389 1638 l 1,12,-1
 432 1638 l 1,13,-1
 432 344 l 1,14,-1
 305 217 l 1,0,-1
217 262 m 1,15,-1
 88 389 l 1,16,-1
 45 344 l 1,17,-1
 174 217 l 1,18,-1
 45 88 l 1,19,-1
 88 45 l 1,20,-1
 217 174 l 1,21,-1
 344 45 l 1,22,-1
 389 88 l 1,23,-1
 262 217 l 1,24,-1
 389 344 l 1,25,-1
 344 389 l 1,26,-1
 217 262 l 1,15,-1
EndSplineSet
Validated: 1
EndChar

StartChar: egrave
Encoding: 232 232 84
Width: 1024
VWidth: 2047
Flags: W
LayerCount: 2
Fore
SplineSet
424 1434 m 1,0,1
 428 1393 428 1393 437 1359 c 128,-1,2
 446 1325 446 1325 457 1296 c 0,3,4
 473 1241 473 1241 502 1204 c 2,5,-1
 537 1159 l 1,6,-1
 586 1102 l 1,7,-1
 676 997 l 1,8,9
 778 864 778 864 778 719 c 0,10,11
 778 684 778 684 772 642 c 128,-1,12
 766 600 766 600 748 555 c 0,13,14
 733 520 733 520 724 497.5 c 128,-1,15
 715 475 715 475 698 444 c 1,16,-1
 668 444 l 1,17,-1
 702 532 l 2,18,19
 709 551 709 551 715 569.5 c 128,-1,20
 721 588 721 588 725 610 c 2,21,-1
 731 666 l 1,22,-1
 733 690 l 1,23,-1
 733 731 l 1,24,25
 729 739 729 739 728 747.5 c 128,-1,26
 727 756 727 756 725 764 c 0,27,28
 725 768 725 768 709 813 c 0,29,30
 688 877 688 877 639 928 c 1,31,32
 596 983 596 983 541 1012 c 0,33,34
 512 1028 512 1028 480.5 1039.5 c 128,-1,35
 449 1051 449 1051 424 1051 c 1,36,-1
 424 383 l 1,37,-1
 254 213 l 1,38,-1
 424 43 l 1,39,-1
 381 0 l 1,40,-1
 213 170 l 1,41,-1
 43 0 l 1,42,-1
 0 43 l 1,43,-1
 170 213 l 1,44,-1
 0 383 l 1,45,-1
 43 424 l 1,46,-1
 213 256 l 1,47,-1
 381 424 l 1,48,-1
 381 1434 l 1,49,-1
 424 1434 l 1,0,1
852 182 m 0,50,51
 852 152 852 152 830.5 129 c 128,-1,52
 809 106 809 106 778 106 c 0,53,54
 748 106 748 106 726.5 129 c 128,-1,55
 705 152 705 152 705 182 c 0,56,57
 705 213 705 213 726.5 234.5 c 128,-1,58
 748 256 748 256 778 256 c 0,59,60
 809 256 809 256 830.5 234.5 c 128,-1,61
 852 213 852 213 852 182 c 0,50,51
EndSplineSet
Validated: 1
EndChar

StartChar: eacute
Encoding: 233 233 85
Width: 1024
VWidth: 2047
Flags: W
LayerCount: 2
Fore
SplineSet
424 1434 m 1,0,1
 428 1393 428 1393 437 1359 c 128,-1,2
 446 1325 446 1325 457 1296 c 0,3,4
 473 1241 473 1241 502 1204 c 2,5,-1
 537 1159 l 1,6,-1
 586 1102 l 1,7,-1
 676 997 l 1,8,9
 778 864 778 864 778 719 c 0,10,11
 778 684 778 684 772 642 c 128,-1,12
 766 600 766 600 748 555 c 0,13,14
 733 520 733 520 724 497.5 c 128,-1,15
 715 475 715 475 698 444 c 1,16,-1
 668 444 l 1,17,-1
 702 532 l 2,18,19
 709 551 709 551 715 569.5 c 128,-1,20
 721 588 721 588 725 610 c 2,21,-1
 731 666 l 1,22,-1
 733 690 l 1,23,-1
 733 731 l 1,24,25
 729 739 729 739 728 747.5 c 128,-1,26
 727 756 727 756 725 764 c 0,27,28
 725 768 725 768 709 813 c 0,29,30
 688 877 688 877 639 928 c 1,31,32
 596 983 596 983 541 1012 c 0,33,34
 512 1028 512 1028 480.5 1039.5 c 128,-1,35
 449 1051 449 1051 424 1051 c 1,36,-1
 424 383 l 1,37,-1
 254 213 l 1,38,-1
 424 43 l 1,39,-1
 381 0 l 1,40,-1
 213 170 l 1,41,-1
 43 0 l 1,42,-1
 0 43 l 1,43,-1
 170 213 l 1,44,-1
 0 383 l 1,45,-1
 43 424 l 1,46,-1
 213 256 l 1,47,-1
 381 424 l 1,48,-1
 381 1434 l 1,49,-1
 424 1434 l 1,0,1
EndSplineSet
Validated: 1
EndChar

StartChar: ecircumflex
Encoding: 234 234 86
Width: 2048
VWidth: 2047
Flags: W
LayerCount: 2
Fore
SplineSet
424 1307 m 1,0,-1
 424 383 l 1,1,-1
 254 213 l 1,2,-1
 424 43 l 1,3,-1
 381 0 l 1,4,-1
 213 170 l 1,5,-1
 43 0 l 1,6,-1
 0 43 l 1,7,-1
 170 213 l 1,8,-1
 0 383 l 1,9,-1
 43 424 l 1,10,-1
 213 256 l 1,11,-1
 381 424 l 1,12,-1
 381 1434 l 1,13,-1
 1661 1434 l 1,14,-1
 1661 383 l 1,15,-1
 1491 213 l 1,16,-1
 1661 43 l 1,17,-1
 1618 0 l 1,18,-1
 1448 170 l 1,19,-1
 1280 0 l 1,20,-1
 1237 43 l 1,21,-1
 1407 213 l 1,22,-1
 1237 383 l 1,23,-1
 1280 424 l 1,24,-1
 1448 256 l 1,25,-1
 1618 424 l 1,26,-1
 1618 1307 l 1,27,-1
 424 1307 l 1,0,-1
EndSplineSet
Validated: 1
EndChar

StartChar: edieresis
Encoding: 235 235 87
Width: 1024
VWidth: 2047
Flags: W
LayerCount: 2
Fore
SplineSet
424 735 m 1,0,-1
 424 383 l 1,1,-1
 256 213 l 1,2,-1
 424 43 l 1,3,-1
 383 0 l 1,4,-1
 213 170 l 1,5,-1
 43 0 l 1,6,-1
 0 43 l 1,7,-1
 170 213 l 1,8,-1
 0 383 l 1,9,-1
 43 424 l 1,10,-1
 213 256 l 1,11,-1
 383 424 l 1,12,-1
 383 1434 l 1,13,-1
 424 1434 l 1,14,-1
 461 1434 l 1,15,16
 471 1352 471 1352 494 1296 c 1,17,18
 506 1243 506 1243 537 1204 c 2,19,-1
 571 1159 l 1,20,-1
 621 1102 l 1,21,-1
 711 997 l 1,22,23
 813 864 813 864 813 719 c 0,24,25
 813 655 813 655 799 610 c 0,26,27
 795 598 795 598 782 562 c 1,28,29
 813 496 813 496 813 403 c 0,30,31
 813 344 813 344 799 295 c 1,32,-1
 760 295 l 1,33,-1
 766 352 l 1,34,-1
 768 375 l 1,35,-1
 768 416 l 2,36,37
 766 422 766 422 764 429 c 128,-1,38
 762 436 762 436 760 449 c 0,39,40
 760 453 760 453 743 498 c 0,41,42
 733 528 733 528 714.5 556 c 128,-1,43
 696 584 696 584 674 610 c 0,44,45
 627 668 627 668 575 696 c 0,46,47
 561 705 561 705 539.5 712 c 128,-1,48
 518 719 518 719 496.5 724 c 128,-1,49
 475 729 475 729 455.5 732 c 128,-1,50
 436 735 436 735 424 735 c 1,0,-1
494 958 m 0,51,52
 500 930 500 930 509 913.5 c 128,-1,53
 518 897 518 897 535 877 c 2,54,-1
 569 831 l 1,55,-1
 614 780 l 1,56,-1
 711 680 l 1,57,58
 727 657 727 657 738.5 640 c 128,-1,59
 750 623 750 623 758 606 c 1,60,-1
 766 666 l 1,61,-1
 768 690 l 1,62,-1
 768 731 l 1,63,64
 762 756 762 756 760 764 c 0,65,66
 760 768 760 768 743 813 c 0,67,68
 723 877 723 877 674 928 c 1,69,70
 631 983 631 983 575 1012 c 1,71,72
 524 1044 524 1044 473 1049 c 1,73,74
 477 1032 477 1032 482 1005.5 c 128,-1,75
 487 979 487 979 494 958 c 0,51,52
EndSplineSet
Validated: 1
EndChar

StartChar: igrave
Encoding: 236 236 88
Width: 2048
VWidth: 2047
Flags: W
LayerCount: 2
Fore
SplineSet
424 1307 m 1,0,-1
 424 383 l 1,1,-1
 256 213 l 1,2,-1
 424 43 l 1,3,-1
 383 0 l 1,4,-1
 213 170 l 1,5,-1
 43 0 l 1,6,-1
 0 43 l 1,7,-1
 170 213 l 1,8,-1
 0 383 l 1,9,-1
 43 424 l 1,10,-1
 213 256 l 1,11,-1
 383 424 l 1,12,-1
 383 1434 l 1,13,-1
 1761 1434 l 1,14,-1
 1761 383 l 1,15,-1
 1593 213 l 1,16,-1
 1761 43 l 1,17,-1
 1718 0 l 1,18,-1
 1548 170 l 1,19,-1
 1380 0 l 1,20,-1
 1337 43 l 1,21,-1
 1507 213 l 1,22,-1
 1337 383 l 1,23,-1
 1380 424 l 1,24,-1
 1548 256 l 1,25,-1
 1718 424 l 1,26,-1
 1718 1307 l 1,27,-1
 1094 1307 l 1,28,-1
 1094 383 l 1,29,-1
 924 213 l 1,30,-1
 1094 43 l 1,31,-1
 1051 0 l 1,32,-1
 883 170 l 1,33,-1
 713 0 l 1,34,-1
 670 43 l 1,35,-1
 840 213 l 1,36,-1
 670 383 l 1,37,-1
 713 424 l 1,38,-1
 883 256 l 1,39,-1
 1051 424 l 1,40,-1
 1051 1307 l 1,41,-1
 424 1307 l 1,0,-1
55 1509 m 1,42,-1
 55 1671 l 1,43,-1
 827 1671 l 1,44,-1
 827 1642 l 1,45,-1
 86 1642 l 1,46,-1
 86 1509 l 1,47,-1
 55 1509 l 1,42,-1
1954 1509 m 1,48,-1
 1954 1642 l 1,49,-1
 1221 1642 l 1,50,-1
 1221 1671 l 1,51,-1
 1985 1671 l 1,52,-1
 1985 1509 l 1,53,-1
 1954 1509 l 1,48,-1
977 1638 m 1,54,-1
 977 1653 l 1,55,56
 999 1657 999 1657 1010.5 1661 c 128,-1,57
 1022 1665 1022 1665 1032 1675 c 0,58,59
 1040 1686 1040 1686 1049.5 1700 c 128,-1,60
 1059 1714 1059 1714 1059 1726 c 0,61,62
 1059 1767 1059 1767 1008 1767 c 0,63,64
 987 1767 987 1767 974 1755 c 128,-1,65
 961 1743 961 1743 944 1718 c 1,66,-1
 930 1718 l 1,67,68
 938 1741 938 1741 943 1750 c 128,-1,69
 948 1759 948 1759 958 1767 c 0,70,71
 987 1790 987 1790 1016 1790 c 0,72,73
 1047 1790 1047 1790 1068.5 1773.5 c 128,-1,74
 1090 1757 1090 1757 1090 1729 c 0,75,76
 1090 1710 1090 1710 1080.5 1692.5 c 128,-1,77
 1071 1675 1071 1675 1049 1659 c 1,78,79
 1065 1653 1065 1653 1068 1650 c 128,-1,80
 1071 1647 1071 1647 1079 1640 c 0,81,82
 1087 1628 1087 1628 1092.5 1619 c 128,-1,83
 1098 1610 1098 1610 1098 1591 c 0,84,85
 1098 1540 1098 1540 1063 1518 c 0,86,87
 1028 1493 1028 1493 979 1493 c 256,88,89
 930 1493 930 1493 930 1516 c 0,90,91
 930 1526 930 1526 946 1526 c 0,92,93
 952 1526 952 1526 957.5 1525 c 128,-1,94
 963 1524 963 1524 973 1520 c 0,95,96
 993 1507 993 1507 1014 1513 c 0,97,98
 1036 1522 1036 1522 1048.5 1531 c 128,-1,99
 1061 1540 1061 1540 1065 1569 c 0,100,101
 1067 1591 1067 1591 1054.5 1609.5 c 128,-1,102
 1042 1628 1042 1628 1022 1636 c 0,103,104
 1020 1638 1020 1638 1004 1638 c 2,105,-1
 977 1638 l 1,54,-1
EndSplineSet
Validated: 1
EndChar

StartChar: iacute
Encoding: 237 237 89
Width: 3072
VWidth: 2047
Flags: W
LayerCount: 2
Fore
SplineSet
424 1307 m 1,0,-1
 424 383 l 1,1,-1
 256 213 l 1,2,-1
 424 43 l 1,3,-1
 383 0 l 1,4,-1
 213 170 l 1,5,-1
 43 0 l 1,6,-1
 0 43 l 1,7,-1
 170 213 l 1,8,-1
 0 383 l 1,9,-1
 43 424 l 1,10,-1
 213 256 l 1,11,-1
 383 424 l 1,12,-1
 383 1434 l 1,13,-1
 2773 1434 l 1,14,-1
 2773 383 l 1,15,-1
 2605 213 l 1,16,-1
 2773 43 l 1,17,-1
 2730 0 l 1,18,-1
 2560 170 l 1,19,-1
 2392 0 l 1,20,-1
 2349 43 l 1,21,-1
 2519 213 l 1,22,-1
 2349 383 l 1,23,-1
 2392 424 l 1,24,-1
 2560 256 l 1,25,-1
 2730 424 l 1,26,-1
 2730 1307 l 1,27,-1
 1597 1307 l 1,28,-1
 1597 383 l 1,29,-1
 1427 213 l 1,30,-1
 1597 43 l 1,31,-1
 1554 0 l 1,32,-1
 1386 170 l 1,33,-1
 1217 0 l 1,34,-1
 1174 43 l 1,35,-1
 1343 213 l 1,36,-1
 1174 383 l 1,37,-1
 1217 424 l 1,38,-1
 1386 256 l 1,39,-1
 1554 424 l 1,40,-1
 1554 1307 l 1,41,-1
 424 1307 l 1,0,-1
EndSplineSet
Validated: 1
EndChar

StartChar: dieresis
Encoding: 168 168 91
Width: 1024
VWidth: 2047
Flags: W
LayerCount: 2
Fore
SplineSet
1040 1638 m 1,0,-1
 1040 1587 l 1,1,-1
 35 1587 l 1,2,-1
 35 1229 l 1,3,-1
 1040 1229 l 1,4,-1
 1040 1178 l 1,5,-1
 35 1178 l 1,6,-1
 35 819 l 1,7,-1
 1040 819 l 1,8,-1
 1040 768 l 1,9,-1
 35 768 l 1,10,-1
 35 410 l 1,11,-1
 1040 410 l 1,12,-1
 1040 358 l 1,13,-1
 35 358 l 1,14,-1
 35 0 l 1,15,-1
 1040 0 l 1,16,-1
 1040 -51 l 1,17,-1
 -16 -51 l 1,18,-1
 -16 1638 l 1,19,-1
 1040 1638 l 1,0,-1
EndSplineSet
Validated: 1
EndChar

StartChar: copyright
Encoding: 169 169 92
Width: 1024
VWidth: 2047
Flags: W
LayerCount: 2
Fore
SplineSet
1040 410 m 1,0,-1
 1040 358 l 1,1,-1
 -16 358 l 1,2,-1
 -16 410 l 1,3,-1
 1040 410 l 1,0,-1
1040 1638 m 1,4,-1
 1040 1587 l 1,5,-1
 -16 1587 l 1,6,-1
 -16 1638 l 1,7,-1
 1040 1638 l 1,4,-1
1040 1229 m 1,8,-1
 1040 1178 l 1,9,-1
 -16 1178 l 1,10,-1
 -16 1229 l 1,11,-1
 1040 1229 l 1,8,-1
1040 819 m 1,12,-1
 1040 768 l 1,13,-1
 -16 768 l 1,14,-1
 -16 819 l 1,15,-1
 1040 819 l 1,12,-1
1040 0 m 1,16,-1
 1040 -51 l 1,17,-1
 -16 -51 l 1,18,-1
 -16 0 l 1,19,-1
 1040 0 l 1,16,-1
EndSplineSet
Validated: 1
EndChar

StartChar: registered
Encoding: 174 174 93
Width: 1024
VWidth: 2047
Flags: W
LayerCount: 2
Fore
SplineSet
1040 -51 m 1,0,-1
 -16 -51 l 1,1,-1
 -16 0 l 1,2,-1
 630 0 l 1,3,-1
 630 358 l 1,4,-1
 -16 358 l 1,5,-1
 -16 410 l 1,6,-1
 630 410 l 1,7,-1
 630 768 l 1,8,-1
 -16 768 l 1,9,-1
 -16 819 l 1,10,-1
 630 819 l 1,11,-1
 630 1178 l 1,12,-1
 -16 1178 l 1,13,-1
 -16 1229 l 1,14,-1
 630 1229 l 1,15,-1
 630 1587 l 1,16,-1
 -16 1587 l 1,17,-1
 -16 1638 l 1,18,-1
 1040 1638 l 1,19,-1
 1040 -51 l 1,0,-1
682 1178 m 1,20,-1
 682 819 l 1,21,-1
 833 819 l 1,22,-1
 833 1178 l 1,23,-1
 682 1178 l 1,20,-1
682 1587 m 1,24,-1
 682 1229 l 1,25,-1
 833 1229 l 1,26,-1
 833 1587 l 1,27,-1
 682 1587 l 1,24,-1
682 768 m 1,28,-1
 682 410 l 1,29,-1
 833 410 l 1,30,-1
 833 768 l 1,31,-1
 682 768 l 1,28,-1
833 358 m 1,32,-1
 682 358 l 1,33,-1
 682 0 l 1,34,-1
 833 0 l 1,35,-1
 833 358 l 1,32,-1
EndSplineSet
Validated: 1
EndChar

StartChar: uni00AF
Encoding: 175 175 94
Width: 1024
VWidth: 2047
Flags: W
LayerCount: 2
Fore
SplineSet
1040 1638 m 1,0,-1
 1040 -51 l 1,1,-1
 -16 -51 l 1,2,-1
 -16 0 l 1,3,-1
 733 0 l 1,4,-1
 733 358 l 1,5,-1
 -16 358 l 1,6,-1
 -16 410 l 1,7,-1
 733 410 l 1,8,-1
 733 768 l 1,9,-1
 -16 768 l 1,10,-1
 -16 819 l 1,11,-1
 733 819 l 1,12,-1
 733 1178 l 1,13,-1
 -16 1178 l 1,14,-1
 -16 1229 l 1,15,-1
 733 1229 l 1,16,-1
 733 1587 l 1,17,-1
 -16 1587 l 1,18,-1
 -16 1638 l 1,19,-1
 1040 1638 l 1,0,-1
989 0 m 1,20,-1
 989 358 l 1,21,-1
 784 358 l 1,22,-1
 784 0 l 1,23,-1
 989 0 l 1,20,-1
989 768 m 1,24,-1
 784 768 l 1,25,-1
 784 410 l 1,26,-1
 989 410 l 1,27,-1
 989 768 l 1,24,-1
784 1587 m 1,28,-1
 784 1229 l 1,29,-1
 989 1229 l 1,30,-1
 989 1587 l 1,31,-1
 784 1587 l 1,28,-1
989 1178 m 1,32,-1
 784 1178 l 1,33,-1
 784 819 l 1,34,-1
 989 819 l 1,35,-1
 989 1178 l 1,32,-1
EndSplineSet
Validated: 1
EndChar

StartChar: periodcentered
Encoding: 183 183 95
Width: 1024
VWidth: 2047
Flags: W
LayerCount: 2
Fore
SplineSet
511 810 m 1,0,-1
 511 818 l 1,1,2
 483 799 483 799 473.5 793 c 128,-1,3
 464 787 464 787 454 781 c 0,4,5
 448 775 448 775 441.5 767.5 c 128,-1,6
 435 760 435 760 413 736 c 0,7,8
 397 719 397 719 388.5 713 c 128,-1,9
 380 707 380 707 368 707 c 0,10,11
 331 707 331 707 331 744 c 0,12,13
 331 767 331 767 345.5 777 c 128,-1,14
 360 787 360 787 397 793 c 0,15,16
 431 799 431 799 451.5 807.5 c 128,-1,17
 472 816 472 816 503 834 c 1,18,-1
 491 842 l 2,19,20
 478 851 478 851 477 849.5 c 128,-1,21
 476 848 476 848 462 859 c 1,22,23
 450 863 450 863 434.5 866 c 128,-1,24
 419 869 419 869 401 875 c 0,25,26
 364 881 364 881 347.5 891.5 c 128,-1,27
 331 902 331 902 331 924 c 0,28,29
 331 961 331 961 364 961 c 0,30,31
 376 961 376 961 387.5 954 c 128,-1,32
 399 947 399 947 417 924 c 0,33,34
 442 896 442 896 461.5 882.5 c 128,-1,35
 481 869 481 869 511 851 c 1,36,-1
 511 863 l 2,37,38
 511 885 511 885 506 908.5 c 128,-1,39
 501 932 501 932 495 961 c 1,40,41
 483 992 483 992 483 1014 c 0,42,43
 483 1047 483 1047 519 1047 c 0,44,45
 556 1047 556 1047 556 1010 c 0,46,47
 556 1000 556 1000 555 988.5 c 128,-1,48
 554 977 554 977 548 961 c 0,49,50
 528 922 528 922 528 875 c 2,51,-1
 528 846 l 1,52,-1
 536 851 l 2,53,54
 544 855 544 855 548 858 c 128,-1,55
 552 861 552 861 577 881 c 0,56,57
 577 883 577 883 589 896 c 2,58,-1
 614 920 l 1,59,60
 648 961 648 961 671 961 c 0,61,62
 708 961 708 961 708 920 c 0,63,64
 708 898 708 898 696.5 890.5 c 128,-1,65
 685 883 685 883 655 879 c 0,66,67
 620 873 620 873 598.5 865 c 128,-1,68
 577 857 577 857 536 834 c 1,69,-1
 548 826 l 2,70,71
 587 799 587 799 646 793 c 0,72,73
 681 787 681 787 694.5 779 c 128,-1,74
 708 771 708 771 708 748 c 0,75,76
 708 707 708 707 671 707 c 0,77,78
 642 707 642 707 610 752 c 0,79,80
 587 781 587 781 570.5 794 c 128,-1,81
 554 807 554 807 536 814 c 2,82,-1
 528 818 l 1,83,-1
 528 810 l 2,84,85
 528 750 528 750 552 695 c 0,86,87
 560 681 560 681 560 662 c 0,88,89
 560 644 560 644 548 630.5 c 128,-1,90
 536 617 536 617 519 617 c 0,91,92
 503 617 503 617 493 629.5 c 128,-1,93
 483 642 483 642 483 658 c 0,94,95
 483 672 483 672 495 707 c 0,96,97
 505 732 505 732 508 750.5 c 128,-1,98
 511 769 511 769 511 785 c 2,99,-1
 511 810 l 1,0,-1
EndSplineSet
Validated: 1
EndChar

StartChar: trademark
Encoding: 8482 8482 98
Width: 2048
VWidth: 2047
Flags: W
LayerCount: 2
Fore
SplineSet
1149 1430 m 1,0,-1
 1825 1430 l 1,1,-1
 1860 1430 l 1,2,-1
 1860 1296 l 1,3,-1
 1860 231 l 2,4,5
 1860 170 1860 170 1819 117 c 0,6,7
 1776 61 1776 61 1708 30.5 c 128,-1,8
 1640 0 1640 0 1581 0 c 0,9,10
 1526 0 1526 0 1481 31 c 1,11,12
 1434 72 1434 72 1434 119 c 0,13,14
 1434 180 1434 180 1481 233 c 1,15,16
 1518 287 1518 287 1587 326 c 1,17,18
 1628 342 1628 342 1658 349 c 128,-1,19
 1688 356 1688 356 1718 356 c 0,20,21
 1774 356 1774 356 1825 324 c 1,22,-1
 1825 1290 l 1,23,-1
 1149 1290 l 1,24,-1
 1149 231 l 2,25,26
 1149 176 1149 176 1108 117 c 0,27,28
 1067 61 1067 61 999.5 30.5 c 128,-1,29
 932 0 932 0 866 0 c 0,30,31
 811 0 811 0 766 31 c 1,32,33
 723 68 723 68 723 119 c 0,34,35
 723 180 723 180 766 233 c 0,36,37
 788 260 788 260 817 282.5 c 128,-1,38
 846 305 846 305 879 326 c 1,39,40
 913 342 913 342 945 349 c 128,-1,41
 977 356 977 356 1006 356 c 0,42,43
 1036 356 1036 356 1061.5 348 c 128,-1,44
 1087 340 1087 340 1116 324 c 1,45,-1
 1116 1290 l 1,46,-1
 426 1290 l 1,47,-1
 426 231 l 2,48,49
 426 170 426 170 385 117 c 0,50,51
 342 61 342 61 274.5 30.5 c 128,-1,52
 207 0 207 0 145 0 c 0,53,54
 115 0 115 0 91.5 8 c 128,-1,55
 68 16 68 16 45 31 c 0,56,57
 0 70 0 70 0 119 c 0,58,59
 0 182 0 182 45 233 c 0,60,61
 66 260 66 260 93.5 283.5 c 128,-1,62
 121 307 121 307 158 326 c 0,63,64
 193 342 193 342 223.5 349 c 128,-1,65
 254 356 254 356 283 356 c 0,66,67
 344 356 344 356 389 324 c 1,68,-1
 389 1430 l 1,69,-1
 426 1430 l 1,70,-1
 1149 1430 l 1,0,-1
EndSplineSet
Validated: 1
EndChar

StartChar: scaron
Encoding: 353 353 99
Width: 2048
VWidth: 2047
Flags: W
LayerCount: 2
Fore
SplineSet
1604 1176 m 1,0,-1
 1847 1176 l 1,1,-1
 1847 1294 l 1,2,-1
 1165 1294 l 1,3,-1
 1167 231 l 2,4,5
 1167 176 1167 176 1126 117 c 0,6,7
 1083 61 1083 61 1015.5 30.5 c 128,-1,8
 948 0 948 0 885 0 c 0,9,10
 829 0 829 0 784 33 c 128,-1,11
 739 66 739 66 739 121 c 0,12,13
 739 184 739 184 784 236 c 0,14,15
 823 287 823 287 895 328 c 1,16,17
 932 344 932 344 962.5 351 c 128,-1,18
 993 358 993 358 1022 358 c 0,19,20
 1036 358 1036 358 1058.5 351 c 128,-1,21
 1081 344 1081 344 1094.5 334 c 128,-1,22
 1108 324 1108 324 1119 314.5 c 128,-1,23
 1130 305 1130 305 1130 322 c 2,24,-1
 1128 1294 l 1,25,-1
 426 1294 l 1,26,-1
 426 1176 l 1,27,-1
 428 1176 l 1,28,-1
 682 1176 l 1,29,-1
 682 1038 l 1,30,-1
 426 1038 l 1,31,-1
 426 227 l 2,32,33
 426 174 426 174 387 117 c 0,34,35
 344 61 344 61 276.5 30.5 c 128,-1,36
 209 0 209 0 145 0 c 0,37,38
 88 0 88 0 43 33 c 0,39,40
 0 66 0 66 0 121 c 0,41,42
 0 180 0 180 43 236 c 0,43,44
 63 258 63 258 92 281.5 c 128,-1,45
 121 305 121 305 156 328 c 1,46,47
 193 344 193 344 223.5 351 c 128,-1,48
 254 358 254 358 283 358 c 0,49,50
 344 358 344 358 391 324 c 1,51,-1
 391 1434 l 1,52,-1
 1882 1434 l 1,53,-1
 1882 231 l 2,54,55
 1882 170 1882 170 1841 117 c 0,56,57
 1798 61 1798 61 1730.5 30.5 c 128,-1,58
 1663 0 1663 0 1602 0 c 0,59,60
 1544 0 1544 0 1499 33 c 0,61,62
 1456 66 1456 66 1456 121 c 0,63,64
 1456 180 1456 180 1499 236 c 0,65,66
 1542 287 1542 287 1610 328 c 1,67,68
 1647 344 1647 344 1678.5 351 c 128,-1,69
 1710 358 1710 358 1739 358 c 0,70,71
 1794 358 1794 358 1847 324 c 1,72,-1
 1847 1038 l 1,73,-1
 1604 1038 l 1,74,-1
 1604 1176 l 1,0,-1
EndSplineSet
Validated: 1
EndChar

StartChar: bullet
Encoding: 8226 8226 100
Width: 1024
VWidth: 2047
Flags: W
LayerCount: 2
Fore
SplineSet
511 810 m 1,0,-1
 511 818 l 1,1,2
 483 799 483 799 473.5 793 c 128,-1,3
 464 787 464 787 454 781 c 0,4,5
 448 775 448 775 441.5 767.5 c 128,-1,6
 435 760 435 760 413 736 c 0,7,8
 397 719 397 719 388.5 713 c 128,-1,9
 380 707 380 707 368 707 c 0,10,11
 331 707 331 707 331 744 c 0,12,13
 331 767 331 767 345.5 777 c 128,-1,14
 360 787 360 787 397 793 c 0,15,16
 431 799 431 799 451.5 807.5 c 128,-1,17
 472 816 472 816 503 834 c 1,18,-1
 491 842 l 2,19,20
 478 851 478 851 477 849.5 c 128,-1,21
 476 848 476 848 462 859 c 1,22,23
 450 863 450 863 434.5 866 c 128,-1,24
 419 869 419 869 401 875 c 0,25,26
 364 881 364 881 347.5 891.5 c 128,-1,27
 331 902 331 902 331 924 c 0,28,29
 331 961 331 961 364 961 c 0,30,31
 376 961 376 961 387.5 954 c 128,-1,32
 399 947 399 947 417 924 c 0,33,34
 442 896 442 896 461.5 882.5 c 128,-1,35
 481 869 481 869 511 851 c 1,36,-1
 511 863 l 2,37,38
 511 885 511 885 506 908.5 c 128,-1,39
 501 932 501 932 495 961 c 1,40,41
 483 992 483 992 483 1014 c 0,42,43
 483 1047 483 1047 519 1047 c 0,44,45
 556 1047 556 1047 556 1010 c 0,46,47
 556 1000 556 1000 555 988.5 c 128,-1,48
 554 977 554 977 548 961 c 0,49,50
 528 922 528 922 528 875 c 2,51,-1
 528 846 l 1,52,-1
 536 851 l 2,53,54
 544 855 544 855 548 858 c 128,-1,55
 552 861 552 861 577 881 c 0,56,57
 577 883 577 883 589 896 c 2,58,-1
 614 920 l 1,59,60
 648 961 648 961 671 961 c 0,61,62
 708 961 708 961 708 920 c 0,63,64
 708 898 708 898 696.5 890.5 c 128,-1,65
 685 883 685 883 655 879 c 0,66,67
 620 873 620 873 598.5 865 c 128,-1,68
 577 857 577 857 536 834 c 1,69,-1
 548 826 l 2,70,71
 587 799 587 799 646 793 c 0,72,73
 681 787 681 787 694.5 779 c 128,-1,74
 708 771 708 771 708 748 c 0,75,76
 708 707 708 707 671 707 c 0,77,78
 642 707 642 707 610 752 c 0,79,80
 587 781 587 781 570.5 794 c 128,-1,81
 554 807 554 807 536 814 c 2,82,-1
 528 818 l 1,83,-1
 528 810 l 2,84,85
 528 750 528 750 552 695 c 0,86,87
 560 681 560 681 560 662 c 0,88,89
 560 644 560 644 548 630.5 c 128,-1,90
 536 617 536 617 519 617 c 0,91,92
 503 617 503 617 493 629.5 c 128,-1,93
 483 642 483 642 483 658 c 0,94,95
 483 672 483 672 495 707 c 0,96,97
 505 732 505 732 508 750.5 c 128,-1,98
 511 769 511 769 511 785 c 2,99,-1
 511 810 l 1,0,-1
EndSplineSet
Validated: 1
EndChar

StartChar: daggerdbl
Encoding: 8225 8225 101
Width: 1024
VWidth: 2047
Flags: W
LayerCount: 2
Fore
SplineSet
511 810 m 1,0,-1
 511 818 l 1,1,2
 483 799 483 799 473.5 793 c 128,-1,3
 464 787 464 787 454 781 c 0,4,5
 448 775 448 775 441.5 767.5 c 128,-1,6
 435 760 435 760 413 736 c 0,7,8
 397 719 397 719 388.5 713 c 128,-1,9
 380 707 380 707 368 707 c 0,10,11
 331 707 331 707 331 744 c 0,12,13
 331 767 331 767 345.5 777 c 128,-1,14
 360 787 360 787 397 793 c 0,15,16
 431 799 431 799 451.5 807.5 c 128,-1,17
 472 816 472 816 503 834 c 1,18,-1
 491 842 l 2,19,20
 478 851 478 851 477 849.5 c 128,-1,21
 476 848 476 848 462 859 c 1,22,23
 450 863 450 863 434.5 866 c 128,-1,24
 419 869 419 869 401 875 c 0,25,26
 364 881 364 881 347.5 891.5 c 128,-1,27
 331 902 331 902 331 924 c 0,28,29
 331 961 331 961 364 961 c 0,30,31
 376 961 376 961 387.5 954 c 128,-1,32
 399 947 399 947 417 924 c 0,33,34
 442 896 442 896 461.5 882.5 c 128,-1,35
 481 869 481 869 511 851 c 1,36,-1
 511 863 l 2,37,38
 511 885 511 885 506 908.5 c 128,-1,39
 501 932 501 932 495 961 c 1,40,41
 483 992 483 992 483 1014 c 0,42,43
 483 1047 483 1047 519 1047 c 0,44,45
 556 1047 556 1047 556 1010 c 0,46,47
 556 1000 556 1000 555 988.5 c 128,-1,48
 554 977 554 977 548 961 c 0,49,50
 528 922 528 922 528 875 c 2,51,-1
 528 846 l 1,52,-1
 536 851 l 2,53,54
 544 855 544 855 548 858 c 128,-1,55
 552 861 552 861 577 881 c 0,56,57
 577 883 577 883 589 896 c 2,58,-1
 614 920 l 1,59,60
 648 961 648 961 671 961 c 0,61,62
 708 961 708 961 708 920 c 0,63,64
 708 898 708 898 696.5 890.5 c 128,-1,65
 685 883 685 883 655 879 c 0,66,67
 620 873 620 873 598.5 865 c 128,-1,68
 577 857 577 857 536 834 c 1,69,-1
 548 826 l 2,70,71
 587 799 587 799 646 793 c 0,72,73
 681 787 681 787 694.5 779 c 128,-1,74
 708 771 708 771 708 748 c 0,75,76
 708 707 708 707 671 707 c 0,77,78
 642 707 642 707 610 752 c 0,79,80
 587 781 587 781 570.5 794 c 128,-1,81
 554 807 554 807 536 814 c 2,82,-1
 528 818 l 1,83,-1
 528 810 l 2,84,85
 528 750 528 750 552 695 c 0,86,87
 560 681 560 681 560 662 c 0,88,89
 560 644 560 644 548 630.5 c 128,-1,90
 536 617 536 617 519 617 c 0,91,92
 503 617 503 617 493 629.5 c 128,-1,93
 483 642 483 642 483 658 c 0,94,95
 483 672 483 672 495 707 c 0,96,97
 505 732 505 732 508 750.5 c 128,-1,98
 511 769 511 769 511 785 c 2,99,-1
 511 810 l 1,0,-1
EndSplineSet
Validated: 1
EndChar

StartChar: dagger
Encoding: 8224 8224 102
Width: 1024
VWidth: 2047
Flags: W
LayerCount: 2
Fore
SplineSet
511 810 m 1,0,-1
 511 818 l 1,1,2
 483 799 483 799 473.5 793 c 128,-1,3
 464 787 464 787 454 781 c 0,4,5
 448 775 448 775 441.5 767.5 c 128,-1,6
 435 760 435 760 413 736 c 0,7,8
 397 719 397 719 388.5 713 c 128,-1,9
 380 707 380 707 368 707 c 0,10,11
 331 707 331 707 331 744 c 0,12,13
 331 767 331 767 345.5 777 c 128,-1,14
 360 787 360 787 397 793 c 0,15,16
 431 799 431 799 451.5 807.5 c 128,-1,17
 472 816 472 816 503 834 c 1,18,-1
 491 842 l 2,19,20
 478 851 478 851 477 849.5 c 128,-1,21
 476 848 476 848 462 859 c 1,22,23
 450 863 450 863 434.5 866 c 128,-1,24
 419 869 419 869 401 875 c 0,25,26
 364 881 364 881 347.5 891.5 c 128,-1,27
 331 902 331 902 331 924 c 0,28,29
 331 961 331 961 364 961 c 0,30,31
 376 961 376 961 387.5 954 c 128,-1,32
 399 947 399 947 417 924 c 0,33,34
 442 896 442 896 461.5 882.5 c 128,-1,35
 481 869 481 869 511 851 c 1,36,-1
 511 863 l 2,37,38
 511 885 511 885 506 908.5 c 128,-1,39
 501 932 501 932 495 961 c 1,40,41
 483 992 483 992 483 1014 c 0,42,43
 483 1047 483 1047 519 1047 c 0,44,45
 556 1047 556 1047 556 1010 c 0,46,47
 556 1000 556 1000 555 988.5 c 128,-1,48
 554 977 554 977 548 961 c 0,49,50
 528 922 528 922 528 875 c 2,51,-1
 528 846 l 1,52,-1
 536 851 l 2,53,54
 544 855 544 855 548 858 c 128,-1,55
 552 861 552 861 577 881 c 0,56,57
 577 883 577 883 589 896 c 2,58,-1
 614 920 l 1,59,60
 648 961 648 961 671 961 c 0,61,62
 708 961 708 961 708 920 c 0,63,64
 708 898 708 898 696.5 890.5 c 128,-1,65
 685 883 685 883 655 879 c 0,66,67
 620 873 620 873 598.5 865 c 128,-1,68
 577 857 577 857 536 834 c 1,69,-1
 548 826 l 2,70,71
 587 799 587 799 646 793 c 0,72,73
 681 787 681 787 694.5 779 c 128,-1,74
 708 771 708 771 708 748 c 0,75,76
 708 707 708 707 671 707 c 0,77,78
 642 707 642 707 610 752 c 0,79,80
 587 781 587 781 570.5 794 c 128,-1,81
 554 807 554 807 536 814 c 2,82,-1
 528 818 l 1,83,-1
 528 810 l 2,84,85
 528 750 528 750 552 695 c 0,86,87
 560 681 560 681 560 662 c 0,88,89
 560 644 560 644 548 630.5 c 128,-1,90
 536 617 536 617 519 617 c 0,91,92
 503 617 503 617 493 629.5 c 128,-1,93
 483 642 483 642 483 658 c 0,94,95
 483 672 483 672 495 707 c 0,96,97
 505 732 505 732 508 750.5 c 128,-1,98
 511 769 511 769 511 785 c 2,99,-1
 511 810 l 1,0,-1
EndSplineSet
Validated: 1
EndChar

StartChar: circumflex
Encoding: 710 710 103
Width: 1024
VWidth: 2047
Flags: W
LayerCount: 2
Fore
SplineSet
511 810 m 1,0,-1
 511 818 l 1,1,2
 483 799 483 799 473.5 793 c 128,-1,3
 464 787 464 787 454 781 c 0,4,5
 448 775 448 775 441.5 767.5 c 128,-1,6
 435 760 435 760 413 736 c 0,7,8
 397 719 397 719 388.5 713 c 128,-1,9
 380 707 380 707 368 707 c 0,10,11
 331 707 331 707 331 744 c 0,12,13
 331 767 331 767 345.5 777 c 128,-1,14
 360 787 360 787 397 793 c 0,15,16
 431 799 431 799 451.5 807.5 c 128,-1,17
 472 816 472 816 503 834 c 1,18,-1
 491 842 l 2,19,20
 478 851 478 851 477 849.5 c 128,-1,21
 476 848 476 848 462 859 c 1,22,23
 450 863 450 863 434.5 866 c 128,-1,24
 419 869 419 869 401 875 c 0,25,26
 364 881 364 881 347.5 891.5 c 128,-1,27
 331 902 331 902 331 924 c 0,28,29
 331 961 331 961 364 961 c 0,30,31
 376 961 376 961 387.5 954 c 128,-1,32
 399 947 399 947 417 924 c 0,33,34
 442 896 442 896 461.5 882.5 c 128,-1,35
 481 869 481 869 511 851 c 1,36,-1
 511 863 l 2,37,38
 511 885 511 885 506 908.5 c 128,-1,39
 501 932 501 932 495 961 c 1,40,41
 483 992 483 992 483 1014 c 0,42,43
 483 1047 483 1047 519 1047 c 0,44,45
 556 1047 556 1047 556 1010 c 0,46,47
 556 1000 556 1000 555 988.5 c 128,-1,48
 554 977 554 977 548 961 c 0,49,50
 528 922 528 922 528 875 c 2,51,-1
 528 846 l 1,52,-1
 536 851 l 2,53,54
 544 855 544 855 548 858 c 128,-1,55
 552 861 552 861 577 881 c 0,56,57
 577 883 577 883 589 896 c 2,58,-1
 614 920 l 1,59,60
 648 961 648 961 671 961 c 0,61,62
 708 961 708 961 708 920 c 0,63,64
 708 898 708 898 696.5 890.5 c 128,-1,65
 685 883 685 883 655 879 c 0,66,67
 620 873 620 873 598.5 865 c 128,-1,68
 577 857 577 857 536 834 c 1,69,-1
 548 826 l 2,70,71
 587 799 587 799 646 793 c 0,72,73
 681 787 681 787 694.5 779 c 128,-1,74
 708 771 708 771 708 748 c 0,75,76
 708 707 708 707 671 707 c 0,77,78
 642 707 642 707 610 752 c 0,79,80
 587 781 587 781 570.5 794 c 128,-1,81
 554 807 554 807 536 814 c 2,82,-1
 528 818 l 1,83,-1
 528 810 l 2,84,85
 528 750 528 750 552 695 c 0,86,87
 560 681 560 681 560 662 c 0,88,89
 560 644 560 644 548 630.5 c 128,-1,90
 536 617 536 617 519 617 c 0,91,92
 503 617 503 617 493 629.5 c 128,-1,93
 483 642 483 642 483 658 c 0,94,95
 483 672 483 672 495 707 c 0,96,97
 505 732 505 732 508 750.5 c 128,-1,98
 511 769 511 769 511 785 c 2,99,-1
 511 810 l 1,0,-1
EndSplineSet
Validated: 1
EndChar

StartChar: perthousand
Encoding: 8240 8240 104
Width: 1024
VWidth: 2047
Flags: W
LayerCount: 2
Fore
SplineSet
511 810 m 1,0,-1
 511 818 l 1,1,2
 483 799 483 799 473.5 793 c 128,-1,3
 464 787 464 787 454 781 c 0,4,5
 448 775 448 775 441.5 767.5 c 128,-1,6
 435 760 435 760 413 736 c 0,7,8
 397 719 397 719 388.5 713 c 128,-1,9
 380 707 380 707 368 707 c 0,10,11
 331 707 331 707 331 744 c 0,12,13
 331 767 331 767 345.5 777 c 128,-1,14
 360 787 360 787 397 793 c 0,15,16
 431 799 431 799 451.5 807.5 c 128,-1,17
 472 816 472 816 503 834 c 1,18,-1
 491 842 l 2,19,20
 478 851 478 851 477 849.5 c 128,-1,21
 476 848 476 848 462 859 c 1,22,23
 450 863 450 863 434.5 866 c 128,-1,24
 419 869 419 869 401 875 c 0,25,26
 364 881 364 881 347.5 891.5 c 128,-1,27
 331 902 331 902 331 924 c 0,28,29
 331 961 331 961 364 961 c 0,30,31
 376 961 376 961 387.5 954 c 128,-1,32
 399 947 399 947 417 924 c 0,33,34
 442 896 442 896 461.5 882.5 c 128,-1,35
 481 869 481 869 511 851 c 1,36,-1
 511 863 l 2,37,38
 511 885 511 885 506 908.5 c 128,-1,39
 501 932 501 932 495 961 c 1,40,41
 483 992 483 992 483 1014 c 0,42,43
 483 1047 483 1047 519 1047 c 0,44,45
 556 1047 556 1047 556 1010 c 0,46,47
 556 1000 556 1000 555 988.5 c 128,-1,48
 554 977 554 977 548 961 c 0,49,50
 528 922 528 922 528 875 c 2,51,-1
 528 846 l 1,52,-1
 536 851 l 2,53,54
 544 855 544 855 548 858 c 128,-1,55
 552 861 552 861 577 881 c 0,56,57
 577 883 577 883 589 896 c 2,58,-1
 614 920 l 1,59,60
 648 961 648 961 671 961 c 0,61,62
 708 961 708 961 708 920 c 0,63,64
 708 898 708 898 696.5 890.5 c 128,-1,65
 685 883 685 883 655 879 c 0,66,67
 620 873 620 873 598.5 865 c 128,-1,68
 577 857 577 857 536 834 c 1,69,-1
 548 826 l 2,70,71
 587 799 587 799 646 793 c 0,72,73
 681 787 681 787 694.5 779 c 128,-1,74
 708 771 708 771 708 748 c 0,75,76
 708 707 708 707 671 707 c 0,77,78
 642 707 642 707 610 752 c 0,79,80
 587 781 587 781 570.5 794 c 128,-1,81
 554 807 554 807 536 814 c 2,82,-1
 528 818 l 1,83,-1
 528 810 l 2,84,85
 528 750 528 750 552 695 c 0,86,87
 560 681 560 681 560 662 c 0,88,89
 560 644 560 644 548 630.5 c 128,-1,90
 536 617 536 617 519 617 c 0,91,92
 503 617 503 617 493 629.5 c 128,-1,93
 483 642 483 642 483 658 c 0,94,95
 483 672 483 672 495 707 c 0,96,97
 505 732 505 732 508 750.5 c 128,-1,98
 511 769 511 769 511 785 c 2,99,-1
 511 810 l 1,0,-1
EndSplineSet
Validated: 1
EndChar

StartChar: Scaron
Encoding: 352 352 105
Width: 1024
VWidth: 2047
Flags: W
LayerCount: 2
Fore
SplineSet
511 810 m 1,0,-1
 511 818 l 1,1,2
 483 799 483 799 473.5 793 c 128,-1,3
 464 787 464 787 454 781 c 0,4,5
 448 775 448 775 441.5 767.5 c 128,-1,6
 435 760 435 760 413 736 c 0,7,8
 397 719 397 719 388.5 713 c 128,-1,9
 380 707 380 707 368 707 c 0,10,11
 331 707 331 707 331 744 c 0,12,13
 331 767 331 767 345.5 777 c 128,-1,14
 360 787 360 787 397 793 c 0,15,16
 431 799 431 799 451.5 807.5 c 128,-1,17
 472 816 472 816 503 834 c 1,18,-1
 491 842 l 2,19,20
 478 851 478 851 477 849.5 c 128,-1,21
 476 848 476 848 462 859 c 1,22,23
 450 863 450 863 434.5 866 c 128,-1,24
 419 869 419 869 401 875 c 0,25,26
 364 881 364 881 347.5 891.5 c 128,-1,27
 331 902 331 902 331 924 c 0,28,29
 331 961 331 961 364 961 c 0,30,31
 376 961 376 961 387.5 954 c 128,-1,32
 399 947 399 947 417 924 c 0,33,34
 442 896 442 896 461.5 882.5 c 128,-1,35
 481 869 481 869 511 851 c 1,36,-1
 511 863 l 2,37,38
 511 885 511 885 506 908.5 c 128,-1,39
 501 932 501 932 495 961 c 1,40,41
 483 992 483 992 483 1014 c 0,42,43
 483 1047 483 1047 519 1047 c 0,44,45
 556 1047 556 1047 556 1010 c 0,46,47
 556 1000 556 1000 555 988.5 c 128,-1,48
 554 977 554 977 548 961 c 0,49,50
 528 922 528 922 528 875 c 2,51,-1
 528 846 l 1,52,-1
 536 851 l 2,53,54
 544 855 544 855 548 858 c 128,-1,55
 552 861 552 861 577 881 c 0,56,57
 577 883 577 883 589 896 c 2,58,-1
 614 920 l 1,59,60
 648 961 648 961 671 961 c 0,61,62
 708 961 708 961 708 920 c 0,63,64
 708 898 708 898 696.5 890.5 c 128,-1,65
 685 883 685 883 655 879 c 0,66,67
 620 873 620 873 598.5 865 c 128,-1,68
 577 857 577 857 536 834 c 1,69,-1
 548 826 l 2,70,71
 587 799 587 799 646 793 c 0,72,73
 681 787 681 787 694.5 779 c 128,-1,74
 708 771 708 771 708 748 c 0,75,76
 708 707 708 707 671 707 c 0,77,78
 642 707 642 707 610 752 c 0,79,80
 587 781 587 781 570.5 794 c 128,-1,81
 554 807 554 807 536 814 c 2,82,-1
 528 818 l 1,83,-1
 528 810 l 2,84,85
 528 750 528 750 552 695 c 0,86,87
 560 681 560 681 560 662 c 0,88,89
 560 644 560 644 548 630.5 c 128,-1,90
 536 617 536 617 519 617 c 0,91,92
 503 617 503 617 493 629.5 c 128,-1,93
 483 642 483 642 483 658 c 0,94,95
 483 672 483 672 495 707 c 0,96,97
 505 732 505 732 508 750.5 c 128,-1,98
 511 769 511 769 511 785 c 2,99,-1
 511 810 l 1,0,-1
EndSplineSet
Validated: 1
EndChar

StartChar: Euro
Encoding: 8364 8364 106
Width: 1024
VWidth: 2047
Flags: W
LayerCount: 2
Fore
SplineSet
511 810 m 1,0,-1
 511 818 l 1,1,2
 483 799 483 799 473.5 793 c 128,-1,3
 464 787 464 787 454 781 c 0,4,5
 448 775 448 775 441.5 767.5 c 128,-1,6
 435 760 435 760 413 736 c 0,7,8
 397 719 397 719 388.5 713 c 128,-1,9
 380 707 380 707 368 707 c 0,10,11
 331 707 331 707 331 744 c 0,12,13
 331 767 331 767 345.5 777 c 128,-1,14
 360 787 360 787 397 793 c 0,15,16
 431 799 431 799 451.5 807.5 c 128,-1,17
 472 816 472 816 503 834 c 1,18,-1
 491 842 l 2,19,20
 478 851 478 851 477 849.5 c 128,-1,21
 476 848 476 848 462 859 c 1,22,23
 450 863 450 863 434.5 866 c 128,-1,24
 419 869 419 869 401 875 c 0,25,26
 364 881 364 881 347.5 891.5 c 128,-1,27
 331 902 331 902 331 924 c 0,28,29
 331 961 331 961 364 961 c 0,30,31
 376 961 376 961 387.5 954 c 128,-1,32
 399 947 399 947 417 924 c 0,33,34
 442 896 442 896 461.5 882.5 c 128,-1,35
 481 869 481 869 511 851 c 1,36,-1
 511 863 l 2,37,38
 511 885 511 885 506 908.5 c 128,-1,39
 501 932 501 932 495 961 c 1,40,41
 483 992 483 992 483 1014 c 0,42,43
 483 1047 483 1047 519 1047 c 0,44,45
 556 1047 556 1047 556 1010 c 0,46,47
 556 1000 556 1000 555 988.5 c 128,-1,48
 554 977 554 977 548 961 c 0,49,50
 528 922 528 922 528 875 c 2,51,-1
 528 846 l 1,52,-1
 536 851 l 2,53,54
 544 855 544 855 548 858 c 128,-1,55
 552 861 552 861 577 881 c 0,56,57
 577 883 577 883 589 896 c 2,58,-1
 614 920 l 1,59,60
 648 961 648 961 671 961 c 0,61,62
 708 961 708 961 708 920 c 0,63,64
 708 898 708 898 696.5 890.5 c 128,-1,65
 685 883 685 883 655 879 c 0,66,67
 620 873 620 873 598.5 865 c 128,-1,68
 577 857 577 857 536 834 c 1,69,-1
 548 826 l 2,70,71
 587 799 587 799 646 793 c 0,72,73
 681 787 681 787 694.5 779 c 128,-1,74
 708 771 708 771 708 748 c 0,75,76
 708 707 708 707 671 707 c 0,77,78
 642 707 642 707 610 752 c 0,79,80
 587 781 587 781 570.5 794 c 128,-1,81
 554 807 554 807 536 814 c 2,82,-1
 528 818 l 1,83,-1
 528 810 l 2,84,85
 528 750 528 750 552 695 c 0,86,87
 560 681 560 681 560 662 c 0,88,89
 560 644 560 644 548 630.5 c 128,-1,90
 536 617 536 617 519 617 c 0,91,92
 503 617 503 617 493 629.5 c 128,-1,93
 483 642 483 642 483 658 c 0,94,95
 483 672 483 672 495 707 c 0,96,97
 505 732 505 732 508 750.5 c 128,-1,98
 511 769 511 769 511 785 c 2,99,-1
 511 810 l 1,0,-1
EndSplineSet
Validated: 1
EndChar

StartChar: quotesinglbase
Encoding: 8218 8218 107
Width: 1024
VWidth: 2047
Flags: W
LayerCount: 2
Fore
SplineSet
511 810 m 1,0,-1
 511 818 l 1,1,2
 483 799 483 799 473.5 793 c 128,-1,3
 464 787 464 787 454 781 c 0,4,5
 448 775 448 775 441.5 767.5 c 128,-1,6
 435 760 435 760 413 736 c 0,7,8
 397 719 397 719 388.5 713 c 128,-1,9
 380 707 380 707 368 707 c 0,10,11
 331 707 331 707 331 744 c 0,12,13
 331 767 331 767 345.5 777 c 128,-1,14
 360 787 360 787 397 793 c 0,15,16
 431 799 431 799 451.5 807.5 c 128,-1,17
 472 816 472 816 503 834 c 1,18,-1
 491 842 l 2,19,20
 478 851 478 851 477 849.5 c 128,-1,21
 476 848 476 848 462 859 c 1,22,23
 450 863 450 863 434.5 866 c 128,-1,24
 419 869 419 869 401 875 c 0,25,26
 364 881 364 881 347.5 891.5 c 128,-1,27
 331 902 331 902 331 924 c 0,28,29
 331 961 331 961 364 961 c 0,30,31
 376 961 376 961 387.5 954 c 128,-1,32
 399 947 399 947 417 924 c 0,33,34
 442 896 442 896 461.5 882.5 c 128,-1,35
 481 869 481 869 511 851 c 1,36,-1
 511 863 l 2,37,38
 511 885 511 885 506 908.5 c 128,-1,39
 501 932 501 932 495 961 c 1,40,41
 483 992 483 992 483 1014 c 0,42,43
 483 1047 483 1047 519 1047 c 0,44,45
 556 1047 556 1047 556 1010 c 0,46,47
 556 1000 556 1000 555 988.5 c 128,-1,48
 554 977 554 977 548 961 c 0,49,50
 528 922 528 922 528 875 c 2,51,-1
 528 846 l 1,52,-1
 536 851 l 2,53,54
 544 855 544 855 548 858 c 128,-1,55
 552 861 552 861 577 881 c 0,56,57
 577 883 577 883 589 896 c 2,58,-1
 614 920 l 1,59,60
 648 961 648 961 671 961 c 0,61,62
 708 961 708 961 708 920 c 0,63,64
 708 898 708 898 696.5 890.5 c 128,-1,65
 685 883 685 883 655 879 c 0,66,67
 620 873 620 873 598.5 865 c 128,-1,68
 577 857 577 857 536 834 c 1,69,-1
 548 826 l 2,70,71
 587 799 587 799 646 793 c 0,72,73
 681 787 681 787 694.5 779 c 128,-1,74
 708 771 708 771 708 748 c 0,75,76
 708 707 708 707 671 707 c 0,77,78
 642 707 642 707 610 752 c 0,79,80
 587 781 587 781 570.5 794 c 128,-1,81
 554 807 554 807 536 814 c 2,82,-1
 528 818 l 1,83,-1
 528 810 l 2,84,85
 528 750 528 750 552 695 c 0,86,87
 560 681 560 681 560 662 c 0,88,89
 560 644 560 644 548 630.5 c 128,-1,90
 536 617 536 617 519 617 c 0,91,92
 503 617 503 617 493 629.5 c 128,-1,93
 483 642 483 642 483 658 c 0,94,95
 483 672 483 672 495 707 c 0,96,97
 505 732 505 732 508 750.5 c 128,-1,98
 511 769 511 769 511 785 c 2,99,-1
 511 810 l 1,0,-1
EndSplineSet
Validated: 1
EndChar

StartChar: florin
Encoding: 402 402 108
Width: 1024
VWidth: 2047
Flags: W
LayerCount: 2
Fore
SplineSet
511 810 m 1,0,-1
 511 818 l 1,1,2
 483 799 483 799 473.5 793 c 128,-1,3
 464 787 464 787 454 781 c 0,4,5
 448 775 448 775 441.5 767.5 c 128,-1,6
 435 760 435 760 413 736 c 0,7,8
 397 719 397 719 388.5 713 c 128,-1,9
 380 707 380 707 368 707 c 0,10,11
 331 707 331 707 331 744 c 0,12,13
 331 767 331 767 345.5 777 c 128,-1,14
 360 787 360 787 397 793 c 0,15,16
 431 799 431 799 451.5 807.5 c 128,-1,17
 472 816 472 816 503 834 c 1,18,-1
 491 842 l 2,19,20
 478 851 478 851 477 849.5 c 128,-1,21
 476 848 476 848 462 859 c 1,22,23
 450 863 450 863 434.5 866 c 128,-1,24
 419 869 419 869 401 875 c 0,25,26
 364 881 364 881 347.5 891.5 c 128,-1,27
 331 902 331 902 331 924 c 0,28,29
 331 961 331 961 364 961 c 0,30,31
 376 961 376 961 387.5 954 c 128,-1,32
 399 947 399 947 417 924 c 0,33,34
 442 896 442 896 461.5 882.5 c 128,-1,35
 481 869 481 869 511 851 c 1,36,-1
 511 863 l 2,37,38
 511 885 511 885 506 908.5 c 128,-1,39
 501 932 501 932 495 961 c 1,40,41
 483 992 483 992 483 1014 c 0,42,43
 483 1047 483 1047 519 1047 c 0,44,45
 556 1047 556 1047 556 1010 c 0,46,47
 556 1000 556 1000 555 988.5 c 128,-1,48
 554 977 554 977 548 961 c 0,49,50
 528 922 528 922 528 875 c 2,51,-1
 528 846 l 1,52,-1
 536 851 l 2,53,54
 544 855 544 855 548 858 c 128,-1,55
 552 861 552 861 577 881 c 0,56,57
 577 883 577 883 589 896 c 2,58,-1
 614 920 l 1,59,60
 648 961 648 961 671 961 c 0,61,62
 708 961 708 961 708 920 c 0,63,64
 708 898 708 898 696.5 890.5 c 128,-1,65
 685 883 685 883 655 879 c 0,66,67
 620 873 620 873 598.5 865 c 128,-1,68
 577 857 577 857 536 834 c 1,69,-1
 548 826 l 2,70,71
 587 799 587 799 646 793 c 0,72,73
 681 787 681 787 694.5 779 c 128,-1,74
 708 771 708 771 708 748 c 0,75,76
 708 707 708 707 671 707 c 0,77,78
 642 707 642 707 610 752 c 0,79,80
 587 781 587 781 570.5 794 c 128,-1,81
 554 807 554 807 536 814 c 2,82,-1
 528 818 l 1,83,-1
 528 810 l 2,84,85
 528 750 528 750 552 695 c 0,86,87
 560 681 560 681 560 662 c 0,88,89
 560 644 560 644 548 630.5 c 128,-1,90
 536 617 536 617 519 617 c 0,91,92
 503 617 503 617 493 629.5 c 128,-1,93
 483 642 483 642 483 658 c 0,94,95
 483 672 483 672 495 707 c 0,96,97
 505 732 505 732 508 750.5 c 128,-1,98
 511 769 511 769 511 785 c 2,99,-1
 511 810 l 1,0,-1
EndSplineSet
Validated: 1
EndChar

StartChar: quotedblbase
Encoding: 8222 8222 109
Width: 1024
VWidth: 2047
Flags: W
LayerCount: 2
Fore
SplineSet
511 810 m 1,0,-1
 511 818 l 1,1,2
 483 799 483 799 473.5 793 c 128,-1,3
 464 787 464 787 454 781 c 0,4,5
 448 775 448 775 441.5 767.5 c 128,-1,6
 435 760 435 760 413 736 c 0,7,8
 397 719 397 719 388.5 713 c 128,-1,9
 380 707 380 707 368 707 c 0,10,11
 331 707 331 707 331 744 c 0,12,13
 331 767 331 767 345.5 777 c 128,-1,14
 360 787 360 787 397 793 c 0,15,16
 431 799 431 799 451.5 807.5 c 128,-1,17
 472 816 472 816 503 834 c 1,18,-1
 491 842 l 2,19,20
 478 851 478 851 477 849.5 c 128,-1,21
 476 848 476 848 462 859 c 1,22,23
 450 863 450 863 434.5 866 c 128,-1,24
 419 869 419 869 401 875 c 0,25,26
 364 881 364 881 347.5 891.5 c 128,-1,27
 331 902 331 902 331 924 c 0,28,29
 331 961 331 961 364 961 c 0,30,31
 376 961 376 961 387.5 954 c 128,-1,32
 399 947 399 947 417 924 c 0,33,34
 442 896 442 896 461.5 882.5 c 128,-1,35
 481 869 481 869 511 851 c 1,36,-1
 511 863 l 2,37,38
 511 885 511 885 506 908.5 c 128,-1,39
 501 932 501 932 495 961 c 1,40,41
 483 992 483 992 483 1014 c 0,42,43
 483 1047 483 1047 519 1047 c 0,44,45
 556 1047 556 1047 556 1010 c 0,46,47
 556 1000 556 1000 555 988.5 c 128,-1,48
 554 977 554 977 548 961 c 0,49,50
 528 922 528 922 528 875 c 2,51,-1
 528 846 l 1,52,-1
 536 851 l 2,53,54
 544 855 544 855 548 858 c 128,-1,55
 552 861 552 861 577 881 c 0,56,57
 577 883 577 883 589 896 c 2,58,-1
 614 920 l 1,59,60
 648 961 648 961 671 961 c 0,61,62
 708 961 708 961 708 920 c 0,63,64
 708 898 708 898 696.5 890.5 c 128,-1,65
 685 883 685 883 655 879 c 0,66,67
 620 873 620 873 598.5 865 c 128,-1,68
 577 857 577 857 536 834 c 1,69,-1
 548 826 l 2,70,71
 587 799 587 799 646 793 c 0,72,73
 681 787 681 787 694.5 779 c 128,-1,74
 708 771 708 771 708 748 c 0,75,76
 708 707 708 707 671 707 c 0,77,78
 642 707 642 707 610 752 c 0,79,80
 587 781 587 781 570.5 794 c 128,-1,81
 554 807 554 807 536 814 c 2,82,-1
 528 818 l 1,83,-1
 528 810 l 2,84,85
 528 750 528 750 552 695 c 0,86,87
 560 681 560 681 560 662 c 0,88,89
 560 644 560 644 548 630.5 c 128,-1,90
 536 617 536 617 519 617 c 0,91,92
 503 617 503 617 493 629.5 c 128,-1,93
 483 642 483 642 483 658 c 0,94,95
 483 672 483 672 495 707 c 0,96,97
 505 732 505 732 508 750.5 c 128,-1,98
 511 769 511 769 511 785 c 2,99,-1
 511 810 l 1,0,-1
EndSplineSet
Validated: 1
EndChar

StartChar: ellipsis
Encoding: 8230 8230 110
Width: 1024
VWidth: 2047
Flags: W
LayerCount: 2
Fore
SplineSet
511 810 m 1,0,-1
 511 818 l 1,1,2
 483 799 483 799 473.5 793 c 128,-1,3
 464 787 464 787 454 781 c 0,4,5
 448 775 448 775 441.5 767.5 c 128,-1,6
 435 760 435 760 413 736 c 0,7,8
 397 719 397 719 388.5 713 c 128,-1,9
 380 707 380 707 368 707 c 0,10,11
 331 707 331 707 331 744 c 0,12,13
 331 767 331 767 345.5 777 c 128,-1,14
 360 787 360 787 397 793 c 0,15,16
 431 799 431 799 451.5 807.5 c 128,-1,17
 472 816 472 816 503 834 c 1,18,-1
 491 842 l 2,19,20
 478 851 478 851 477 849.5 c 128,-1,21
 476 848 476 848 462 859 c 1,22,23
 450 863 450 863 434.5 866 c 128,-1,24
 419 869 419 869 401 875 c 0,25,26
 364 881 364 881 347.5 891.5 c 128,-1,27
 331 902 331 902 331 924 c 0,28,29
 331 961 331 961 364 961 c 0,30,31
 376 961 376 961 387.5 954 c 128,-1,32
 399 947 399 947 417 924 c 0,33,34
 442 896 442 896 461.5 882.5 c 128,-1,35
 481 869 481 869 511 851 c 1,36,-1
 511 863 l 2,37,38
 511 885 511 885 506 908.5 c 128,-1,39
 501 932 501 932 495 961 c 1,40,41
 483 992 483 992 483 1014 c 0,42,43
 483 1047 483 1047 519 1047 c 0,44,45
 556 1047 556 1047 556 1010 c 0,46,47
 556 1000 556 1000 555 988.5 c 128,-1,48
 554 977 554 977 548 961 c 0,49,50
 528 922 528 922 528 875 c 2,51,-1
 528 846 l 1,52,-1
 536 851 l 2,53,54
 544 855 544 855 548 858 c 128,-1,55
 552 861 552 861 577 881 c 0,56,57
 577 883 577 883 589 896 c 2,58,-1
 614 920 l 1,59,60
 648 961 648 961 671 961 c 0,61,62
 708 961 708 961 708 920 c 0,63,64
 708 898 708 898 696.5 890.5 c 128,-1,65
 685 883 685 883 655 879 c 0,66,67
 620 873 620 873 598.5 865 c 128,-1,68
 577 857 577 857 536 834 c 1,69,-1
 548 826 l 2,70,71
 587 799 587 799 646 793 c 0,72,73
 681 787 681 787 694.5 779 c 128,-1,74
 708 771 708 771 708 748 c 0,75,76
 708 707 708 707 671 707 c 0,77,78
 642 707 642 707 610 752 c 0,79,80
 587 781 587 781 570.5 794 c 128,-1,81
 554 807 554 807 536 814 c 2,82,-1
 528 818 l 1,83,-1
 528 810 l 2,84,85
 528 750 528 750 552 695 c 0,86,87
 560 681 560 681 560 662 c 0,88,89
 560 644 560 644 548 630.5 c 128,-1,90
 536 617 536 617 519 617 c 0,91,92
 503 617 503 617 493 629.5 c 128,-1,93
 483 642 483 642 483 658 c 0,94,95
 483 672 483 672 495 707 c 0,96,97
 505 732 505 732 508 750.5 c 128,-1,98
 511 769 511 769 511 785 c 2,99,-1
 511 810 l 1,0,-1
EndSplineSet
Validated: 1
EndChar

StartChar: guilsinglleft
Encoding: 8249 8249 111
Width: 1024
VWidth: 2047
Flags: W
LayerCount: 2
Fore
SplineSet
511 810 m 1,0,-1
 511 818 l 1,1,2
 483 799 483 799 473.5 793 c 128,-1,3
 464 787 464 787 454 781 c 0,4,5
 448 775 448 775 441.5 767.5 c 128,-1,6
 435 760 435 760 413 736 c 0,7,8
 397 719 397 719 388.5 713 c 128,-1,9
 380 707 380 707 368 707 c 0,10,11
 331 707 331 707 331 744 c 0,12,13
 331 767 331 767 345.5 777 c 128,-1,14
 360 787 360 787 397 793 c 0,15,16
 431 799 431 799 451.5 807.5 c 128,-1,17
 472 816 472 816 503 834 c 1,18,-1
 491 842 l 2,19,20
 478 851 478 851 477 849.5 c 128,-1,21
 476 848 476 848 462 859 c 1,22,23
 450 863 450 863 434.5 866 c 128,-1,24
 419 869 419 869 401 875 c 0,25,26
 364 881 364 881 347.5 891.5 c 128,-1,27
 331 902 331 902 331 924 c 0,28,29
 331 961 331 961 364 961 c 0,30,31
 376 961 376 961 387.5 954 c 128,-1,32
 399 947 399 947 417 924 c 0,33,34
 442 896 442 896 461.5 882.5 c 128,-1,35
 481 869 481 869 511 851 c 1,36,-1
 511 863 l 2,37,38
 511 885 511 885 506 908.5 c 128,-1,39
 501 932 501 932 495 961 c 1,40,41
 483 992 483 992 483 1014 c 0,42,43
 483 1047 483 1047 519 1047 c 0,44,45
 556 1047 556 1047 556 1010 c 0,46,47
 556 1000 556 1000 555 988.5 c 128,-1,48
 554 977 554 977 548 961 c 0,49,50
 528 922 528 922 528 875 c 2,51,-1
 528 846 l 1,52,-1
 536 851 l 2,53,54
 544 855 544 855 548 858 c 128,-1,55
 552 861 552 861 577 881 c 0,56,57
 577 883 577 883 589 896 c 2,58,-1
 614 920 l 1,59,60
 648 961 648 961 671 961 c 0,61,62
 708 961 708 961 708 920 c 0,63,64
 708 898 708 898 696.5 890.5 c 128,-1,65
 685 883 685 883 655 879 c 0,66,67
 620 873 620 873 598.5 865 c 128,-1,68
 577 857 577 857 536 834 c 1,69,-1
 548 826 l 2,70,71
 587 799 587 799 646 793 c 0,72,73
 681 787 681 787 694.5 779 c 128,-1,74
 708 771 708 771 708 748 c 0,75,76
 708 707 708 707 671 707 c 0,77,78
 642 707 642 707 610 752 c 0,79,80
 587 781 587 781 570.5 794 c 128,-1,81
 554 807 554 807 536 814 c 2,82,-1
 528 818 l 1,83,-1
 528 810 l 2,84,85
 528 750 528 750 552 695 c 0,86,87
 560 681 560 681 560 662 c 0,88,89
 560 644 560 644 548 630.5 c 128,-1,90
 536 617 536 617 519 617 c 0,91,92
 503 617 503 617 493 629.5 c 128,-1,93
 483 642 483 642 483 658 c 0,94,95
 483 672 483 672 495 707 c 0,96,97
 505 732 505 732 508 750.5 c 128,-1,98
 511 769 511 769 511 785 c 2,99,-1
 511 810 l 1,0,-1
EndSplineSet
Validated: 1
EndChar

StartChar: OE
Encoding: 338 338 112
Width: 1024
VWidth: 2047
Flags: W
LayerCount: 2
Fore
SplineSet
511 810 m 1,0,-1
 511 818 l 1,1,2
 483 799 483 799 473.5 793 c 128,-1,3
 464 787 464 787 454 781 c 0,4,5
 448 775 448 775 441.5 767.5 c 128,-1,6
 435 760 435 760 413 736 c 0,7,8
 397 719 397 719 388.5 713 c 128,-1,9
 380 707 380 707 368 707 c 0,10,11
 331 707 331 707 331 744 c 0,12,13
 331 767 331 767 345.5 777 c 128,-1,14
 360 787 360 787 397 793 c 0,15,16
 431 799 431 799 451.5 807.5 c 128,-1,17
 472 816 472 816 503 834 c 1,18,-1
 491 842 l 2,19,20
 478 851 478 851 477 849.5 c 128,-1,21
 476 848 476 848 462 859 c 1,22,23
 450 863 450 863 434.5 866 c 128,-1,24
 419 869 419 869 401 875 c 0,25,26
 364 881 364 881 347.5 891.5 c 128,-1,27
 331 902 331 902 331 924 c 0,28,29
 331 961 331 961 364 961 c 0,30,31
 376 961 376 961 387.5 954 c 128,-1,32
 399 947 399 947 417 924 c 0,33,34
 442 896 442 896 461.5 882.5 c 128,-1,35
 481 869 481 869 511 851 c 1,36,-1
 511 863 l 2,37,38
 511 885 511 885 506 908.5 c 128,-1,39
 501 932 501 932 495 961 c 1,40,41
 483 992 483 992 483 1014 c 0,42,43
 483 1047 483 1047 519 1047 c 0,44,45
 556 1047 556 1047 556 1010 c 0,46,47
 556 1000 556 1000 555 988.5 c 128,-1,48
 554 977 554 977 548 961 c 0,49,50
 528 922 528 922 528 875 c 2,51,-1
 528 846 l 1,52,-1
 536 851 l 2,53,54
 544 855 544 855 548 858 c 128,-1,55
 552 861 552 861 577 881 c 0,56,57
 577 883 577 883 589 896 c 2,58,-1
 614 920 l 1,59,60
 648 961 648 961 671 961 c 0,61,62
 708 961 708 961 708 920 c 0,63,64
 708 898 708 898 696.5 890.5 c 128,-1,65
 685 883 685 883 655 879 c 0,66,67
 620 873 620 873 598.5 865 c 128,-1,68
 577 857 577 857 536 834 c 1,69,-1
 548 826 l 2,70,71
 587 799 587 799 646 793 c 0,72,73
 681 787 681 787 694.5 779 c 128,-1,74
 708 771 708 771 708 748 c 0,75,76
 708 707 708 707 671 707 c 0,77,78
 642 707 642 707 610 752 c 0,79,80
 587 781 587 781 570.5 794 c 128,-1,81
 554 807 554 807 536 814 c 2,82,-1
 528 818 l 1,83,-1
 528 810 l 2,84,85
 528 750 528 750 552 695 c 0,86,87
 560 681 560 681 560 662 c 0,88,89
 560 644 560 644 548 630.5 c 128,-1,90
 536 617 536 617 519 617 c 0,91,92
 503 617 503 617 493 629.5 c 128,-1,93
 483 642 483 642 483 658 c 0,94,95
 483 672 483 672 495 707 c 0,96,97
 505 732 505 732 508 750.5 c 128,-1,98
 511 769 511 769 511 785 c 2,99,-1
 511 810 l 1,0,-1
EndSplineSet
Validated: 1
EndChar

StartChar: Zcaron
Encoding: 381 381 113
Width: 1024
VWidth: 2047
Flags: W
LayerCount: 2
Fore
SplineSet
511 810 m 1,0,-1
 511 818 l 1,1,2
 483 799 483 799 473.5 793 c 128,-1,3
 464 787 464 787 454 781 c 0,4,5
 448 775 448 775 441.5 767.5 c 128,-1,6
 435 760 435 760 413 736 c 0,7,8
 397 719 397 719 388.5 713 c 128,-1,9
 380 707 380 707 368 707 c 0,10,11
 331 707 331 707 331 744 c 0,12,13
 331 767 331 767 345.5 777 c 128,-1,14
 360 787 360 787 397 793 c 0,15,16
 431 799 431 799 451.5 807.5 c 128,-1,17
 472 816 472 816 503 834 c 1,18,-1
 491 842 l 2,19,20
 478 851 478 851 477 849.5 c 128,-1,21
 476 848 476 848 462 859 c 1,22,23
 450 863 450 863 434.5 866 c 128,-1,24
 419 869 419 869 401 875 c 0,25,26
 364 881 364 881 347.5 891.5 c 128,-1,27
 331 902 331 902 331 924 c 0,28,29
 331 961 331 961 364 961 c 0,30,31
 376 961 376 961 387.5 954 c 128,-1,32
 399 947 399 947 417 924 c 0,33,34
 442 896 442 896 461.5 882.5 c 128,-1,35
 481 869 481 869 511 851 c 1,36,-1
 511 863 l 2,37,38
 511 885 511 885 506 908.5 c 128,-1,39
 501 932 501 932 495 961 c 1,40,41
 483 992 483 992 483 1014 c 0,42,43
 483 1047 483 1047 519 1047 c 0,44,45
 556 1047 556 1047 556 1010 c 0,46,47
 556 1000 556 1000 555 988.5 c 128,-1,48
 554 977 554 977 548 961 c 0,49,50
 528 922 528 922 528 875 c 2,51,-1
 528 846 l 1,52,-1
 536 851 l 2,53,54
 544 855 544 855 548 858 c 128,-1,55
 552 861 552 861 577 881 c 0,56,57
 577 883 577 883 589 896 c 2,58,-1
 614 920 l 1,59,60
 648 961 648 961 671 961 c 0,61,62
 708 961 708 961 708 920 c 0,63,64
 708 898 708 898 696.5 890.5 c 128,-1,65
 685 883 685 883 655 879 c 0,66,67
 620 873 620 873 598.5 865 c 128,-1,68
 577 857 577 857 536 834 c 1,69,-1
 548 826 l 2,70,71
 587 799 587 799 646 793 c 0,72,73
 681 787 681 787 694.5 779 c 128,-1,74
 708 771 708 771 708 748 c 0,75,76
 708 707 708 707 671 707 c 0,77,78
 642 707 642 707 610 752 c 0,79,80
 587 781 587 781 570.5 794 c 128,-1,81
 554 807 554 807 536 814 c 2,82,-1
 528 818 l 1,83,-1
 528 810 l 2,84,85
 528 750 528 750 552 695 c 0,86,87
 560 681 560 681 560 662 c 0,88,89
 560 644 560 644 548 630.5 c 128,-1,90
 536 617 536 617 519 617 c 0,91,92
 503 617 503 617 493 629.5 c 128,-1,93
 483 642 483 642 483 658 c 0,94,95
 483 672 483 672 495 707 c 0,96,97
 505 732 505 732 508 750.5 c 128,-1,98
 511 769 511 769 511 785 c 2,99,-1
 511 810 l 1,0,-1
EndSplineSet
Validated: 1
EndChar

StartChar: tilde
Encoding: 732 732 114
Width: 1024
VWidth: 2047
Flags: W
LayerCount: 2
Fore
SplineSet
1040 410 m 1,0,-1
 1040 358 l 1,1,-1
 -16 358 l 1,2,-1
 -16 410 l 1,3,-1
 1040 410 l 1,0,-1
1040 1638 m 1,4,-1
 1040 1587 l 1,5,-1
 -16 1587 l 1,6,-1
 -16 1638 l 1,7,-1
 1040 1638 l 1,4,-1
1040 1229 m 1,8,-1
 1040 1178 l 1,9,-1
 -16 1178 l 1,10,-1
 -16 1229 l 1,11,-1
 1040 1229 l 1,8,-1
1040 819 m 1,12,-1
 1040 768 l 1,13,-1
 -16 768 l 1,14,-1
 -16 819 l 1,15,-1
 1040 819 l 1,12,-1
1040 0 m 1,16,-1
 1040 -51 l 1,17,-1
 -16 -51 l 1,18,-1
 -16 0 l 1,19,-1
 1040 0 l 1,16,-1
EndSplineSet
Validated: 1
EndChar

StartChar: guilsinglright
Encoding: 8250 8250 115
Width: 1024
VWidth: 2047
Flags: W
LayerCount: 2
Fore
SplineSet
1040 410 m 1,0,-1
 1040 358 l 1,1,-1
 -16 358 l 1,2,-1
 -16 410 l 1,3,-1
 1040 410 l 1,0,-1
1040 1638 m 1,4,-1
 1040 1587 l 1,5,-1
 -16 1587 l 1,6,-1
 -16 1638 l 1,7,-1
 1040 1638 l 1,4,-1
1040 1229 m 1,8,-1
 1040 1178 l 1,9,-1
 -16 1178 l 1,10,-1
 -16 1229 l 1,11,-1
 1040 1229 l 1,8,-1
1040 819 m 1,12,-1
 1040 768 l 1,13,-1
 -16 768 l 1,14,-1
 -16 819 l 1,15,-1
 1040 819 l 1,12,-1
1040 0 m 1,16,-1
 1040 -51 l 1,17,-1
 -16 -51 l 1,18,-1
 -16 0 l 1,19,-1
 1040 0 l 1,16,-1
EndSplineSet
Validated: 1
EndChar

StartChar: oe
Encoding: 339 339 116
Width: 1024
VWidth: 2047
Flags: W
LayerCount: 2
Fore
SplineSet
1040 410 m 1,0,-1
 1040 358 l 1,1,-1
 -16 358 l 1,2,-1
 -16 410 l 1,3,-1
 1040 410 l 1,0,-1
1040 1638 m 1,4,-1
 1040 1587 l 1,5,-1
 -16 1587 l 1,6,-1
 -16 1638 l 1,7,-1
 1040 1638 l 1,4,-1
1040 1229 m 1,8,-1
 1040 1178 l 1,9,-1
 -16 1178 l 1,10,-1
 -16 1229 l 1,11,-1
 1040 1229 l 1,8,-1
1040 819 m 1,12,-1
 1040 768 l 1,13,-1
 -16 768 l 1,14,-1
 -16 819 l 1,15,-1
 1040 819 l 1,12,-1
1040 0 m 1,16,-1
 1040 -51 l 1,17,-1
 -16 -51 l 1,18,-1
 -16 0 l 1,19,-1
 1040 0 l 1,16,-1
EndSplineSet
Validated: 1
EndChar

StartChar: zcaron
Encoding: 382 382 117
Width: 1024
VWidth: 2047
Flags: W
LayerCount: 2
Fore
SplineSet
1040 410 m 1,0,-1
 1040 358 l 1,1,-1
 -16 358 l 1,2,-1
 -16 410 l 1,3,-1
 1040 410 l 1,0,-1
1040 1638 m 1,4,-1
 1040 1587 l 1,5,-1
 -16 1587 l 1,6,-1
 -16 1638 l 1,7,-1
 1040 1638 l 1,4,-1
1040 1229 m 1,8,-1
 1040 1178 l 1,9,-1
 -16 1178 l 1,10,-1
 -16 1229 l 1,11,-1
 1040 1229 l 1,8,-1
1040 819 m 1,12,-1
 1040 768 l 1,13,-1
 -16 768 l 1,14,-1
 -16 819 l 1,15,-1
 1040 819 l 1,12,-1
1040 0 m 1,16,-1
 1040 -51 l 1,17,-1
 -16 -51 l 1,18,-1
 -16 0 l 1,19,-1
 1040 0 l 1,16,-1
EndSplineSet
Validated: 1
EndChar

StartChar: Ydieresis
Encoding: 376 376 118
Width: 1024
VWidth: 2047
Flags: W
LayerCount: 2
Fore
SplineSet
1040 410 m 1,0,-1
 1040 358 l 1,1,-1
 -16 358 l 1,2,-1
 -16 410 l 1,3,-1
 1040 410 l 1,0,-1
1040 1638 m 1,4,-1
 1040 1587 l 1,5,-1
 -16 1587 l 1,6,-1
 -16 1638 l 1,7,-1
 1040 1638 l 1,4,-1
1040 1229 m 1,8,-1
 1040 1178 l 1,9,-1
 -16 1178 l 1,10,-1
 -16 1229 l 1,11,-1
 1040 1229 l 1,8,-1
1040 819 m 1,12,-1
 1040 768 l 1,13,-1
 -16 768 l 1,14,-1
 -16 819 l 1,15,-1
 1040 819 l 1,12,-1
1040 0 m 1,16,-1
 1040 -51 l 1,17,-1
 -16 -51 l 1,18,-1
 -16 0 l 1,19,-1
 1040 0 l 1,16,-1
EndSplineSet
Validated: 1
EndChar

StartChar: Jcircumflex
Encoding: 308 308 119
Width: 1024
VWidth: 2047
Flags: W
LayerCount: 2
Fore
SplineSet
477 1128 m 4,0,1
 483 1100 483 1100 493 1083 c 4,2,3
 506 1063 506 1063 520 1046 c 6,4,-1
 555 1001 l 5,5,-1
 600 950 l 5,6,-1
 696 850 l 5,7,8
 712 827 712 827 723.5 810 c 132,-1,9
 735 793 735 793 743 776 c 5,10,-1
 751 836 l 5,11,-1
 753 860 l 5,12,-1
 753 901 l 5,13,-1
 745 934 l 5,14,-1
 729 983 l 6,15,16
 709 1045 709 1045 659 1098 c 5,17,18
 617 1151 617 1151 561 1182 c 4,19,20
 502 1214 502 1214 456 1219 c 5,21,22
 459 1202 459 1202 465.5 1175.5 c 132,-1,23
 472 1149 472 1149 477 1128 c 4,0,1
415 920 m 5,24,-1
 415 1221 l 5,25,-1
 414 1222 l 5,26,-1
 414 1597 l 5,27,-1
 449 1597 l 5,28,29
 454 1550 454 1550 462 1522 c 4,30,31
 473 1488 473 1488 482 1459 c 4,32,33
 499 1398 499 1398 527 1365 c 6,34,-1
 562 1322 l 5,35,-1
 611 1263 l 5,36,-1
 701 1158 l 5,37,38
 803 1025 803 1025 803 880 c 4,39,40
 803 823 803 823 788 771 c 4,41,42
 776 732 776 732 770 720 c 5,43,-1
 614 896 l 5,44,-1
 477 965 l 5,45,-1
 415 920 l 5,24,-1
EndSplineSet
Validated: 1
EndChar

StartChar: jcircumflex
Encoding: 309 309 120
Width: 512
VWidth: 2047
Flags: W
LayerCount: 2
Fore
SplineSet
254 666 m 5,0,-1
 322 908 l 5,1,2
 240 863 240 863 190 863 c 4,3,4
 151 863 151 863 112 894 c 4,5,6
 79 920 79 920 79 961 c 4,7,8
 79 998 79 998 103.5 1027.5 c 132,-1,9
 128 1057 128 1057 167 1057 c 4,10,11
 194 1057 194 1057 224 1027 c 5,12,13
 245 1000 245 1000 245 961 c 5,14,-1
 239 945 l 5,15,-1
 233 928 l 5,16,17
 235 915 235 915 253 914 c 4,18,19
 273 913 273 913 339 967 c 5,20,-1
 403 1203 l 5,21,-1
 333 1172 l 5,22,-1
 304 1164 l 5,23,-1
 272 1162 l 6,24,25
 230 1159 230 1159 194 1189 c 4,26,27
 159 1217 159 1217 159 1258 c 4,28,29
 159 1293 159 1293 179.5 1319.5 c 132,-1,30
 200 1346 200 1346 235 1352 c 5,31,32
 280 1352 280 1352 306 1326 c 5,33,34
 329 1297 329 1297 329 1264 c 4,35,36
 329 1254 329 1254 328 1248 c 132,-1,37
 327 1242 327 1242 321 1219 c 5,38,-1
 335 1213 l 5,39,40
 407 1236 407 1236 458 1320 c 5,41,-1
 478 1320 l 5,42,-1
 282 614 l 5,43,-1
 254 666 l 5,0,-1
EndSplineSet
Validated: 33
EndChar

StartChar: Dcroat
Encoding: 272 272 121
Width: 1024
VWidth: 2047
Flags: W
LayerCount: 2
Fore
SplineSet
0 242 m 1025,0,-1
334 706 m 0,1,2
 346 715 346 715 359 724 c 0,3,4
 406 757 406 757 423 844 c 0,5,6
 447 966 447 966 371 1034 c 1,7,-1
 345 1010 l 1,8,-1
 382 950 l 1,9,10
 398 846 398 846 357 797 c 0,11,12
 330 765 330 765 301 746 c 0,13,14
 167 653 167 653 128 600 c 0,15,16
 112 579 112 579 35 480 c 1,17,-1
 35 1108 l 1,18,19
 68 1075 68 1075 139 1075 c 0,20,21
 259 1075 259 1075 339 1144 c 0,22,23
 426 1219 426 1219 426 1309 c 0,24,25
 426 1367 426 1367 383.5 1400.5 c 128,-1,26
 341 1434 341 1434 278 1434 c 128,-1,27
 215 1434 215 1434 143.5 1399.5 c 128,-1,28
 72 1365 72 1365 45 1321 c 1,29,30
 0 1264 0 1264 0 1200 c 2,31,-1
 0 0 l 1,32,-1
 38 0 l 1,33,-1
 58 90 l 5,34,-1
 86 180 l 5,35,36
 124 264 124 264 198 352 c 0,37,38
 254 419 254 419 298 466 c 0,39,40
 342 512 342 512 347 542 c 0,41,42
 352 572 352 572 360 620 c 0,43,-1
 334 706 l 0,1,2
42 262 m 1,44,-1
 72 374 l 1,45,-1
 121 488 l 2,46,47
 132 513 132 513 209 592 c 0,48,49
 280 665 280 665 299 677 c 1,50,-1
 311 634 l 1,51,52
 316 585 316 585 303 555 c 0,53,54
 275 492 275 492 126 356 c 0,55,56
 59 295 59 295 42 262 c 1,44,-1
EndSplineSet
Validated: 41
EndChar

StartChar: uni0136
Encoding: 310 310 122
Width: 1024
VWidth: 2047
Flags: W
LayerCount: 2
Fore
SplineSet
160 242 m 1029,0,-1
195 0 m 5,1,-1
 160 0 l 5,2,-1
 160 1200 l 6,3,4
 160 1264 160 1264 205 1321 c 5,5,6
 232 1365 232 1365 307 1401 c 4,7,8
 375 1434 375 1434 438 1434 c 4,9,10
 502 1434 502 1434 543 1401 c 4,11,12
 586 1367 586 1367 586 1309 c 4,13,14
 586 1220 586 1220 499 1144 c 4,15,16
 473 1121 473 1121 422 1098 c 132,-1,17
 371 1075 371 1075 299.5 1075 c 132,-1,18
 228 1075 228 1075 195 1108 c 5,19,-1
 195 438 l 5,20,21
 219 512 219 512 291 590 c 4,22,23
 376 681 376 681 427 720 c 4,24,25
 503 778 503 778 517 809 c 4,26,27
 552 886 552 886 542 950 c 5,28,-1
 505 1010 l 5,29,-1
 531 1034 l 5,30,31
 569 1000 569 1000 581 958 c 4,32,33
 596 908 596 908 583 844 c 4,34,35
 567 760 567 760 519 724 c 4,36,37
 448 673 448 673 387 610 c 4,38,39
 294 512 294 512 281 488 c 6,40,-1
 219 374 l 5,41,-1
 197 230 l 5,42,-1
 195 230 l 5,43,-1
 195 0 l 5,1,-1
EndSplineSet
Validated: 33
EndChar

StartChar: uni0137
Encoding: 311 311 123
Width: 1024
VWidth: 2047
Flags: W
LayerCount: 2
Fore
SplineSet
209 0 m 29,0,-1
 243 0 l 5,1,-1
 258 90 l 4,2,-1
 286 180 l 4,3,4
 331 280 331 280 390 350 c 4,5,6
 444 414 444 414 504 474 c 28,7,8
 533 503 533 503 547 546 c 4,9,10
 553 564 553 564 551 606 c 4,11,12
 550 615 550 615 530 730 c 29,13,-1
 493 698 l 29,14,-1
 511 634 l 28,15,16
 516 585 516 585 507 564 c 28,17,18
 490 525 490 525 439 468 c 4,19,20
 378 401 378 401 326 356 c 28,21,22
 263 302 263 302 241 260 c 4,23,24
 220 219 220 219 209 130 c 28,25,26
 198 42 198 42 209 0 c 29,0,-1
EndSplineSet
Validated: 41
EndChar

StartChar: dcaron
Encoding: 271 271 124
Width: 1024
VWidth: 2047
Flags: W
LayerCount: 2
Fore
SplineSet
35 387 m 1,0,1
 59 387 59 387 91 397.5 c 128,-1,2
 123 408 123 408 152 424 c 0,3,4
 207 453 207 453 250 508 c 1,5,6
 299 559 299 559 319 623 c 0,7,8
 328 647 328 647 332 659.5 c 128,-1,9
 336 672 336 672 337 676 c 128,-1,10
 338 680 338 680 339 688 c 128,-1,11
 340 696 340 696 344 705 c 1,12,-1
 344 745 l 1,13,-1
 342 770 l 1,14,-1
 336 825 l 2,15,16
 332 848 332 848 325.5 866.5 c 128,-1,17
 319 885 319 885 313 903 c 2,18,-1
 279 993 l 1,19,-1
 309 991 l 1,20,21
 326 963 326 963 335 939 c 128,-1,22
 344 915 344 915 358 881 c 0,23,24
 377 836 377 836 383 794 c 128,-1,25
 389 752 389 752 389 717 c 0,26,27
 389 571 389 571 287 438 c 1,28,-1
 197 334 l 1,29,-1
 147 274 l 1,30,-1
 113 231 l 2,31,32
 84 190 84 190 68 137 c 0,33,34
 57 109 57 109 48 75 c 128,-1,35
 39 41 39 41 35 0 c 1,36,-1
 0 0 l 1,37,-1
 0 1200 l 2,38,39
 0 1264 0 1264 45 1321 c 1,40,41
 74 1368 74 1368 147 1401 c 0,42,43
 211 1434 211 1434 281 1434 c 0,44,45
 344 1434 344 1434 383 1401 c 0,46,47
 426 1370 426 1370 426 1309 c 0,48,49
 426 1278 426 1278 417 1248.5 c 128,-1,50
 408 1219 408 1219 385 1192 c 0,51,52
 365 1167 365 1167 339 1144.5 c 128,-1,53
 313 1122 313 1122 279 1106 c 0,54,55
 211 1075 211 1075 156 1075 c 0,56,57
 68 1075 68 1075 35 1108 c 1,58,-1
 35 387 l 1,0,1
EndSplineSet
Validated: 1
EndChar

StartChar: kgreenlandic
Encoding: 312 312 125
Width: 1024
VWidth: 2047
Flags: W
LayerCount: 2
Fore
SplineSet
362 -525 m 5,0,1
 370 -545 370 -545 378 -571 c 4,2,3
 392 -618 392 -618 392 -680 c 4,4,5
 393 -825 393 -825 291 -959 c 5,6,-1
 202 -1064 l 5,7,-1
 153 -1123 l 5,8,-1
 118 -1166 l 6,9,10
 90 -1201 90 -1201 73 -1260 c 4,11,12
 65 -1289 65 -1289 54 -1324 c 4,13,14
 46 -1350 46 -1350 41 -1398 c 5,15,-1
 2 -1397 l 5,16,-1
 2 -956 l 29,17,-1
 362 -525 l 5,0,1
73 -921 m 4,18,19
 69 -942 69 -942 61 -968 c 4,20,21
 60 -972 60 -972 52 -1011 c 5,22,23
 98 -1006 98 -1006 157 -974 c 4,24,25
 211 -943 211 -943 254 -890 c 5,26,27
 304 -836 304 -836 323 -774 c 6,28,-1
 340 -726 l 5,29,-1
 347 -692 l 5,30,-1
 347 -651 l 5,31,-1
 345 -627 l 5,32,-1
 337 -567 l 5,33,34
 329 -584 329 -584 318 -602 c 4,35,36
 306 -619 306 -619 290 -642 c 5,37,-1
 195 -742 l 5,38,-1
 150 -793 l 5,39,-1
 115 -838 l 6,40,41
 101 -856 101 -856 88 -876 c 4,42,43
 79 -893 79 -893 73 -921 c 4,18,19
EndSplineSet
Validated: 33
EndChar

StartChar: uni009E
Encoding: 158 158 126
Width: 512
VWidth: 2047
Flags: W
LayerCount: 2
Fore
SplineSet
430 385 m 1,0,-1
 430 352 l 1,1,2
 403 348 403 348 388 338 c 128,-1,3
 373 328 373 328 362 297 c 2,4,-1
 348 254 l 2,5,6
 332 217 332 217 321.5 193.5 c 128,-1,7
 311 170 311 170 289 135 c 1,8,9
 313 94 313 94 336.5 77.5 c 128,-1,10
 360 61 360 61 387 61 c 0,11,12
 403 61 403 61 412.5 72.5 c 128,-1,13
 422 84 422 84 438 111 c 1,14,-1
 453 100 l 1,15,16
 426 0 426 0 362 0 c 0,17,18
 340 0 340 0 312.5 19.5 c 128,-1,19
 285 39 285 39 254 84 c 1,20,21
 219 39 219 39 183 19.5 c 128,-1,22
 147 0 147 0 109 0 c 0,23,24
 57 0 57 0 28.5 35 c 128,-1,25
 0 70 0 70 0 133 c 0,26,27
 0 246 0 246 100 328 c 1,28,-1
 125 346 l 1,29,30
 111 395 111 395 106.5 423 c 128,-1,31
 102 451 102 451 102 477 c 0,32,33
 102 535 102 535 131 573.5 c 128,-1,34
 160 612 160 612 201 612 c 256,35,36
 242 612 242 612 264.5 582.5 c 128,-1,37
 287 553 287 553 287 506 c 0,38,39
 287 457 287 457 263.5 415 c 128,-1,40
 240 373 240 373 182 338 c 1,41,42
 193 309 193 309 202 287.5 c 128,-1,43
 211 266 211 266 221 246.5 c 128,-1,44
 231 227 231 227 242.5 207.5 c 128,-1,45
 254 188 254 188 268 164 c 1,46,47
 295 201 295 201 312.5 244 c 128,-1,48
 330 287 330 287 330 315 c 0,49,50
 330 338 330 338 322.5 343 c 128,-1,51
 315 348 315 348 291 352 c 1,52,-1
 291 385 l 1,53,-1
 430 385 l 1,0,-1
166 373 m 1,54,-1
 178 381 l 1,55,56
 254 438 254 438 254 508 c 0,57,58
 254 543 254 543 238.5 559 c 128,-1,59
 223 575 223 575 203 575 c 0,60,61
 180 575 180 575 158.5 544.5 c 128,-1,62
 137 514 137 514 137 481 c 0,63,64
 137 465 137 465 138 453.5 c 128,-1,65
 139 442 139 442 142 431 c 128,-1,66
 145 420 145 420 150.5 406.5 c 128,-1,67
 156 393 156 393 166 373 c 1,54,-1
139 303 m 2,68,-1
 137 309 l 1,69,70
 94 272 94 272 70.5 227 c 128,-1,71
 47 182 47 182 47 139 c 0,72,73
 47 86 47 86 74.5 65.5 c 128,-1,74
 102 45 102 45 137 45 c 0,75,76
 160 45 160 45 184.5 67.5 c 128,-1,77
 209 90 209 90 231 119 c 1,78,79
 219 143 219 143 209 160.5 c 128,-1,80
 199 178 199 178 187.5 197.5 c 128,-1,81
 176 217 176 217 165 241.5 c 128,-1,82
 154 266 154 266 139 303 c 2,68,-1
EndSplineSet
Validated: 1
EndChar

StartChar: uni0098
Encoding: 152 152 127
Width: 512
VWidth: 2047
Flags: W
LayerCount: 2
Fore
SplineSet
102 0 m 1,0,-1
 0 0 l 1,1,-1
 0 1434 l 1,2,-1
 102 1434 l 1,3,-1
 102 0 l 1,0,-1
311 0 m 1,4,-1
 205 0 l 1,5,-1
 205 1434 l 1,6,-1
 311 1434 l 1,7,-1
 311 0 l 1,4,-1
EndSplineSet
Validated: 1
EndChar

StartChar: uni0099
Encoding: 153 153 128
Width: 512
VWidth: 2047
Flags: W
LayerCount: 2
Fore
SplineSet
102 1434 m 1,0,-1
 102 31 l 1,1,-1
 102 0 l 1,2,-1
 0 0 l 1,3,-1
 0 1403 l 1,4,-1
 0 1434 l 1,5,-1
 102 1434 l 1,0,-1
EndSplineSet
Validated: 1
EndChar

StartChar: uni0097
Encoding: 151 151 129
Width: 1536
VWidth: 2047
Flags: W
LayerCount: 2
Fore
SplineSet
709 -393 m 0,0,1
 584 -393 584 -393 454 -358.5 c 128,-1,2
 324 -324 324 -324 201 -221 c 1,3,4
 201 -225 201 -225 182.5 -195.5 c 128,-1,5
 164 -166 164 -166 137.5 -122 c 128,-1,6
 111 -78 111 -78 82 -26.5 c 128,-1,7
 53 25 53 25 31.5 68 c 128,-1,8
 10 111 10 111 6.5 126 c 128,-1,9
 3 141 3 141 3 147 c 0,10,11
 3 154 3 154 7 154 c 0,12,13
 10 154 10 154 14 152 c 0,14,15
 27 137 27 137 53.5 97 c 128,-1,16
 80 57 80 57 108.5 14 c 128,-1,17
 137 -29 137 -29 163.5 -65.5 c 128,-1,18
 190 -102 190 -102 201 -111 c 0,19,20
 330 -221 330 -221 460 -258 c 128,-1,21
 590 -295 590 -295 719 -295 c 0,22,23
 842 -295 842 -295 971 -255 c 128,-1,24
 1100 -215 1100 -215 1223 -123 c 0,25,26
 1235 -115 1235 -115 1260.5 -76 c 128,-1,27
 1286 -37 1286 -37 1313.5 8 c 128,-1,28
 1341 53 1341 53 1368 95 c 128,-1,29
 1395 137 1395 137 1407 150 c 0,30,31
 1414 154 1414 154 1418 154 c 256,32,33
 1422 154 1422 154 1422 152 c 0,34,35
 1421 147 1421 147 1417 133 c 128,-1,36
 1413 119 1413 119 1391.5 77 c 128,-1,37
 1370 35 1370 35 1340.5 -17.5 c 128,-1,38
 1311 -70 1311 -70 1284 -116 c 128,-1,39
 1257 -162 1257 -162 1238 -192.5 c 128,-1,40
 1219 -223 1219 -223 1219 -221 c 1,41,42
 1096 -324 1096 -324 966 -358.5 c 128,-1,43
 836 -393 836 -393 709 -393 c 0,0,1
961 1432 m 1,44,-1
 961 0 l 1,45,-1
 862 0 l 1,46,-1
 862 1432 l 1,47,-1
 961 1432 l 1,44,-1
EndSplineSet
Validated: 1
EndChar

StartChar: uni0094
Encoding: 148 148 130
Width: 512
VWidth: 2047
Flags: W
LayerCount: 2
Fore
SplineSet
0 0 m 1,0,-1
 0 1403 l 1,1,-1
 0 1434 l 1,2,-1
 207 1434 l 1,3,-1
 207 31 l 1,4,-1
 207 0 l 1,5,-1
 0 0 l 1,0,-1
307 0 m 1,6,-1
 307 1403 l 1,7,-1
 307 1434 l 1,8,-1
 393 1434 l 1,9,-1
 393 31 l 1,10,-1
 393 0 l 1,11,-1
 307 0 l 1,6,-1
EndSplineSet
Validated: 1
EndChar

StartChar: uni0095
Encoding: 149 149 131
Width: 512
VWidth: 2047
Flags: W
LayerCount: 2
Fore
SplineSet
102 1434 m 1,0,-1
 102 31 l 1,1,-1
 102 0 l 1,2,-1
 0 0 l 1,3,-1
 0 1403 l 1,4,-1
 0 1434 l 1,5,-1
 102 1434 l 1,0,-1
EndSplineSet
Validated: 1
EndChar

StartChar: uni0096
Encoding: 150 150 132
Width: 512
VWidth: 2047
Flags: W
LayerCount: 2
Fore
SplineSet
195 1434 m 1,0,-1
 195 31 l 1,1,-1
 195 0 l 1,2,-1
 109 0 l 1,3,-1
 109 1403 l 1,4,-1
 109 1434 l 1,5,-1
 195 1434 l 1,0,-1
512 1434 m 1,6,-1
 512 31 l 1,7,-1
 512 0 l 1,8,-1
 305 0 l 1,9,-1
 305 1403 l 1,10,-1
 305 1434 l 1,11,-1
 512 1434 l 1,6,-1
EndSplineSet
Validated: 1
EndChar

StartChar: uni0093
Encoding: 147 147 133
Width: 512
VWidth: 2047
Flags: W
LayerCount: 2
Fore
SplineSet
102 299 m 1,0,-1
 102 -170 l 1,1,-1
 102 -201 l 1,2,-1
 0 -201 l 1,3,-1
 0 268 l 1,4,-1
 0 299 l 1,5,-1
 102 299 l 1,0,-1
102 1638 m 1,6,-1
 102 1165 l 1,7,-1
 102 1135 l 1,8,-1
 0 1135 l 1,9,-1
 0 1608 l 1,10,-1
 0 1638 l 1,11,-1
 102 1638 l 1,6,-1
EndSplineSet
Validated: 1
EndChar

StartChar: uni0090
Encoding: 144 144 134
Width: 1024
VWidth: 2047
Flags: W
LayerCount: 2
Fore
SplineSet
0 0 m 1,0,-1
 0 1403 l 1,1,-1
 0 1434 l 1,2,-1
 207 1434 l 1,3,-1
 207 31 l 1,4,-1
 207 0 l 1,5,-1
 0 0 l 1,0,-1
457 532 m 0,6,7
 457 569 457 569 483 596 c 0,8,9
 508 623 508 623 547 623 c 0,10,11
 582 623 582 623 606 596 c 0,12,13
 633 569 633 569 633 532 c 0,14,15
 633 498 633 498 607.5 471 c 128,-1,16
 582 444 582 444 547 444 c 256,17,18
 512 444 512 444 484.5 471 c 128,-1,19
 457 498 457 498 457 532 c 0,6,7
457 901 m 256,20,21
 457 938 457 938 483.5 964.5 c 128,-1,22
 510 991 510 991 547 991 c 0,23,24
 580 991 580 991 606.5 964.5 c 128,-1,25
 633 938 633 938 633 901 c 256,26,27
 633 864 633 864 606 840 c 0,28,29
 580 813 580 813 547 813 c 256,30,31
 514 813 514 813 483 838 c 0,32,33
 457 864 457 864 457 901 c 256,20,21
307 0 m 1,34,-1
 307 1403 l 1,35,-1
 307 1434 l 1,36,-1
 358 1434 l 1,37,-1
 358 31 l 1,38,-1
 358 0 l 1,39,-1
 307 0 l 1,34,-1
EndSplineSet
Validated: 1
EndChar

StartChar: uni0091
Encoding: 145 145 135
Width: 512
VWidth: 2047
Flags: W
LayerCount: 2
Fore
SplineSet
102 1434 m 1,0,-1
 102 31 l 1,1,-1
 102 0 l 1,2,-1
 0 0 l 1,3,-1
 0 1403 l 1,4,-1
 0 1434 l 1,5,-1
 102 1434 l 1,0,-1
EndSplineSet
Validated: 1
EndChar

StartChar: uni0092
Encoding: 146 146 136
Width: 1024
VWidth: 2047
Flags: W
LayerCount: 2
Fore
SplineSet
385 537 m 0,0,1
 385 578 385 578 411.5 598 c 128,-1,2
 438 618 438 618 473 618 c 0,3,4
 506 618 506 618 532 598 c 0,5,6
 561 575 561 575 561 537 c 0,7,8
 561 487 561 487 535 461 c 0,9,10
 506 436 506 436 473 436 c 0,11,12
 438 436 438 436 411.5 462.5 c 128,-1,13
 385 489 385 489 385 537 c 0,0,1
385 907 m 0,14,15
 385 946 385 946 412 967 c 0,16,17
 440 989 440 989 473 989 c 0,18,19
 502 989 502 989 537 967 c 1,20,21
 561 944 561 944 561 907 c 0,22,23
 561 860 561 860 534.5 832.5 c 128,-1,24
 508 805 508 805 473 805 c 0,25,26
 440 805 440 805 412 834 c 0,27,28
 385 858 385 858 385 907 c 0,14,15
649 1419 m 1,29,-1
 649 1434 l 1,30,-1
 707 1434 l 1,31,-1
 707 14 l 1,32,-1
 707 0 l 1,33,-1
 649 0 l 1,34,-1
 649 1419 l 1,29,-1
807 1419 m 1,35,-1
 807 1434 l 1,36,-1
 1024 1434 l 1,37,-1
 1024 14 l 1,38,-1
 1024 0 l 1,39,-1
 807 0 l 1,40,-1
 807 1419 l 1,35,-1
EndSplineSet
Validated: 1
EndChar

StartChar: uni007F
Encoding: 127 127 137
Width: 1536
VWidth: 2047
Flags: W
LayerCount: 2
Fore
SplineSet
1300 512 m 2,0,-1
 1300 510 l 2,1,2
 1300 473 1300 473 1277.5 449.5 c 128,-1,3
 1255 426 1255 426 1219 426 c 0,4,5
 1182 426 1182 426 1158.5 448.5 c 128,-1,6
 1135 471 1135 471 1135 508 c 256,7,8
 1135 545 1135 545 1158.5 568.5 c 128,-1,9
 1182 592 1182 592 1219 592 c 0,10,11
 1255 592 1255 592 1277.5 570.5 c 128,-1,12
 1300 549 1300 549 1300 512 c 2,0,-1
0 426 m 1,13,-1
 207 426 l 1,14,-1
 207 592 l 1,15,-1
 752 592 l 1,16,-1
 752 426 l 1,17,-1
 956 426 l 1,18,-1
 956 344 l 1,19,-1
 0 344 l 1,20,-1
 0 426 l 1,13,-1
EndSplineSet
Validated: 1
EndChar

StartChar: uni0080
Encoding: 128 128 138
Width: 1024
VWidth: 2047
Flags: W
LayerCount: 2
Fore
SplineSet
0 428 m 1,0,-1
 207 428 l 1,1,-1
 207 594 l 1,2,-1
 752 594 l 1,3,-1
 752 428 l 1,4,-1
 950 428 l 1,5,-1
 950 346 l 1,6,-1
 0 346 l 1,7,-1
 0 428 l 1,0,-1
EndSplineSet
Validated: 1
EndChar

StartChar: uni0081
Encoding: 129 129 139
Width: 1024
VWidth: 2047
Flags: W
LayerCount: 2
Fore
SplineSet
842 766 m 1,0,-1
 635 766 l 1,1,-1
 635 594 l 1,2,-1
 209 594 l 1,3,-1
 209 766 l 1,4,-1
 0 766 l 1,5,-1
 0 848 l 1,6,-1
 842 848 l 1,7,-1
 842 766 l 1,0,-1
EndSplineSet
Validated: 1
EndChar

StartChar: uni0082
Encoding: 130 130 140
Width: 1024
VWidth: 2047
Flags: W
LayerCount: 2
Fore
SplineSet
0 -92 m 1,0,-1
 1024 -92 l 1,1,-1
 1024 -199 l 1,2,-1
 0 -199 l 1,3,-1
 0 -92 l 1,0,-1
EndSplineSet
Validated: 1
EndChar

StartChar: uni008F
Encoding: 143 143 141
Width: 2048
VWidth: 2047
Flags: W
LayerCount: 2
Fore
SplineSet
946 -379 m 6,0,1
 899 -379 899 -379 819 -370.5 c 132,-1,2
 739 -362 739 -362 646 -343 c 132,-1,3
 553 -324 553 -324 456.5 -292 c 132,-1,4
 360 -260 360 -260 279 -213 c 4,5,6
 279 -211 279 -211 253 -183.5 c 132,-1,7
 227 -156 227 -156 190.5 -115 c 132,-1,8
 154 -74 154 -74 113 -29 c 132,-1,9
 72 16 72 16 43 53 c 132,-1,10
 14 90 14 90 7.5 103.5 c 132,-1,11
 1 117 1 117 1 121 c 4,12,13
 1 126 1 126 6 126 c 4,14,15
 10 126 10 126 18 123 c 4,16,17
 37 115 37 115 75 81 c 132,-1,18
 113 47 113 47 154 8 c 132,-1,19
 195 -31 195 -31 230.5 -64.5 c 132,-1,20
 266 -98 266 -98 283 -106 c 4,21,22
 457 -207 457 -207 634 -240.5 c 132,-1,23
 811 -274 811 -274 985 -274 c 260,24,25
 1159 -274 1159 -274 1328 -233.5 c 132,-1,26
 1497 -193 1497 -193 1663 -106 c 4,27,28
 1677 -100 1677 -100 1713 -67.5 c 132,-1,29
 1749 -35 1749 -35 1790 4 c 132,-1,30
 1831 43 1831 43 1870 78 c 132,-1,31
 1909 113 1909 113 1927 123 c 4,32,33
 1935 126 1935 126 1939 126 c 260,34,35
 1943 126 1943 126 1943 122 c 260,36,37
 1943 118 1943 118 1936 106 c 132,-1,38
 1929 94 1929 94 1900.5 57 c 132,-1,39
 1872 20 1872 20 1832 -27 c 132,-1,40
 1792 -74 1792 -74 1755 -115 c 132,-1,41
 1718 -156 1718 -156 1692.5 -184.5 c 132,-1,42
 1667 -213 1667 -213 1622 -229.5 c 132,-1,43
 1577 -246 1577 -246 1479.5 -275.5 c 132,-1,44
 1382 -305 1382 -305 1295 -328.5 c 132,-1,45
 1208 -352 1208 -352 1135.5 -365.5 c 132,-1,46
 1063 -379 1063 -379 1022 -379 c 6,47,-1
 946 -379 l 6,0,1
1391 1432 m 5,48,-1
 1391 0 l 5,49,-1
 1292 0 l 5,50,-1
 1292 1432 l 5,51,-1
 1391 1432 l 5,48,-1
EndSplineSet
Validated: 1
EndChar

StartChar: uni008E
Encoding: 142 142 142
Width: 1536
VWidth: 2047
Flags: W
LayerCount: 2
Fore
SplineSet
674 -393 m 2,0,1
 545 -393 545 -393 425 -350 c 128,-1,2
 305 -307 305 -307 182 -213 c 0,3,4
 178 -213 178 -213 160.5 -186.5 c 128,-1,5
 143 -160 143 -160 118.5 -121 c 128,-1,6
 94 -82 94 -82 69.5 -38 c 128,-1,7
 45 6 45 6 27.5 40 c 128,-1,8
 10 74 10 74 6.5 85 c 128,-1,9
 3 96 3 96 2 100 c 0,10,11
 2 103 2 103 4 103 c 0,12,13
 7 102 7 102 14 96 c 0,14,15
 45 76 45 76 74.5 43 c 128,-1,16
 104 10 104 10 129 -23.5 c 128,-1,17
 154 -57 154 -57 173.5 -85 c 128,-1,18
 193 -113 193 -113 203 -121 c 0,19,20
 326 -217 326 -217 458 -253 c 128,-1,21
 590 -289 590 -289 717 -289 c 0,22,23
 840 -289 840 -289 961.5 -250 c 128,-1,24
 1083 -211 1083 -211 1202 -125 c 0,25,26
 1214 -119 1214 -119 1234.5 -90 c 128,-1,27
 1255 -61 1255 -61 1281 -26.5 c 128,-1,28
 1307 8 1307 8 1336.5 43 c 128,-1,29
 1366 78 1366 78 1395 97 c 0,30,31
 1403 103 1403 103 1405 103 c 0,32,33
 1410 103 1410 103 1410 96 c 0,34,35
 1410 93 1410 93 1406.5 81.5 c 128,-1,36
 1403 70 1403 70 1384.5 35 c 128,-1,37
 1366 0 1366 0 1339.5 -43 c 128,-1,38
 1313 -86 1313 -86 1288.5 -124 c 128,-1,39
 1264 -162 1264 -162 1246.5 -187.5 c 128,-1,40
 1229 -213 1229 -213 1231 -213 c 1,41,42
 1108 -307 1108 -307 993.5 -350 c 128,-1,43
 879 -393 879 -393 750 -393 c 2,44,-1
 674 -393 l 2,0,1
EndSplineSet
Validated: 1
EndChar

StartChar: uni009F
Encoding: 159 159 143
Width: 512
VWidth: 2047
Flags: W
LayerCount: 2
Fore
SplineSet
242 68 m 1,0,1
 225 45 225 45 195.5 22.5 c 128,-1,2
 166 0 166 0 123 0 c 0,3,4
 61 0 61 0 30.5 36 c 128,-1,5
 0 72 0 72 0 117 c 0,6,7
 0 164 0 164 19.5 194.5 c 128,-1,8
 39 225 39 225 66.5 242.5 c 128,-1,9
 94 260 94 260 125 267 c 128,-1,10
 156 274 156 274 178 274 c 2,11,-1
 242 274 l 1,12,13
 242 301 242 301 228.5 325.5 c 128,-1,14
 215 350 215 350 154 350 c 2,15,-1
 51 350 l 1,16,-1
 51 424 l 1,17,-1
 162 424 l 2,18,19
 207 424 207 424 237.5 409.5 c 128,-1,20
 268 395 268 395 286.5 370.5 c 128,-1,21
 305 346 305 346 313.5 316.5 c 128,-1,22
 322 287 322 287 322 256 c 2,23,-1
 322 0 l 1,24,-1
 242 0 l 1,25,-1
 242 68 l 1,0,1
176 205 m 2,26,27
 131 205 131 205 103.5 181.5 c 128,-1,28
 76 158 76 158 76 125 c 0,29,30
 76 88 76 88 94.5 78 c 128,-1,31
 113 68 113 68 141 68 c 0,32,33
 160 68 160 68 178.5 76 c 128,-1,34
 197 84 197 84 211 96.5 c 128,-1,35
 225 109 225 109 233.5 120 c 128,-1,36
 242 131 242 131 242 137 c 2,37,-1
 242 160 l 1,38,-1
 242 205 l 1,39,-1
 176 205 l 2,26,27
EndSplineSet
Validated: 1
EndChar

StartChar: uni0001
Encoding: 1 1 144
Width: 1024
VWidth: 2047
Flags: W
LayerCount: 2
Fore
SplineSet
291 643 m 1,0,1
 256 631 256 631 234.5 604.5 c 128,-1,2
 213 578 213 578 207 548 c 128,-1,3
 201 518 201 518 214 488.5 c 128,-1,4
 227 459 227 459 262 440 c 1,5,6
 272 440 272 440 274 433 c 128,-1,7
 276 426 276 426 266 426 c 0,8,9
 246 430 246 430 209 455 c 1,10,11
 160 496 160 496 158 555 c 0,12,13
 152 614 152 614 186 668 c 0,14,15
 205 692 205 692 229 711 c 0,16,17
 233 715 233 715 251.5 724 c 128,-1,18
 270 733 270 733 270 735 c 0,19,20
 262 764 262 764 256 795.5 c 128,-1,21
 250 827 250 827 244 860 c 1,22,23
 211 831 211 831 178 798.5 c 128,-1,24
 145 766 145 766 118.5 728 c 128,-1,25
 92 690 92 690 75.5 647 c 128,-1,26
 59 604 59 604 59 559 c 0,27,28
 59 516 59 516 77.5 478 c 128,-1,29
 96 440 96 440 126 412.5 c 128,-1,30
 156 385 156 385 194.5 368.5 c 128,-1,31
 233 352 233 352 274 352 c 0,32,33
 276 352 276 352 287.5 353 c 128,-1,34
 299 354 299 354 311.5 356 c 128,-1,35
 324 358 324 358 334 360 c 128,-1,36
 344 362 344 362 344 367 c 0,37,38
 342 377 342 377 341 382 c 128,-1,39
 340 387 340 387 340 385 c 1,40,41
 336 408 336 408 331 431.5 c 128,-1,42
 326 455 326 455 322 479 c 0,43,44
 313 520 313 520 306 561 c 128,-1,45
 299 602 299 602 291 643 c 1,0,1
369 375 m 1,46,47
 418 393 418 393 435.5 437 c 128,-1,48
 453 481 453 481 443.5 527 c 128,-1,49
 434 573 434 573 400.5 609 c 128,-1,50
 367 645 367 645 313 645 c 1,51,-1
 369 375 l 1,46,47
242 1012 m 1,52,53
 283 1036 283 1036 314.5 1090.5 c 128,-1,54
 346 1145 346 1145 358 1190 c 0,55,56
 367 1212 367 1212 369 1239 c 128,-1,57
 371 1266 371 1266 360 1288 c 0,58,59
 350 1307 350 1307 337 1309 c 128,-1,60
 324 1311 324 1311 311.5 1304.5 c 128,-1,61
 299 1298 299 1298 287.5 1288 c 128,-1,62
 276 1278 276 1278 270 1270 c 0,63,64
 238 1217 238 1217 227.5 1143 c 128,-1,65
 217 1069 217 1069 242 1012 c 1,52,53
221 991 m 1,66,67
 211 1036 211 1036 202 1078 c 128,-1,68
 193 1120 193 1120 193 1167 c 0,69,70
 193 1200 193 1200 198 1240 c 128,-1,71
 203 1280 203 1280 215 1318 c 128,-1,72
 227 1356 227 1356 249.5 1386.5 c 128,-1,73
 272 1417 272 1417 307 1432 c 0,74,75
 310 1433 310 1433 313 1433 c 0,76,77
 318 1433 318 1433 325 1427 c 128,-1,78
 332 1421 332 1421 340 1410 c 128,-1,79
 348 1399 348 1399 353 1387.5 c 128,-1,80
 358 1376 358 1376 360 1374 c 0,81,82
 379 1339 379 1339 387 1300.5 c 128,-1,83
 395 1262 395 1262 397 1223 c 0,84,85
 401 1163 401 1163 392 1105 c 128,-1,86
 383 1047 383 1047 354 993 c 0,87,88
 342 973 342 973 332 956.5 c 128,-1,89
 322 940 322 940 311 928 c 0,90,91
 309 926 309 926 302 918.5 c 128,-1,92
 295 911 295 911 287 903 c 128,-1,93
 279 895 279 895 272.5 889 c 128,-1,94
 266 883 266 883 266 881 c 0,95,96
 274 844 274 844 279.5 811 c 128,-1,97
 285 778 285 778 295 743 c 1,98,99
 295 745 295 745 309.5 744 c 128,-1,100
 324 743 324 743 341 741 c 128,-1,101
 358 739 358 739 372.5 736 c 128,-1,102
 387 733 387 733 389 731 c 0,103,104
 424 715 424 715 449.5 686 c 128,-1,105
 475 657 475 657 490.5 621.5 c 128,-1,106
 506 586 506 586 506 545 c 128,-1,107
 506 504 506 504 496 473 c 0,108,109
 467 399 467 399 406 365 c 0,110,111
 397 360 397 360 385 355 c 128,-1,112
 373 350 373 350 377 340 c 0,113,114
 379 328 379 328 381 316.5 c 128,-1,115
 383 305 383 305 385 293 c 0,116,117
 393 260 393 260 398 227.5 c 128,-1,118
 403 195 403 195 408 160 c 0,119,120
 410 115 410 115 393.5 82 c 128,-1,121
 377 49 377 49 347 29.5 c 128,-1,122
 317 10 317 10 291.5 6.5 c 128,-1,123
 266 3 266 3 254 3 c 0,124,125
 227 3 227 3 199 10 c 1,126,127
 164 25 164 25 138.5 52.5 c 128,-1,128
 113 80 113 80 113 121 c 0,129,130
 113 145 113 145 128 173 c 128,-1,131
 143 201 143 201 166 211 c 0,132,133
 205 231 205 231 233.5 209.5 c 128,-1,134
 262 188 262 188 269 154.5 c 128,-1,135
 276 121 276 121 259 89 c 128,-1,136
 242 57 242 57 193 59 c 1,137,138
 207 35 207 35 230.5 29 c 128,-1,139
 254 23 254 23 279.5 29 c 128,-1,140
 305 35 305 35 328.5 49 c 128,-1,141
 352 63 352 63 365 80 c 0,142,143
 381 106 381 106 383 152.5 c 128,-1,144
 385 199 385 199 375 227 c 1,145,146
 375 250 375 250 364.5 279.5 c 128,-1,147
 354 309 354 309 348 332 c 0,148,149
 346 340 346 340 332.5 337 c 128,-1,150
 319 334 319 334 313 332 c 0,151,152
 260 322 260 322 215 338 c 1,153,154
 154 354 154 354 106.5 397 c 128,-1,155
 59 440 59 440 31 498 c 128,-1,156
 3 556 3 556 3 619 c 128,-1,157
 3 682 3 682 23 733 c 0,158,159
 57 809 57 809 108.5 872.5 c 128,-1,160
 160 936 160 936 221 991 c 1,66,67
EndSplineSet
Validated: 33
EndChar

StartChar: uni0002
Encoding: 2 2 145
Width: 512
VWidth: 2047
Flags: W
LayerCount: 2
Fore
SplineSet
408 420 m 1,0,-1
 408 367 l 1,1,-1
 0 367 l 1,2,-1
 0 420 l 1,3,-1
 408 420 l 1,0,-1
408 258 m 1,4,-1
 408 205 l 1,5,-1
 0 205 l 1,6,-1
 0 258 l 1,7,-1
 408 258 l 1,4,-1
EndSplineSet
Validated: 1
EndChar

StartChar: uni0003
Encoding: 3 3 146
Width: 512
VWidth: 2047
Flags: W
LayerCount: 2
Fore
SplineSet
283 76 m 2,0,1
 283 109 283 109 260.5 125 c 128,-1,2
 238 141 238 141 213 141 c 0,3,4
 184 141 184 141 162 125 c 0,5,6
 139 106 139 106 139 76 c 2,7,-1
 139 0 l 1,8,-1
 0 0 l 1,9,-1
 0 141 l 1,10,-1
 90 141 l 1,11,12
 115 147 115 147 127 168 c 0,13,14
 139 182 139 182 139 215 c 0,15,16
 139 242 139 242 125 262 c 0,17,18
 111 287 111 287 98 289 c 2,19,-1
 0 289 l 1,20,-1
 0 430 l 1,21,-1
 139 430 l 1,22,-1
 139 342 l 2,23,24
 139 322 139 322 162 305 c 2,25,-1
 182 293 l 1,26,-1
 213 289 l 2,27,28
 240 289 240 289 260 303 c 0,29,30
 279 317 279 317 283 340 c 1,31,-1
 283 430 l 1,32,-1
 432 430 l 1,33,-1
 432 289 l 1,34,-1
 340 289 l 1,35,36
 319 283 319 283 301 262 c 0,37,38
 293 252 293 252 288 239.5 c 128,-1,39
 283 227 283 227 283 215 c 0,40,41
 283 188 283 188 297 167.5 c 128,-1,42
 311 147 311 147 340 141 c 1,43,-1
 432 141 l 1,44,-1
 432 0 l 1,45,-1
 283 0 l 1,46,-1
 283 76 l 2,0,1
EndSplineSet
Validated: 1
EndChar

StartChar: uni0004
Encoding: 4 4 147
Width: 512
VWidth: 2047
Flags: W
LayerCount: 2
Fore
SplineSet
190 -119 m 2,0,1
 186 -119 186 -119 169 -116 c 128,-1,2
 152 -113 152 -113 130.5 -106.5 c 128,-1,3
 109 -100 109 -100 88.5 -89 c 128,-1,4
 68 -78 68 -78 55 -61 c 1,5,6
 35 -12 35 -12 23.5 16.5 c 128,-1,7
 12 45 12 45 6.5 66 c 128,-1,8
 1 87 1 87 1 93 c 0,9,10
 1 96 1 96 4 96 c 0,11,12
 18 96 18 96 28.5 84 c 128,-1,13
 39 72 39 72 45 54.5 c 128,-1,14
 51 37 51 37 55 21.5 c 128,-1,15
 59 6 59 6 63 0 c 0,16,17
 90 -39 90 -39 135 -49 c 128,-1,18
 180 -59 180 -59 205 -59 c 0,19,20
 250 -59 250 -59 272.5 -46 c 128,-1,21
 295 -33 295 -33 330 0 c 0,22,23
 336 8 336 8 342 23.5 c 128,-1,24
 348 39 348 39 356.5 55.5 c 128,-1,25
 365 72 365 72 374 84 c 128,-1,26
 383 96 383 96 395 96 c 0,27,28
 399 96 399 96 399 89 c 0,29,30
 399 83 399 83 394 64 c 128,-1,31
 389 45 389 45 375.5 15.5 c 128,-1,32
 362 -14 362 -14 350 -38.5 c 128,-1,33
 338 -63 338 -63 338 -61 c 1,34,35
 326 -80 326 -80 307.5 -91 c 128,-1,36
 289 -102 289 -102 271.5 -108.5 c 128,-1,37
 254 -115 254 -115 239.5 -117 c 128,-1,38
 225 -119 225 -119 221 -119 c 2,39,-1
 190 -119 l 2,0,1
EndSplineSet
Validated: 1
EndChar

StartChar: uni0005
Encoding: 5 5 148
Width: 1024
VWidth: 2047
Flags: W
LayerCount: 2
Fore
SplineSet
358 1321 m 1,0,-1
 457 1321 l 1,1,-1
 88 676 l 1,2,-1
 0 676 l 1,3,-1
 358 1321 l 1,0,-1
563 1321 m 1,4,-1
 662 1321 l 1,5,-1
 293 676 l 1,6,-1
 205 676 l 1,7,-1
 563 1321 l 1,4,-1
EndSplineSet
Validated: 1
EndChar

StartChar: uni0016
Encoding: 22 22 149
Width: 512
VWidth: 2047
Flags: W
LayerCount: 2
Fore
SplineSet
324 1018 m 1,0,-1
 254 987 l 1,1,-1
 225 979 l 1,2,-1
 193 977 l 2,3,4
 147 977 147 977 115 1004 c 0,5,6
 80 1032 80 1032 80 1073 c 0,7,8
 80 1108 80 1108 100.5 1134.5 c 128,-1,9
 121 1161 121 1161 156 1167 c 1,10,11
 201 1167 201 1167 227 1141 c 1,12,13
 250 1112 250 1112 250 1079 c 0,14,15
 250 1069 250 1069 249 1063 c 128,-1,16
 248 1057 248 1057 242 1034 c 1,17,-1
 256 1028 l 1,18,19
 328 1051 328 1051 379 1135 c 1,20,-1
 399 1135 l 1,21,-1
 170 307 l 1,22,-1
 127 307 l 1,23,-1
 244 723 l 5,24,25
 162 678 162 678 111 678 c 0,26,27
 70 678 70 678 33 709 c 0,28,29
 0 735 0 735 0 776 c 0,30,31
 0 813 0 813 24.5 842.5 c 128,-1,32
 49 872 49 872 88 872 c 0,33,34
 115 872 115 872 145 842 c 1,35,36
 166 815 166 815 166 776 c 1,37,-1
 160 760 l 1,38,-1
 154 743 l 1,39,40
 156 731 156 731 174 729 c 0,41,42
 195 729 195 729 260 782 c 1,43,-1
 324 1018 l 1,0,-1
EndSplineSet
Validated: 1
EndChar

StartChar: uni0017
Encoding: 23 23 150
Width: 512
VWidth: 2047
Flags: W
LayerCount: 2
Fore
SplineSet
207 307 m 1,0,-1
 141 307 l 1,1,-1
 332 989 l 1,2,3
 262 928 262 928 197.5 915.5 c 128,-1,4
 133 903 133 903 47 973 c 1,5,6
 0 1025 0 1025 0 1068 c 128,-1,7
 0 1111 0 1111 15.5 1149.5 c 128,-1,8
 31 1188 31 1188 59.5 1207 c 128,-1,9
 88 1226 88 1226 116 1227 c 0,10,11
 135 1227 135 1227 158 1219 c 0,12,13
 203 1202 203 1202 224.5 1166 c 128,-1,14
 246 1130 246 1130 246 1083 c 0,15,16
 244 1071 244 1071 237.5 1060 c 128,-1,17
 231 1049 231 1049 228 1039.5 c 128,-1,18
 225 1030 225 1030 227 1022 c 128,-1,19
 229 1014 229 1014 242 1010 c 0,20,21
 272 1001 272 1001 301 1016.5 c 128,-1,22
 330 1032 330 1032 352.5 1053.5 c 128,-1,23
 375 1075 375 1075 403 1114 c 1,24,-1
 436 1114 l 1,25,26
 414 1032 414 1032 394.5 964.5 c 128,-1,27
 375 897 375 897 350.5 811 c 128,-1,28
 326 725 326 725 300 636 c 128,-1,29
 274 547 274 547 249.5 461 c 128,-1,30
 225 375 225 375 207 307 c 1,0,-1
EndSplineSet
Validated: 33
EndChar

StartChar: uni0018
Encoding: 24 24 151
Width: 1024
VWidth: 2047
Flags: W
LayerCount: 2
Fore
SplineSet
254 307 m 1,0,-1
 188 307 l 1,1,-1
 379 989 l 1,2,3
 344 958 344 958 304 929.5 c 128,-1,4
 264 901 264 901 221 885.5 c 128,-1,5
 178 870 178 870 134 874.5 c 128,-1,6
 90 879 90 879 47 913 c 0,7,8
 10 944 10 944 5.5 976 c 128,-1,9
 1 1008 1 1008 1 1022 c 0,10,11
 1 1055 1 1055 16 1091.5 c 128,-1,12
 31 1128 31 1128 59 1147.5 c 128,-1,13
 87 1167 87 1167 112 1167 c 0,14,15
 136 1167 136 1167 158 1159 c 0,16,17
 203 1143 203 1143 224.5 1107 c 128,-1,18
 246 1071 246 1071 246 1024 c 0,19,20
 244 1012 244 1012 237.5 1000.5 c 128,-1,21
 231 989 231 989 228 980 c 128,-1,22
 225 971 225 971 227 962.5 c 128,-1,23
 229 954 229 954 242 950 c 0,24,25
 272 942 272 942 308 966.5 c 128,-1,26
 344 991 344 991 376 1024 c 128,-1,27
 408 1057 408 1057 451 1114 c 1,28,-1
 483 1114 l 1,29,30
 461 1032 461 1032 441.5 964.5 c 128,-1,31
 422 897 422 897 397.5 811 c 128,-1,32
 373 725 373 725 347.5 636 c 128,-1,33
 322 547 322 547 297 461 c 128,-1,34
 272 375 272 375 254 307 c 1,0,-1
752 727 m 256,35,36
 752 690 752 690 726 663.5 c 128,-1,37
 700 637 700 637 664 637 c 0,38,39
 627 637 627 637 600 663.5 c 128,-1,40
 573 690 573 690 573 727 c 256,41,42
 573 764 573 764 600 789.5 c 128,-1,43
 627 815 627 815 664 815 c 0,44,45
 700 815 700 815 726 789.5 c 128,-1,46
 752 764 752 764 752 727 c 256,35,36
EndSplineSet
Validated: 33
EndChar

StartChar: uni0019
Encoding: 25 25 152
Width: 512
VWidth: 2047
Flags: W
LayerCount: 2
Fore
SplineSet
291 924 m 1,0,1
 225 850 225 850 199 801 c 0,2,3
 172 750 172 750 172 709 c 0,4,5
 172 674 172 674 201 621 c 1,6,-1
 236 567 l 2,7,8
 242 561 242 561 254 543 c 0,9,10
 262 532 262 532 268 523 c 128,-1,11
 274 514 274 514 285 504 c 1,12,-1
 266 479 l 1,13,14
 258 483 258 483 247 489.5 c 128,-1,15
 236 496 236 496 219.5 504 c 128,-1,16
 203 512 203 512 174 512 c 0,17,18
 143 512 143 512 129 492 c 0,19,20
 115 473 115 473 111 438 c 1,21,22
 111 401 111 401 125 373 c 0,23,24
 133 356 133 356 142.5 340 c 128,-1,25
 152 324 152 324 168 309 c 1,26,-1
 154 287 l 1,27,28
 80 336 80 336 45 385 c 0,29,30
 35 393 35 393 27.5 406.5 c 128,-1,31
 20 420 20 420 12 436 c 0,32,33
 0 463 0 463 0 492 c 0,34,35
 0 528 0 528 29 563 c 1,36,37
 63 586 63 586 104 586 c 0,38,39
 143 586 143 586 193 561 c 1,40,-1
 18 795 l 1,41,42
 133 897 133 897 133 985 c 0,43,44
 133 1051 133 1051 61 1147 c 1,45,-1
 109 1147 l 1,46,-1
 291 924 l 1,0,1
EndSplineSet
Validated: 1
EndChar

StartChar: uni001A
Encoding: 26 26 153
Width: 1024
VWidth: 2047
Flags: W
LayerCount: 2
Fore
SplineSet
338 958 m 1,0,1
 262 870 262 870 231 815 c 0,2,3
 217 786 217 786 209 759.5 c 128,-1,4
 201 733 201 733 201 709 c 0,5,6
 201 668 201 668 233 604 c 1,7,-1
 274 543 l 2,8,9
 279 539 279 539 283 531.5 c 128,-1,10
 287 524 287 524 295 514 c 0,11,12
 305 504 305 504 313.5 491.5 c 128,-1,13
 322 479 322 479 332 469 c 1,14,-1
 311 440 l 1,15,16
 301 446 301 446 286 453 c 0,17,18
 272 459 272 459 256 467 c 0,19,20
 238 473 238 473 225.5 475 c 128,-1,21
 213 477 213 477 203 477 c 0,22,23
 166 477 166 477 150 455 c 0,24,25
 141 440 141 440 136 425 c 128,-1,26
 131 410 131 410 129 393 c 0,27,28
 129 371 129 371 145 315 c 0,29,30
 160 274 160 274 195 242 c 1,31,-1
 178 215 l 1,32,33
 137 246 137 246 105.5 274.5 c 128,-1,34
 74 303 74 303 51 330 c 0,35,36
 41 342 41 342 32 357.5 c 128,-1,37
 23 373 23 373 12 389 c 1,38,39
 0 420 0 420 0 453 c 0,40,41
 0 504 0 504 33 537 c 1,42,43
 74 565 74 565 121 565 c 0,44,45
 164 565 164 565 223 535 c 1,46,-1
 20 809 l 1,47,48
 156 926 156 926 156 1030 c 0,49,50
 156 1110 156 1110 70 1219 c 1,51,-1
 127 1219 l 1,52,-1
 338 958 l 1,0,1
602 805 m 256,53,54
 602 776 602 776 581.5 756.5 c 128,-1,55
 561 737 561 737 532 737 c 0,56,57
 504 737 504 737 483.5 756.5 c 128,-1,58
 463 776 463 776 463 805 c 256,59,60
 463 834 463 834 483.5 855.5 c 128,-1,61
 504 877 504 877 532 877 c 0,62,63
 561 877 561 877 581.5 855.5 c 128,-1,64
 602 834 602 834 602 805 c 256,53,54
EndSplineSet
Validated: 1
EndChar

StartChar: uni0008
Encoding: 8 8 154
Width: 1024
VWidth: 2047
Flags: W
LayerCount: 2
Fore
SplineSet
426 731 m 1,0,-1
 426 233 l 2,1,2
 426 170 426 170 381 113 c 1,3,4
 354 68 354 68 279 33 c 0,5,6
 215 0 215 0 145 0 c 0,7,8
 82 0 82 0 43 33 c 1,9,10
 0 63 0 63 0 125 c 0,11,12
 0 156 0 156 9 185.5 c 128,-1,13
 18 215 18 215 41 242 c 0,14,15
 61 266 61 266 87 288.5 c 128,-1,16
 113 311 113 311 147 328 c 0,17,18
 215 358 215 358 270 358 c 0,19,20
 358 358 358 358 391 326 c 1,21,-1
 391 1059 l 1,22,-1
 391 1434 l 1,23,-1
 426 1434 l 1,24,25
 430 1393 430 1393 439.5 1359 c 128,-1,26
 449 1325 449 1325 459 1296 c 0,27,28
 473 1245 473 1245 504 1202 c 2,29,-1
 539 1159 l 1,30,-1
 588 1100 l 1,31,-1
 678 995 l 1,32,33
 780 862 780 862 780 717 c 0,34,35
 780 651 780 651 766 608 c 0,36,37
 763 593 763 593 750 561 c 1,38,39
 780 496 780 496 780 401 c 0,40,41
 780 377 780 377 777 348 c 128,-1,42
 774 319 774 319 766 291 c 1,43,-1
 727 291 l 1,44,-1
 733 348 l 1,45,-1
 735 373 l 1,46,-1
 735 414 l 1,47,-1
 727 444 l 1,48,-1
 711 496 l 2,49,50
 700 526 700 526 682 554 c 128,-1,51
 664 582 664 582 641 608 c 0,52,53
 594 666 594 666 543 694 c 0,54,55
 514 711 514 711 482.5 721 c 128,-1,56
 451 731 451 731 426 731 c 1,0,-1
459 956 m 0,57,58
 465 928 465 928 475 911.5 c 128,-1,59
 485 895 485 895 502 874 c 2,60,-1
 537 829 l 1,61,-1
 582 778 l 1,62,-1
 678 678 l 1,63,64
 694 655 694 655 705.5 638 c 128,-1,65
 717 621 717 621 725 604 c 1,66,-1
 733 664 l 1,67,-1
 735 688 l 1,68,-1
 735 729 l 1,69,-1
 727 762 l 1,70,-1
 711 811 l 2,71,72
 690 874 690 874 641 926 c 1,73,74
 596 983 596 983 543 1010 c 0,75,76
 489 1042 489 1042 438 1047 c 1,77,78
 442 1030 442 1030 447.5 1003.5 c 128,-1,79
 453 977 453 977 459 956 c 0,57,58
EndSplineSet
Validated: 1
EndChar

StartChar: uni0009
Encoding: 9 9 155
Width: 1024
VWidth: 2047
Flags: W
LayerCount: 2
Fore
SplineSet
426 1434 m 1,0,1
 430 1393 430 1393 439.5 1359 c 128,-1,2
 449 1325 449 1325 459 1296 c 0,3,4
 473 1245 473 1245 504 1202 c 2,5,-1
 539 1159 l 1,6,-1
 588 1100 l 1,7,-1
 678 995 l 1,8,9
 780 862 780 862 780 717 c 0,10,11
 780 682 780 682 774 640 c 128,-1,12
 768 598 768 598 750 553 c 0,13,14
 735 518 735 518 726 494.5 c 128,-1,15
 717 471 717 471 700 442 c 1,16,-1
 670 440 l 1,17,-1
 705 530 l 2,18,19
 711 549 711 549 717 567.5 c 128,-1,20
 723 586 723 586 727 608 c 2,21,-1
 733 664 l 1,22,-1
 735 688 l 1,23,-1
 735 729 l 1,24,-1
 727 762 l 1,25,-1
 711 811 l 2,26,27
 690 874 690 874 641 926 c 1,28,29
 596 983 596 983 543 1010 c 0,30,31
 514 1026 514 1026 482.5 1036.5 c 128,-1,32
 451 1047 451 1047 426 1047 c 1,33,-1
 426 233 l 2,34,35
 426 170 426 170 381 113 c 1,36,37
 354 68 354 68 279 33 c 0,38,39
 215 0 215 0 145 0 c 0,40,41
 82 0 82 0 43 33 c 1,42,43
 0 63 0 63 0 125 c 0,44,45
 0 156 0 156 9 185.5 c 128,-1,46
 18 215 18 215 41 242 c 0,47,48
 61 266 61 266 87 288.5 c 128,-1,49
 113 311 113 311 147 328 c 0,50,51
 215 358 215 358 270 358 c 0,52,53
 358 358 358 358 391 326 c 1,54,-1
 391 1059 l 1,55,-1
 391 1434 l 1,56,-1
 426 1434 l 1,0,1
EndSplineSet
Validated: 1
EndChar

StartChar: uni000A
Encoding: 10 10 156
Width: 1024
VWidth: 2047
Flags: W
LayerCount: 2
Fore
SplineSet
426 1434 m 1,0,1
 430 1393 430 1393 439.5 1359 c 128,-1,2
 449 1325 449 1325 459 1296 c 0,3,4
 473 1245 473 1245 504 1202 c 2,5,-1
 539 1159 l 1,6,-1
 588 1100 l 1,7,-1
 678 995 l 1,8,9
 780 862 780 862 780 717 c 4,10,11
 780 682 780 682 774 640 c 128,-1,12
 768 598 768 598 750 553 c 0,13,14
 735 518 735 518 726 494.5 c 128,-1,15
 717 471 717 471 700 442 c 1,16,-1
 670 440 l 1,17,-1
 705 530 l 2,18,19
 711 549 711 549 717 567.5 c 128,-1,20
 723 586 723 586 727 608 c 2,21,-1
 733 664 l 1,22,-1
 735 688 l 1,23,-1
 735 729 l 1,24,-1
 727 762 l 1,25,-1
 711 811 l 2,26,27
 690 874 690 874 641 926 c 1,28,29
 596 983 596 983 543 1010 c 0,30,31
 514 1026 514 1026 482.5 1036.5 c 128,-1,32
 451 1047 451 1047 426 1047 c 1,33,-1
 426 233 l 2,34,35
 426 170 426 170 381 113 c 1,36,37
 354 68 354 68 279 33 c 0,38,39
 215 0 215 0 145 0 c 0,40,41
 82 0 82 0 43 33 c 1,42,43
 0 63 0 63 0 125 c 0,44,45
 0 156 0 156 9 185.5 c 128,-1,46
 18 215 18 215 41 242 c 0,47,48
 61 266 61 266 87 288.5 c 128,-1,49
 113 311 113 311 147 328 c 0,50,51
 215 358 215 358 270 358 c 0,52,53
 358 358 358 358 391 326 c 1,54,-1
 391 1059 l 1,55,-1
 391 1434 l 1,56,-1
 426 1434 l 1,0,1
674 238 m 0,57,58
 674 207 674 207 651.5 184.5 c 128,-1,59
 629 162 629 162 598 162 c 256,60,61
 567 162 567 162 544.5 184.5 c 128,-1,62
 522 207 522 207 522 238 c 0,63,64
 522 268 522 268 544.5 289.5 c 128,-1,65
 567 311 567 311 598 311 c 256,66,67
 629 311 629 311 651.5 289.5 c 128,-1,68
 674 268 674 268 674 238 c 0,57,58
EndSplineSet
Validated: 1
EndChar

StartChar: uni000B
Encoding: 11 11 157
Width: 1024
VWidth: 2047
Flags: W
LayerCount: 2
Fore
SplineSet
428 231 m 2,0,1
 428 176 428 176 387 117 c 0,2,3
 344 61 344 61 276.5 30.5 c 128,-1,4
 209 0 209 0 145 0 c 0,5,6
 88 0 88 0 43 33 c 0,7,8
 0 66 0 66 0 121 c 0,9,10
 0 180 0 180 43 236 c 0,11,12
 63 258 63 258 92 281.5 c 128,-1,13
 121 305 121 305 156 328 c 1,14,15
 193 344 193 344 223.5 351 c 128,-1,16
 254 358 254 358 283 358 c 0,17,18
 344 358 344 358 391 324 c 1,19,-1
 391 1434 l 1,20,-1
 428 1434 l 1,21,-1
 428 231 l 2,0,1
EndSplineSet
Validated: 1
EndChar

StartChar: uni000C
Encoding: 12 12 158
Width: 1024
VWidth: 2047
Flags: W
LayerCount: 2
Fore
SplineSet
428 231 m 2,0,1
 428 176 428 176 387 117 c 0,2,3
 344 61 344 61 276.5 30.5 c 128,-1,4
 209 0 209 0 145 0 c 0,5,6
 88 0 88 0 43 33 c 0,7,8
 0 66 0 66 0 121 c 0,9,10
 0 180 0 180 43 236 c 0,11,12
 63 258 63 258 92 281.5 c 128,-1,13
 121 305 121 305 156 328 c 1,14,15
 193 344 193 344 223.5 351 c 128,-1,16
 254 358 254 358 283 358 c 0,17,18
 344 358 344 358 391 324 c 1,19,-1
 391 1434 l 1,20,-1
 428 1434 l 1,21,-1
 428 231 l 2,0,1
684 215 m 256,22,23
 684 184 684 184 661.5 161.5 c 128,-1,24
 639 139 639 139 608 139 c 0,25,26
 578 139 578 139 555 161.5 c 128,-1,27
 532 184 532 184 532 215 c 256,28,29
 532 246 532 246 555 268.5 c 128,-1,30
 578 291 578 291 608 291 c 0,31,32
 639 291 639 291 661.5 268.5 c 128,-1,33
 684 246 684 246 684 215 c 256,22,23
EndSplineSet
Validated: 1
EndChar

StartChar: uni000D
Encoding: 13 13 159
Width: 1024
VWidth: 2047
Flags: W
LayerCount: 2
Fore
SplineSet
428 231 m 2,0,1
 428 176 428 176 387 117 c 0,2,3
 344 61 344 61 276.5 30.5 c 128,-1,4
 209 0 209 0 145 0 c 0,5,6
 88 0 88 0 43 33 c 0,7,8
 0 66 0 66 0 121 c 0,9,10
 0 180 0 180 43 236 c 0,11,12
 63 258 63 258 92 281.5 c 128,-1,13
 121 305 121 305 156 328 c 1,14,15
 193 344 193 344 223.5 351 c 128,-1,16
 254 358 254 358 283 358 c 0,17,18
 344 358 344 358 391 324 c 1,19,-1
 391 1434 l 1,20,-1
 428 1434 l 1,21,-1
 428 231 l 2,0,1
684 215 m 256,22,23
 684 184 684 184 661.5 161.5 c 128,-1,24
 639 139 639 139 608 139 c 0,25,26
 578 139 578 139 555 161.5 c 128,-1,27
 532 184 532 184 532 215 c 256,28,29
 532 246 532 246 555 268.5 c 128,-1,30
 578 291 578 291 608 291 c 0,31,32
 639 291 639 291 661.5 268.5 c 128,-1,33
 684 246 684 246 684 215 c 256,22,23
907 215 m 256,34,35
 907 184 907 184 885.5 161.5 c 128,-1,36
 864 139 864 139 834 139 c 0,37,38
 801 139 801 139 779.5 161.5 c 128,-1,39
 758 184 758 184 758 215 c 256,40,41
 758 246 758 246 779.5 268.5 c 128,-1,42
 801 291 801 291 834 291 c 0,43,44
 864 291 864 291 885.5 268.5 c 128,-1,45
 907 246 907 246 907 215 c 256,34,35
EndSplineSet
Validated: 1
EndChar

StartChar: uni000E
Encoding: 14 14 160
Width: 1024
VWidth: 2047
Flags: W
LayerCount: 2
Fore
SplineSet
553 229 m 2,0,1
 553 203 553 203 540.5 175 c 128,-1,2
 528 147 528 147 508 119 c 0,3,4
 463 61 463 61 396.5 30.5 c 128,-1,5
 330 0 330 0 264 0 c 0,6,7
 205 0 205 0 166 33 c 1,8,9
 123 63 123 63 123 123 c 0,10,11
 123 182 123 182 166 236 c 0,12,13
 190 272 190 272 274 330 c 1,14,15
 356 358 356 358 403 358 c 0,16,17
 434 358 434 358 460.5 347 c 128,-1,18
 487 336 487 336 510 319 c 1,19,-1
 510 1432 l 1,20,-1
 553 1434 l 1,21,-1
 553 229 l 2,0,1
631 1450 m 1,22,23
 631 1520 631 1520 588 1579 c 0,24,25
 565 1610 565 1610 536.5 1632.5 c 128,-1,26
 508 1655 508 1655 471 1669 c 1,27,28
 455 1683 455 1683 437.5 1689.5 c 128,-1,29
 420 1696 420 1696 406 1700 c 0,30,31
 369 1706 369 1706 332 1706 c 0,32,33
 254 1706 254 1706 179 1664 c 128,-1,34
 104 1622 104 1622 59 1550 c 0,35,36
 55 1540 55 1540 50 1529 c 128,-1,37
 45 1518 45 1518 41 1503 c 0,38,39
 39 1497 39 1497 37 1491 c 128,-1,40
 35 1485 35 1485 35 1479 c 0,41,42
 33 1477 33 1477 33 1450 c 1,43,-1
 0 1450 l 1,44,45
 6 1524 6 1524 31 1585 c 0,46,47
 45 1618 45 1618 62.5 1646.5 c 128,-1,48
 80 1675 80 1675 100 1702 c 0,49,50
 147 1755 147 1755 207 1782 c 0,51,52
 236 1796 236 1796 267.5 1804 c 128,-1,53
 299 1812 299 1812 332 1812 c 0,54,55
 369 1812 369 1812 402.5 1804 c 128,-1,56
 436 1796 436 1796 465 1782 c 0,57,58
 530 1753 530 1753 567 1704 c 0,59,60
 651 1595 651 1595 668 1450 c 1,61,-1
 631 1450 l 1,22,23
389 1503 m 0,62,63
 389 1481 389 1481 373 1464 c 0,64,65
 358 1450 358 1450 332 1450 c 0,66,67
 311 1450 311 1450 291 1464 c 0,68,69
 276 1477 276 1477 276 1503 c 0,70,71
 276 1524 276 1524 291 1538 c 0,72,73
 291 1542 291 1542 303 1546 c 0,74,75
 313 1546 313 1546 320.5 1548 c 128,-1,76
 328 1550 328 1550 332 1550 c 0,77,78
 356 1550 356 1550 373 1538 c 1,79,80
 389 1516 389 1516 389 1503 c 0,62,63
EndSplineSet
Validated: 1
EndChar

